<?xml version="1.0" encoding="UTF-8"?>
<!DOCTYPE svg PUBLIC "-//W3C//DTD SVG 1.1//EN" "http://www.w3.org/Graphics/SVG/1.1/DTD/svg11.dtd">
<!-- Creator: CorelDRAW 2020 (64-Bit) -->
<svg xmlns="http://www.w3.org/2000/svg" xml:space="preserve" width="210mm" height="240mm" version="1.1" style="shape-rendering:geometricPrecision; text-rendering:geometricPrecision; image-rendering:optimizeQuality; fill-rule:evenodd; clip-rule:evenodd"
viewBox="0 0 21000 24000"
 xmlns:xlink="http://www.w3.org/1999/xlink"
 xmlns:xodm="http://www.corel.com/coreldraw/odm/2003">
 <defs>
  <style type="text/css">
   <![CDATA[
    .fil1 {fill:#434342;fill-rule:nonzero}
    .fil2 {fill:#727271;fill-rule:nonzero}
    .fil0 {fill:#A32523;fill-rule:nonzero}
   ]]>
  </style>
 </defs>
 <g id="Camada_x0020_1">
  <metadata id="CorelCorpID_0Corel-Layer"/>
  <g id="_2085625081248">
   <path class="fil0" d="M16942.29 6961.42l-518.71 0 0 -158.35 425.69 0c71.71,0 107.55,-25.67 107.55,-77.02 0,-49.41 -35.84,-74.09 -107.55,-74.09l-175.8 0c-25.18,0 -45.05,-0.5 -59.58,-1.49 -14.52,-0.94 -35.33,-3.62 -62.44,-7.98 -27.16,-4.36 -51.85,-14.02 -74.15,-29.04 -22.25,-15.02 -39.2,-37.32 -50.85,-66.86 -11.6,-29.54 -17.4,-65.13 -17.4,-106.76 0,-162.76 90.06,-244.14 270.22,-244.14l433.02 0 0 158.4 -359.62 0 -14.52 0 -19.13 0c-61.26,0 -95.41,16.95 -102.2,50.85l0 24.68c0,42.63 31.97,63.94 95.9,63.94l184.52 0c36.78,0 70.48,4.11 100.96,12.34 30.53,8.27 57.39,21.31 80.64,39.25 23.24,17.94 41.43,40.69 54.52,68.3 13.03,27.6 19.57,59.32 19.57,95.16 0,43.56 -6.29,80.39 -18.88,110.42 -12.59,30.04 -24.68,52.54 -36.33,67.56 -11.6,15.01 -29.54,31.27 -53.72,48.67 -24.24,17.44 -58.14,26.16 -101.71,26.16zm-1146.42 -152.55l252.82 0 0 -159.84 -238.3 0c-33.9,0 -62.69,5.11 -86.43,15.27 -23.74,10.16 -35.59,31.72 -35.59,64.63 0,22.3 5.06,39.5 15.22,51.59 10.21,12.1 22.3,19.88 36.32,23.25 14.08,3.42 32.72,5.1 55.96,5.1zm68.3 -454.78l-338.56 0 0 -158.4 414.09 0c49.41,0 94.71,4.86 135.85,14.57 41.19,9.66 81.38,35.09 120.58,76.28 39.26,41.13 58.88,106.31 58.88,195.42l0 479.46 -541.96 0c-75.58,0 -133.67,-20.32 -174.36,-61.01 -42.62,-38.75 -63.93,-93.97 -63.93,-165.63l0 -20.37c4.85,-43.57 15.01,-79.65 30.53,-108.25 15.46,-28.55 37.27,-50.85 65.37,-66.81 28.1,-16.01 58.33,-27.16 90.8,-33.45 32.46,-6.3 72.41,-9.42 119.89,-9.42l267.34 0c0,-40.69 -7.54,-71.42 -22.55,-92.28 -14.97,-20.82 -35.34,-34.35 -61.01,-40.69 -25.68,-6.3 -59.33,-9.42 -100.96,-9.42zm-1425.36 607.33l-200.53 0 0 -765.73 774.46 0c49.36,0 94.91,4.86 136.54,14.57 38.76,10.66 71.47,26.37 98.09,47.18 26.66,20.87 47.23,48.92 61.75,84.31 14.52,35.34 21.81,80.14 21.81,134.36l0 485.31 -201.97 0 0 -459.14c0,-38.76 -4.61,-68.3 -13.83,-88.62 -9.17,-20.37 -23.94,-33.9 -44.31,-40.69 -20.32,-6.79 -44.06,-10.16 -71.17,-10.16l-49.41 0 -36.33 0 -29.04 0 0 598.61 -207.77 0 0 -598.61 -238.29 0 0 598.61zm-331.33 -158.35l0 158.35 -294.94 0c-130.75,0 -227.89,-34.89 -291.33,-104.62 -63.44,-69.74 -95.16,-162.71 -95.16,-278.94 0,-116.27 24.73,-201.72 74.1,-256.48 49.41,-54.72 99.07,-89.36 148.93,-103.88 49.91,-14.53 104.38,-21.81 163.46,-21.81l294.94 0 0 158.4 -267.33 0c-43.57,0 -77.97,3.37 -103.14,10.16 -25.18,6.79 -45.06,20.82 -59.58,42.13 -17.44,22.3 -26.17,53.28 -26.17,93.03l456.22 0 0 161.27 -456.22 0c0,39.7 7.04,69.98 21.07,90.8 14.07,20.81 34.15,35.09 60.31,42.87 25.18,5.8 60.52,8.72 106.07,8.72l268.77 0zm-1172.54 -454.78l-140.9 0 0 -152.6 140.9 0 0 -278.94 201.97 0 0 278.94 216.48 0 0 152.6 -216.48 0 0 309.47c0,45.54 7.53,79.44 22.55,101.7 14.97,22.3 35.58,36.33 61.7,42.13 31.03,4.85 68.3,7.28 111.91,7.28l20.32 0 0 152.55 -184.52 0c-76.52,0 -134.66,-21.31 -174.36,-63.93 -39.69,-42.62 -59.57,-100.71 -59.57,-174.36l0 -374.84zm-419.89 613.13l-518.72 0 0 -158.35 425.69 0c71.72,0 107.55,-25.67 107.55,-77.02 0,-49.41 -35.83,-74.09 -107.55,-74.09l-175.8 0c-25.17,0 -45.05,-0.5 -59.57,-1.49 -14.52,-0.94 -35.34,-3.62 -62.45,-7.98 -27.16,-4.36 -51.84,-14.02 -74.14,-29.04 -22.26,-15.02 -39.21,-37.32 -50.85,-66.86 -11.6,-29.54 -17.4,-65.13 -17.4,-106.76 0,-162.76 90.05,-244.14 270.21,-244.14l433.03 0 0 158.4 -359.63 0 -14.52 0 -19.13 0c-61.26,0 -95.41,16.95 -102.2,50.85l0 24.68c0,42.63 31.97,63.94 95.91,63.94l184.52 0c36.77,0 70.48,4.11 100.96,12.34 30.53,8.27 57.39,21.31 80.63,39.25 23.25,17.94 41.44,40.69 54.52,68.3 13.04,27.6 19.58,59.32 19.58,95.16 0,43.56 -6.3,80.39 -18.88,110.42 -12.59,30.04 -24.69,52.54 -36.33,67.56 -11.6,15.01 -29.54,31.27 -53.73,48.67 -24.23,17.44 -58.13,26.16 -101.7,26.16zm-893.61 -1044.67l209.25 0 0 190.32 -209.25 0 0 -190.32zm0 278.94l209.25 0 0 765.73 -209.25 0 0 -765.73zm-355.95 765.73l-518.72 0 0 -158.35 425.69 0c71.72,0 107.55,-25.67 107.55,-77.02 0,-49.41 -35.83,-74.09 -107.55,-74.09l-175.8 0c-25.18,0 -45.05,-0.5 -59.57,-1.49 -14.52,-0.94 -35.34,-3.62 -62.45,-7.98 -27.16,-4.36 -51.84,-14.02 -74.15,-29.04 -22.25,-15.02 -39.2,-37.32 -50.85,-66.86 -11.59,-29.54 -17.39,-65.13 -17.39,-106.76 0,-162.76 90.05,-244.14 270.21,-244.14l433.03 0 0 158.4 -359.63 0 -14.52 0 -19.13 0c-61.26,0 -95.41,16.95 -102.2,50.85l0 24.68c0,42.63 31.97,63.94 95.91,63.94l184.52 0c36.77,0 70.47,4.11 100.95,12.34 30.53,8.27 57.4,21.31 80.64,39.25 23.25,17.94 41.44,40.69 54.52,68.3 13.03,27.6 19.58,59.32 19.58,95.16 0,43.56 -6.3,80.39 -18.89,110.42 -12.59,30.04 -24.68,52.54 -36.33,67.56 -11.59,15.01 -29.53,31.27 -53.72,48.67 -24.24,17.44 -58.14,26.16 -101.7,26.16z"/>
   <path class="fil1" d="M9824.12 6797.22l124.95 0 0 -434.41 -62.95 -2.92 -62.94 0c-67.61,0 -119.89,11.15 -157.66,33.4 -37.57,22.31 -59.33,65.87 -65.17,130.8l0 50.85c0,58.13 8.97,102.44 26.91,132.92 17.89,30.53 36.57,51.6 55.9,63.25 19.38,11.59 40.2,18.88 62.5,21.75l78.46 4.36zm326.91 -601.53l0 1040.36 -201.96 0 0 -274.63 -172.43 0c-44.56,0 -84.01,-2.92 -118.9,-8.72 -35.83,-7.73 -69.24,-19.87 -100.71,-36.33 -31.23,-16.45 -60.07,-40.19 -86.24,-71.17 -53.97,-71.72 -81.08,-156.91 -81.08,-255.74l0 -30.53c0,-35.83 4.36,-69.73 13.03,-101.7 8.72,-31.97 20.87,-61.95 36.33,-90.06 15.51,-28.1 33.45,-52.58 53.78,-73.4 20.32,-20.81 51.34,-42.37 92.97,-64.63 41.69,-22.3 100.27,-33.45 175.8,-33.45l389.41 0zm-1094.08 -278.94l209.25 0 0 190.32 -209.25 0 0 -190.32zm0 278.94l209.25 0 0 765.73 -209.25 0 0 -765.73z"/>
   <path class="fil2" d="M9084.08 8073.82l119.4 -569.95 237.84 0c41.28,0 72.17,4.81 92.74,14.24 20.71,9.42 37.7,25.56 51.23,48.56 13.37,22.94 20.18,48.51 20.18,77.07 0,23.62 -4.81,47.47 -14.47,71.89 -9.57,24.28 -21.62,44.32 -36.37,60.08 -14.57,15.8 -29.42,27.75 -44.56,35.85 -15,7.95 -31.04,13.9 -48.18,17.75 -36.61,8.62 -73.6,12.86 -110.88,12.86l-142.77 0 -48.56 231.65 -75.6 0zm137.58 -296.11l126.3 0c48.94,0 84.89,-5.29 107.69,-15.76 23,-10.52 41.42,-26.42 55.08,-47.89 13.81,-21.38 20.71,-44.18 20.71,-68.22 0,-18.57 -3.62,-33.8 -10.9,-45.52 -7.28,-11.8 -17.66,-20.42 -30.9,-25.99 -13.28,-5.57 -38.89,-8.33 -76.69,-8.33l-147.01 0 -44.28 211.71zm386.14 296.11l85.98 -413.13 62.75 0 -17.76 84.5c21.47,-31.7 42.32,-55.17 62.75,-70.41 20.28,-15.28 41.13,-22.85 62.36,-22.85 13.9,0 31.18,5.05 51.61,15.14l-28.66 65.27c-12.24,-9 -25.61,-13.52 -40.09,-13.52 -24.66,0 -49.98,13.8 -75.98,41.27 -26.04,27.43 -46.61,76.79 -61.6,148.16l-34.47 165.57 -66.89 0zm542.91 -51.32c-24.42,20.95 -47.89,36.18 -70.31,45.75 -22.57,9.57 -46.7,14.33 -72.46,14.33 -38.04,0 -68.7,-11.14 -92.07,-33.56 -23.33,-22.28 -34.99,-50.94 -34.99,-85.83 0,-23.09 5.28,-43.37 15.76,-61.18 10.47,-17.61 24.42,-31.85 41.65,-42.56 17.38,-10.76 38.61,-18.47 63.84,-23.09 15.9,-3.19 46.04,-5.57 90.31,-7.43 44.32,-1.85 76.17,-6.52 95.41,-13.95 5.42,-19.23 8.23,-35.13 8.23,-47.89 0,-16.33 -6,-29.04 -17.9,-38.46 -16.47,-12.86 -40.37,-19.38 -71.93,-19.38 -29.57,0 -53.84,6.52 -72.84,19.66 -18.8,13.14 -32.47,31.8 -41.13,55.99l-70.84 -6.38c14.47,-40.85 37.42,-72.17 68.89,-93.93 31.42,-21.76 71.07,-32.66 118.97,-32.66 50.94,0 91.31,12.24 121.16,36.52 22.66,18.18 34.08,41.79 34.08,70.69 0,22.04 -3.19,47.51 -9.57,76.55l-22.66 102.55c-7.19,32.66 -10.76,59.17 -10.76,79.6 0,12.99 2.76,31.56 8.48,55.98l-71.08 0c-3.86,-13.52 -6.67,-30.51 -8.24,-51.32zm26.38 -158c-9.95,3.8 -20.57,6.9 -31.8,8.85 -11.43,2.14 -30.42,4.38 -56.8,6.67 -40.99,3.57 -69.79,8.18 -86.64,13.75 -16.86,5.62 -29.57,14.48 -38.09,26.71 -8.62,12.19 -12.85,25.57 -12.85,40.32 0,19.76 6.76,35.95 20.42,48.56 13.52,12.71 32.9,19.09 58.13,19.09 23.33,0 45.75,-6.09 67.27,-18.42 21.47,-12.38 38.46,-29.47 51.03,-51.51 12.48,-21.99 22.33,-53.32 29.33,-94.02zm302.21 152.29l-11.67 57.56c-16.85,4.38 -33.18,6.61 -48.94,6.61 -27.99,0 -50.17,-6.85 -66.74,-20.66 -12.33,-10.37 -18.57,-24.56 -18.57,-42.46 0,-9 3.33,-29.99 10.09,-62.61l50.13 -240.41 -55.7 0 11.14 -54.13 55.7 0 21.38 -101.21 80.5 -48.42 -31.85 149.63 69.27 0 -11.95 54.13 -68.46 0 -47.75 228.61c-5.95,29.04 -8.9,46.42 -8.9,52.13 0,8.33 2.43,14.71 7.19,19.09 4.76,4.38 12.62,6.62 23.47,6.62 15.52,0 29.47,-1.43 41.66,-4.48zm158.53 -433.32l16.71 -79.6 69.93 0 -16.75 79.6 -69.89 0zm-102.69 490.35l86.5 -413.13 69.94 0 -86.51 413.13 -69.93 0zm462.65 -150.43l70.83 7.14c-17.66,51.51 -42.75,89.69 -75.36,114.63 -32.51,24.95 -69.5,37.42 -111.06,37.42 -44.95,0 -81.32,-14.47 -109.31,-43.51 -27.85,-28.94 -41.8,-69.41 -41.8,-121.4 0,-44.99 8.9,-89.17 26.8,-132.68 17.9,-43.37 43.52,-76.5 76.84,-99.07 33.42,-22.71 71.51,-33.99 114.21,-33.99 44.32,0 79.46,12.47 105.45,37.56 25.9,25.09 38.89,58.13 38.89,99.36l-69.26 4.81c-0.24,-26.14 -7.81,-46.71 -22.81,-61.46 -14.85,-14.71 -34.61,-22.14 -59.03,-22.14 -28.28,0 -52.8,8.9 -73.65,26.8 -20.66,17.76 -36.99,44.85 -48.8,81.17 -11.8,36.37 -17.8,71.41 -17.8,104.97 0,35.14 7.86,61.56 23.37,79.03 15.52,17.66 34.76,26.42 57.56,26.42 22.95,0 44.7,-8.61 65.7,-25.99 20.8,-17.23 37.28,-43.65 49.23,-79.07zm391.61 99.11c-24.42,20.95 -47.89,36.18 -70.32,45.75 -22.56,9.57 -46.7,14.33 -72.45,14.33 -38.04,0 -68.7,-11.14 -92.07,-33.56 -23.33,-22.28 -35,-50.94 -35,-85.83 0,-23.09 5.29,-43.37 15.76,-61.18 10.48,-17.61 24.42,-31.85 41.66,-42.56 17.37,-10.76 38.61,-18.47 63.84,-23.09 15.9,-3.19 46.03,-5.57 90.31,-7.43 44.32,-1.85 76.17,-6.52 95.4,-13.95 5.43,-19.23 8.24,-35.13 8.24,-47.89 0,-16.33 -6,-29.04 -17.9,-38.46 -16.47,-12.86 -40.37,-19.38 -71.93,-19.38 -29.57,0 -53.85,6.52 -72.84,19.66 -18.81,13.14 -32.47,31.8 -41.14,55.99l-70.83 -6.38c14.47,-40.85 37.41,-72.17 68.88,-93.93 31.42,-21.76 71.08,-32.66 118.97,-32.66 50.94,0 91.31,12.24 121.16,36.52 22.66,18.18 34.09,41.79 34.09,70.69 0,22.04 -3.19,47.51 -9.57,76.55l-22.66 102.55c-7.19,32.66 -10.76,59.17 -10.76,79.6 0,12.99 2.76,31.56 8.47,55.98l-71.07 0c-3.86,-13.52 -6.67,-30.51 -8.24,-51.32zm26.37 -158c-9.95,3.8 -20.56,6.9 -31.8,8.85 -11.42,2.14 -30.42,4.38 -56.79,6.67 -40.99,3.57 -69.79,8.18 -86.65,13.75 -16.85,5.62 -29.56,14.48 -38.08,26.71 -8.62,12.19 -12.86,25.57 -12.86,40.32 0,19.76 6.76,35.95 20.43,48.56 13.52,12.71 32.89,19.09 58.13,19.09 23.32,0 45.75,-6.09 67.26,-18.42 21.47,-12.38 38.47,-29.47 51.04,-51.51 12.47,-21.99 22.33,-53.32 29.32,-94.02zm137.73 209.32l86.5 -413.13 64.18 0 -14.86 72.17c28,-28.13 54.13,-48.65 78.56,-61.55 24.42,-12.86 49.22,-19.38 74.69,-19.38 33.85,0 60.37,9.19 79.6,27.33 19.23,18.18 28.9,42.46 28.9,72.98 0,15.28 -3.57,39.27 -10.71,72.17l-55.89 249.41 -69.89 0 57.98 -261.22c5.72,-25.47 8.62,-44.18 8.62,-56.36 0,-13.67 -4.76,-24.81 -14.47,-33.33 -9.67,-8.61 -23.61,-12.85 -41.94,-12.85 -36.71,0 -69.37,12.85 -98.17,38.75 -28.66,25.85 -49.75,70.17 -63.13,132.92l-40.08 192.09 -69.89 0zm721.01 -59.84c-40.18,45.8 -82.12,68.6 -125.78,68.6 -39.13,0 -71.6,-14.47 -97.64,-43.27 -25.99,-28.76 -38.99,-70.7 -38.99,-125.49 0,-50.13 10.38,-96.03 30.9,-137.54 20.56,-41.56 46.32,-72.6 77.22,-93.31 30.94,-20.66 61.98,-31.04 93.02,-31.04 51.18,0 89.93,24.71 116.07,74.03l46.56 -222.09 70.07 0 -118.63 569.95 -65.27 0 12.47 -59.84zm-192.33 -113.4c0,28.66 2.9,51.32 8.61,67.79 5.67,16.57 15.38,30.23 29.19,41.23 13.66,11.05 30.09,16.47 49.32,16.47 31.99,0 60.89,-16.61 86.79,-49.6 34.75,-43.8 52.13,-98.07 52.13,-162.53 0,-32.52 -8.48,-57.99 -25.62,-76.41 -17.09,-18.33 -38.75,-27.47 -64.6,-27.47 -16.85,0 -32.23,3.71 -46.18,11.28 -13.8,7.43 -27.56,20.14 -41.23,38.09 -13.56,17.9 -25.09,40.7 -34.37,68.31 -9.42,27.71 -14.04,51.99 -14.04,72.84zm369.43 16.28c0,-80.36 23.75,-146.96 71.12,-199.76 39.14,-43.41 90.36,-65.17 153.87,-65.17 49.65,0 89.69,15.52 120.21,46.61 30.37,31.04 45.65,72.93 45.65,125.59 0,47.36 -9.57,91.45 -28.8,132.15 -19.09,40.75 -46.42,72.03 -81.69,93.65 -35.47,21.75 -72.61,32.65 -111.74,32.65 -32.09,0 -61.27,-6.9 -87.55,-20.56 -26.42,-13.67 -46.41,-33.18 -60.22,-58.23 -13.95,-25.09 -20.85,-54.03 -20.85,-86.93zm70.08 -6.9c0,38.9 9.37,68.36 28.08,88.36 18.71,20.04 42.61,30.13 71.51,30.13 15.14,0 30.13,-3.04 44.85,-9.14 14.85,-6.14 28.65,-15.28 41.41,-27.75 12.86,-12.47 23.76,-26.66 32.61,-42.56 9.05,-15.95 16.33,-33.04 21.76,-51.46 8.09,-25.62 12.09,-50.18 12.09,-73.8 0,-37.27 -9.42,-66.17 -28.28,-86.74 -18.94,-20.56 -42.7,-30.94 -71.36,-30.94 -22.14,0 -42.32,5.33 -60.51,15.81 -18.28,10.47 -34.75,25.75 -49.46,46.03 -14.71,20.19 -25.47,43.66 -32.37,70.46 -6.91,26.8 -10.33,50.65 -10.33,71.6zm739.43 163.86l106.02 -505.44 -191.57 0 13.66 -64.51 452.51 0 -13.67 64.51 -185.33 0 -106.02 505.44 -75.6 0zm559.05 -140.1l68.46 6.38c-9.95,33.94 -32.62,66.07 -68.04,96.73 -35.41,30.47 -77.74,45.75 -126.82,45.75 -30.66,0 -58.79,-7.04 -84.26,-21.09 -25.62,-14.18 -45.09,-34.61 -58.51,-61.55 -13.38,-26.95 -20.05,-57.61 -20.05,-91.93 0,-44.99 10.53,-88.65 31.33,-130.97 20.95,-42.32 48.03,-73.74 81.22,-94.31 33.27,-20.56 69.22,-30.8 107.97,-30.8 49.37,0 88.74,15.28 118.21,45.8 29.42,30.37 44.18,72.03 44.18,124.68 0,20.19 -1.86,40.75 -5.43,61.99l-305.02 0c-1.05,8.09 -1.57,15.23 -1.57,21.75 0,38.71 8.86,68.18 26.76,88.6 17.8,20.33 39.7,30.51 65.41,30.51 24.13,0 48.03,-7.8 71.5,-23.61 23.38,-15.66 41.66,-38.32 54.66,-67.93zm-205.48 -103.45l232.71 0c0.24,-7.19 0.38,-12.33 0.38,-15.52 0,-35.04 -8.9,-61.99 -26.52,-80.7 -17.8,-18.71 -40.46,-27.99 -68.31,-27.99 -30.28,0 -57.75,10.38 -82.56,30.94 -24.94,20.67 -43.37,51.71 -55.7,93.27zm628.85 93.12l70.83 7.14c-17.66,51.51 -42.75,89.69 -75.36,114.63 -32.51,24.95 -69.5,37.42 -111.06,37.42 -44.95,0 -81.32,-14.47 -109.31,-43.51 -27.85,-28.94 -41.8,-69.41 -41.8,-121.4 0,-44.99 8.9,-89.17 26.8,-132.68 17.9,-43.37 43.52,-76.5 76.84,-99.07 33.42,-22.71 71.51,-33.99 114.21,-33.99 44.32,0 79.46,12.47 105.45,37.56 25.9,25.09 38.9,58.13 38.9,99.36l-69.27 4.81c-0.24,-26.14 -7.81,-46.71 -22.81,-61.46 -14.85,-14.71 -34.61,-22.14 -59.03,-22.14 -28.28,0 -52.8,8.9 -73.65,26.8 -20.66,17.76 -36.99,44.85 -48.79,81.17 -11.81,36.37 -17.81,71.41 -17.81,104.97 0,35.14 7.86,61.56 23.38,79.03 15.52,17.66 34.75,26.42 57.55,26.42 22.95,0 44.71,-8.61 65.7,-25.99 20.8,-17.23 37.28,-43.65 49.23,-79.07zm113.01 150.43l86.51 -413.13 64.17 0 -14.85 72.17c27.99,-28.13 54.13,-48.65 78.55,-61.55 24.42,-12.86 49.22,-19.38 74.69,-19.38 33.85,0 60.37,9.19 79.6,27.33 19.24,18.18 28.9,42.46 28.9,72.98 0,15.28 -3.57,39.27 -10.71,72.17l-55.89 249.41 -69.89 0 57.99 -261.22c5.71,-25.47 8.61,-44.18 8.61,-56.36 0,-13.67 -4.76,-24.81 -14.47,-33.33 -9.66,-8.61 -23.61,-12.85 -41.94,-12.85 -36.71,0 -69.36,12.85 -98.17,38.75 -28.66,25.85 -49.75,70.17 -63.12,132.92l-40.09 192.09 -69.89 0zm455.41 -156.96c0,-80.36 23.76,-146.96 71.13,-199.76 39.13,-43.41 90.36,-65.17 153.86,-65.17 49.66,0 89.7,15.52 120.21,46.61 30.37,31.04 45.66,72.93 45.66,125.59 0,47.36 -9.57,91.45 -28.81,132.15 -19.09,40.75 -46.41,72.03 -81.69,93.65 -35.47,21.75 -72.6,32.65 -111.73,32.65 -32.09,0 -61.27,-6.9 -87.55,-20.56 -26.42,-13.67 -46.42,-33.18 -60.22,-58.23 -13.95,-25.09 -20.86,-54.03 -20.86,-86.93zm70.08 -6.9c0,38.9 9.38,68.36 28.09,88.36 18.71,20.04 42.61,30.13 71.5,30.13 15.14,0 30.14,-3.04 44.85,-9.14 14.85,-6.14 28.66,-15.28 41.42,-27.75 12.85,-12.47 23.75,-26.66 32.61,-42.56 9.04,-15.95 16.33,-33.04 21.76,-51.46 8.09,-25.62 12.09,-50.18 12.09,-73.8 0,-37.27 -9.43,-66.17 -28.28,-86.74 -18.95,-20.56 -42.7,-30.94 -71.36,-30.94 -22.14,0 -42.33,5.33 -60.51,15.81 -18.28,10.47 -34.76,25.75 -49.47,46.03 -14.71,20.19 -25.47,43.66 -32.37,70.46 -6.9,26.8 -10.33,50.65 -10.33,71.6zm355.53 163.86l118.97 -569.95 69.93 0 -119.01 569.95 -69.89 0zm193.95 -156.96c0,-80.36 23.76,-146.96 71.13,-199.76 39.13,-43.41 90.35,-65.17 153.86,-65.17 49.66,0 89.69,15.52 120.21,46.61 30.37,31.04 45.65,72.93 45.65,125.59 0,47.36 -9.56,91.45 -28.8,132.15 -19.09,40.75 -46.41,72.03 -81.69,93.65 -35.47,21.75 -72.6,32.65 -111.74,32.65 -32.08,0 -61.27,-6.9 -87.54,-20.56 -26.43,-13.67 -46.42,-33.18 -60.23,-58.23 -13.95,-25.09 -20.85,-54.03 -20.85,-86.93zm70.08 -6.9c0,38.9 9.38,68.36 28.09,88.36 18.71,20.04 42.6,30.13 71.5,30.13 15.14,0 30.14,-3.04 44.85,-9.14 14.85,-6.14 28.66,-15.28 41.42,-27.75 12.85,-12.47 23.75,-26.66 32.61,-42.56 9.04,-15.95 16.33,-33.04 21.75,-51.46 8.1,-25.62 12.1,-50.18 12.1,-73.8 0,-37.27 -9.43,-66.17 -28.28,-86.74 -18.95,-20.56 -42.71,-30.94 -71.37,-30.94 -22.13,0 -42.32,5.33 -60.5,15.81 -18.29,10.47 -34.76,25.75 -49.47,46.03 -14.71,20.19 -25.47,43.66 -32.37,70.46 -6.9,26.8 -10.33,50.65 -10.33,71.6zm355.91 201.28l71.65 6.38c-0.53,16.19 1.47,28.23 5.85,36.33 4.38,8.09 11.38,14.33 20.95,18.71 12.62,5.71 29.04,8.61 49.23,8.61 42.41,0 72.93,-10.99 91.54,-33.04 12.19,-14.85 23.47,-46.94 33.8,-96.45l7.05 -33.42c-36.51,37.04 -75.36,55.46 -116.64,55.46 -41.65,0 -76.55,-15.37 -104.54,-46.03 -28.09,-30.66 -42.18,-74.17 -42.18,-130.25 0,-46.47 11.04,-89.03 33.18,-127.92 22.14,-38.85 48.42,-68.18 78.93,-87.94 30.52,-19.8 61.94,-29.75 94.31,-29.75 54.04,0 95.69,25.23 124.97,75.79l14.47 -67.03 65.13 0 -83.98 398.8c-9,43.9 -20.95,78.03 -35.66,102.55 -14.85,24.56 -35.27,43.66 -61.55,57.03 -26.28,13.57 -56.66,20.33 -91.17,20.33 -33.13,0 -61.65,-4.24 -85.69,-12.9 -23.85,-8.47 -41.8,-21.09 -53.61,-37.51 -11.8,-16.62 -17.61,-35.42 -17.61,-56.66 0,-6.52 0.52,-13.52 1.57,-21.09zm88.36 -219.94c0,28.23 2.81,49.46 8.23,63.79 7.67,19.9 18.86,35.14 33.28,45.66 14.33,10.47 30.37,15.75 48.04,15.75 23.23,0 46.17,-8.09 68.98,-24.27 22.94,-16.19 41.42,-41.23 55.6,-75.22 14.05,-33.95 21.24,-66.32 21.24,-97.22 0,-33.99 -9.43,-61.03 -28.28,-81.21 -18.86,-20.05 -42.18,-30.09 -69.94,-30.09 -17.09,0 -33.8,4.62 -49.84,13.76 -16.19,9.18 -31.18,23.23 -44.99,42.08 -13.95,18.71 -24.42,41.23 -31.56,67.36 -7.19,26.28 -10.76,46.04 -10.76,59.61zm460.21 -307.83l16.71 -79.6 69.94 0 -16.76 79.6 -69.89 0zm-102.68 490.35l86.5 -413.13 69.93 0 -86.5 413.13 -69.93 0zm456.26 -51.32c-24.42,20.95 -47.89,36.18 -70.31,45.75 -22.57,9.57 -46.71,14.33 -72.46,14.33 -38.04,0 -68.7,-11.14 -92.07,-33.56 -23.33,-22.28 -35,-50.94 -35,-85.83 0,-23.09 5.29,-43.37 15.76,-61.18 10.48,-17.61 24.42,-31.85 41.66,-42.56 17.38,-10.76 38.61,-18.47 63.84,-23.09 15.9,-3.19 46.04,-5.57 90.31,-7.43 44.32,-1.85 76.17,-6.52 95.4,-13.95 5.43,-19.23 8.24,-35.13 8.24,-47.89 0,-16.33 -6,-29.04 -17.9,-38.46 -16.47,-12.86 -40.37,-19.38 -71.93,-19.38 -29.57,0 -53.85,6.52 -72.84,19.66 -18.81,13.14 -32.47,31.8 -41.14,55.99l-70.83 -6.38c14.47,-40.85 37.41,-72.17 68.88,-93.93 31.42,-21.76 71.08,-32.66 118.97,-32.66 50.94,0 91.31,12.24 121.16,36.52 22.66,18.18 34.09,41.79 34.09,70.69 0,22.04 -3.19,47.51 -9.57,76.55l-22.66 102.55c-7.19,32.66 -10.76,59.17 -10.76,79.6 0,12.99 2.76,31.56 8.47,55.98l-71.07 0c-3.86,-13.52 -6.67,-30.51 -8.24,-51.32zm26.38 -158c-9.95,3.8 -20.57,6.9 -31.81,8.85 -11.42,2.14 -30.42,4.38 -56.79,6.67 -40.99,3.57 -69.79,8.18 -86.65,13.75 -16.85,5.62 -29.56,14.48 -38.08,26.71 -8.62,12.19 -12.86,25.57 -12.86,40.32 0,19.76 6.76,35.95 20.43,48.56 13.52,12.71 32.89,19.09 58.13,19.09 23.32,0 45.75,-6.09 67.26,-18.42 21.48,-12.38 38.47,-29.47 51.04,-51.51 12.47,-21.99 22.33,-53.32 29.33,-94.02zm144.86 67.65l70.84 -4c0,20.18 3.05,37.42 9.29,51.75 6.14,14.18 17.52,25.85 34.13,34.89 16.71,9.14 36.09,13.66 58.08,13.66 30.9,0 54.13,-6.23 69.51,-18.71 15.52,-12.33 23.23,-27.04 23.23,-43.89 0,-12.09 -4.67,-23.61 -13.81,-34.51 -9.52,-10.86 -32.75,-24.28 -69.5,-40.18 -36.9,-15.81 -60.51,-26.95 -70.84,-33.42 -17.52,-10.62 -30.66,-23.09 -39.56,-37.57 -8.86,-14.33 -13.24,-30.8 -13.24,-49.51 0,-32.47 12.86,-60.46 38.75,-83.83 25.85,-23.19 61.94,-34.9 108.5,-34.9 51.61,0 91.02,11.95 117.92,35.99 27.09,23.85 40.99,55.42 42.09,94.55l-68.46 4.81c-1.05,-24.95 -9.81,-44.71 -26.28,-59.32 -16.47,-14.57 -39.8,-21.9 -69.94,-21.9 -24.23,0 -43.08,5.57 -56.51,16.71 -13.37,11.28 -19.99,23.37 -19.99,36.37 0,12.86 5.81,24.42 17.38,34.23 7.66,6.76 27.56,17.09 59.7,31.04 53.55,23.23 87.26,41.51 101.21,55.08 22.28,21.33 33.42,47.47 33.42,78.27 0,20.42 -6.24,40.46 -18.85,60.08 -12.48,19.61 -31.57,35.27 -57.28,47.08 -25.75,11.81 -55.98,17.66 -90.88,17.66 -47.51,0 -87.97,-11.8 -121.25,-35.42 -33.33,-23.47 -49.23,-61.93 -47.66,-115.01z"/>
   <path class="fil0" d="M5815.01 5241.23l5.65 -0.14 11.32 -0.27 0.26 -0.02 5.42 -0.06 5.69 -0.09 5.71 -0.09 5.72 -0.08 3.02 -0.06 2.69 0 5.75 -0.03 5.74 -0.03 5.75 -0.03 5.77 0 0 -0.03c552.53,0 997.28,167.86 1333.57,504.14 315.28,315.28 482.5,725.87 502.17,1231.23l0.03 0.92 0.84 24.43 0.03 0.73 0.58 24.77 0.03 0.52 0.35 25.15 0.02 0.29 0.09 25.53 0.03 0.06 -0.06 12.65 0 0.41 -0.06 12.64 -0.02 0.41 -0.18 13c-5.68,385.78 -95.76,718.46 -270.46,997.83l-520.79 -651.28c37.65,-116.36 56.48,-244.67 56.51,-384.93l-0.64 -0.79c0,-294.86 -80.1,-535.82 -240,-723.45l-0.38 -0.41 -2.09 -2.44c-52.91,-61.03 -114.38,-116.24 -184.5,-165.56 -130.43,-91.9 -275.66,-154.97 -436.14,-188.04l-1.02 -1.28c-76.09,-14.27 -155.58,-21.44 -238.52,-21.44 -422.07,0 -737.58,167.25 -945.82,501.12 -104.09,167.16 -156.22,367.45 -156.25,600.78l0.64 0.78c0,294.89 80.1,535.79 240,723.46l0.38 0.4 2.09 2.44c52.91,61.07 114.38,116.25 184.5,165.56 130.43,91.91 275.66,154.98 436.14,188.05l1.02 1.27c76.09,14.28 155.58,21.44 238.52,21.44 48.04,0 94.69,-2.2 140,-6.53l516.62 646.03c-179.87,57.59 -376.12,89.12 -588.74,94.66l-5.65 0.15 -11.32 0.26 -0.26 0.03 -5.42 0.06 -5.69 0.08 -5.71 0.09 -5.72 0.09 -3.02 0.06 -2.69 0 -5.75 0.03 -5.74 0.02 -5.75 0.03 -5.77 0 0 0.03c-552.53,0 -997.28,-167.85 -1333.57,-504.14 -315.28,-315.25 -482.5,-725.89 -502.17,-1231.22l-0.03 -0.93 -0.84 -24.43 -0.03 -0.72 -0.58 -24.78 -0.03 -0.52 -0.35 -25.15 -0.02 -0.29 -0.09 -25.53 -0.03 -0.06 0.06 -12.65 0 -0.4 0.06 -12.65 0.02 -0.41 0.18 -12.99c7.83,-532.05 176.18,-963.14 505.68,-1292.64 323.4,-323.41 744.69,-491.55 1263.25,-505.04z"/>
   <polygon class="fil0" points="3748.67,6447.5 3748.67,8915.75 3013.55,8915.75 3013.55,6447.5 "/>
   <polygon class="fil0" points="3013.55,5240.3 3748.67,5240.3 3748.67,6073.53 3013.55,6073.53 "/>
   <polygon class="fil1" points="7721.21,8915.75 6986.73,8915.75 5517.16,7078.01 6251.61,7078.01 "/>
   <polygon class="fil0" points="8403.38,5944.58 8403.38,8103.34 8374.94,8103.34 8374.94,5944.58 "/>
  </g>
 </g>
</svg>
