<?xml version="1.0" encoding="UTF-8"?>
<!DOCTYPE svg PUBLIC "-//W3C//DTD SVG 1.1//EN" "http://www.w3.org/Graphics/SVG/1.1/DTD/svg11.dtd">
<!-- Creator: CorelDRAW X8 -->
<svg xmlns="http://www.w3.org/2000/svg" xml:space="preserve" width="22.255mm" height="19.4544mm" version="1.1" style="shape-rendering:geometricPrecision; text-rendering:geometricPrecision; image-rendering:optimizeQuality; fill-rule:evenodd; clip-rule:evenodd"
viewBox="0 0 165 144"
 xmlns:xlink="http://www.w3.org/1999/xlink">
 <defs>
  <style type="text/css">
   <![CDATA[
    .fil0 {fill:white}
   ]]>
  </style>
 </defs>
 <g id="Camada_x0020_1">
  <metadata id="CorelCorpID_0Corel-Layer"/>
  <path class="fil0" d="M95 77c-1,1 1,1 -1,1 -1,0 -1,0 -1,0 0,0 0,0 -1,0 0,0 -1,1 -1,1l-1 1c0,0 0,0 0,0 -1,0 -1,0 -1,1 0,0 0,0 0,0 -1,1 -1,1 -1,2 0,0 0,0 0,1 0,1 0,36 0,40 0,4 0,10 0,14 0,0 0,0 0,0 0,1 0,1 1,3 0,0 1,1 1,1 1,1 0,0 1,1 2,1 2,1 4,1 1,0 7,0 9,0 6,0 12,0 18,0 1,0 35,0 36,0 1,0 2,0 3,-1 0,0 0,0 0,-1 1,0 1,0 1,0 0,0 0,0 0,0 1,0 2,-2 2,-3 0,0 0,0 0,0 1,-1 0,0 0,0 0,-1 0,-1 0,-2 1,0 1,0 1,-1l0 -48c0,-2 0,-3 -1,-5 0,0 0,0 0,-1 0,0 0,-1 -1,-2l0 0c-1,-1 -1,-1 -3,-2 0,0 -2,0 -2,-1 -2,0 -7,0 -9,0 -7,0 -54,0 -54,0zm65 -11l2 -1c0,0 2,-1 2,-2 0,0 0,0 0,0l0 0c1,-2 1,-5 1,-8l0 -40c0,-1 0,-7 0,-8 0,0 0,-1 0,-1 -1,0 -1,-1 -1,-1 0,-1 -2,-3 -3,-4 0,0 -2,-1 -3,-1 -1,0 -3,0 -4,0l-55 0c-1,0 -3,0 -4,0 -1,0 -2,0 -3,1l0 0c0,0 0,0 0,0l-1 0c0,0 0,0 0,1 0,0 0,0 0,0l-2 1 -1 4c0,2 0,6 0,9 0,12 0,24 0,36 0,3 0,6 0,9l0 0c0,1 1,2 1,3 1,1 1,1 2,1 0,1 0,1 2,1 0,0 0,1 1,1l3 0 54 0c2,0 6,0 8,0 0,-1 0,-1 1,-1zm-158 -64c0,1 -1,1 -1,2 -1,2 -1,2 -1,4l0 51c0,3 1,4 2,6 1,0 1,0 2,1 0,0 1,0 1,0 1,1 3,1 4,1 5,0 60,0 61,0 0,0 1,0 1,0l2 -1c0,0 0,0 0,0 1,-1 1,-1 2,-2 1,0 2,-2 2,-2 0,-1 0,-1 0,-1 0,0 0,0 0,-1l0 -50c0,-1 0,-2 0,-3 0,0 0,0 0,-1 0,0 0,0 0,-1l0 0 -1 -1c0,-1 0,-1 -1,-1 0,-1 -1,-2 -2,-2 -2,-1 -8,-1 -12,-1 -6,0 -13,0 -20,0 -11,0 -22,0 -33,0 -2,0 -1,0 -2,0 -1,1 -2,1 -3,2 0,0 0,0 -1,0zm-2 81c0,1 0,1 0,3l0 47c0,2 0,4 1,6 0,1 0,1 1,3l2 1c0,0 0,0 0,0 1,1 2,1 4,1 2,0 4,0 6,0l50 0c4,0 8,1 11,-2 0,0 1,-1 1,-2 0,0 0,0 0,-1 1,-1 1,0 1,-1 0,0 0,-2 0,-3l0 -47c0,-1 0,-2 0,-3 0,0 0,-1 0,-2 0,0 0,0 0,-1 0,-1 -2,-3 -2,-3 -4,-2 -6,-2 -10,-2 -1,0 -3,0 -5,0l-43 0c-3,0 -9,0 -11,0 -1,1 -1,1 -2,1 -1,1 0,1 -2,1 -1,1 -2,3 -2,4z"/>
 </g>
</svg>
