<?xml version="1.0" encoding="UTF-8"?>
<!DOCTYPE svg PUBLIC "-//W3C//DTD SVG 1.1//EN" "http://www.w3.org/Graphics/SVG/1.1/DTD/svg11.dtd">
<!-- Creator: CorelDRAW X8 -->
<svg xmlns="http://www.w3.org/2000/svg" xml:space="preserve" width="31.3386mm" height="35.815mm" version="1.1" style="shape-rendering:geometricPrecision; text-rendering:geometricPrecision; image-rendering:optimizeQuality; fill-rule:evenodd; clip-rule:evenodd"
viewBox="0 0 184 211"
 xmlns:xlink="http://www.w3.org/1999/xlink">
 <defs>
  <style type="text/css">
   <![CDATA[
    .fil0 {fill:#17A2B8}
   ]]>
  </style>
 </defs>
 <g id="Camada_x0020_1">
  <metadata id="CorelCorpID_0Corel-Layer"/>
  <path class="fil0" d="M0 39c0,31 0,62 0,93l0 58 0 5c1,0 1,0 1,1 0,0 0,1 0,1 1,1 1,3 2,4l0 1c0,0 0,0 1,0 0,0 0,0 0,1 0,0 0,0 1,0 0,1 0,1 1,2l3 3c1,0 1,0 1,0 3,1 1,1 6,2 3,1 7,1 10,1l138 0c2,0 5,-1 6,-1l4 -2c0,0 0,0 1,0 1,-1 2,-2 3,-3 2,-2 2,-2 4,-5 1,-1 1,-2 2,-4 0,-1 0,0 0,-1 1,-2 0,-9 0,-12l0 -159c0,-2 0,-3 0,-5 0,-1 0,-3 0,-3 0,-1 0,-1 -1,-2l-1 -2c0,0 0,0 0,0l0 -1c-1,-1 -1,-1 -1,-1l-3 -4c0,0 0,0 0,0l-1 -1c-1,-1 -1,-1 -2,-1l0 -1c-1,0 -1,0 -1,0l-2 -1c0,-1 -2,0 -2,-1 0,0 0,0 0,0l-1 0c-1,-1 -2,-1 -3,-1 -3,0 -28,0 -34,0 -37,0 -74,0 -112,0l-3 0c-1,0 -3,1 -4,2 -1,0 -1,0 -2,0 -3,2 -2,2 -4,3l-1 1c0,0 -1,1 -1,1 0,1 0,0 0,1 -1,1 -2,2 -3,4 0,0 0,0 0,0l-1 1c0,0 0,0 0,0 0,1 0,1 0,1 0,0 0,1 0,2 -1,2 -1,22 -1,23zm157 38c0,-1 0,0 0,-1 0,0 0,0 0,0 1,-4 1,-8 1,-12 0,-3 0,-7 0,-11 0,-1 0,-21 -1,-22 0,-1 0,-2 -1,-3 0,0 0,0 -1,-1 -1,0 -4,0 -5,0l-114 0c-2,0 -3,0 -5,0 -1,0 -1,0 -1,0 0,0 -2,1 -2,1 -1,3 -1,4 -1,7l0 34c0,1 0,5 0,6l0 1c1,0 0,0 1,0 0,1 0,1 0,2 0,0 1,0 1,0 2,1 1,1 5,1l113 0c2,0 4,0 6,0 1,0 1,0 2,-1 1,0 1,-1 2,-1zm-24 31c0,0 -1,0 -1,1 0,1 0,1 0,3 0,9 0,66 0,67 0,2 1,3 2,4 2,1 3,1 6,1 2,0 4,0 6,0 5,0 7,1 10,-1 1,-1 2,-2 2,-4 0,-2 0,-7 0,-9 0,-18 0,-35 0,-52 0,-2 0,-4 0,-7 0,-1 -1,-2 -1,-3 -1,-1 -1,-1 -1,-1l-1 -1c-1,0 -2,0 -3,0l-14 0c-1,0 -2,0 -3,0 0,0 0,0 0,0l-1 1c0,0 0,0 0,0 -1,1 -1,0 -1,1zm-49 24c4,0 13,0 16,0 1,0 1,0 1,-1 2,0 1,1 3,-1 0,0 0,0 0,0l1 -1c0,-1 0,-1 0,-3l0 -17 0 0c-1,-1 -1,-2 -2,-2 -1,-1 -1,-1 -2,-1 -2,-1 -1,0 -3,0 -4,0 -12,-1 -15,0 -1,0 -2,1 -2,1 -2,2 -2,4 -2,7l0 13c0,1 1,0 1,1 0,1 1,3 3,3 0,0 1,0 1,1zm-3 28c0,1 -1,0 -1,2 -1,1 -1,1 -1,2l0 15c0,1 1,1 1,2l0 1c2,3 6,2 9,2 4,0 9,0 12,0 0,0 0,0 1,0 1,-1 1,-1 2,-2l0 0c2,-2 1,-5 1,-9 0,-3 0,-10 0,-12 -1,0 -1,-1 -2,-1 0,0 0,0 0,-1 0,0 0,0 0,0 -1,-1 -4,-1 -5,-1l-13 0c-3,0 -2,0 -4,2zm-52 -29c1,0 0,0 1,0 1,0 1,1 3,1 3,0 12,0 14,0l3 -1c1,-1 1,-1 1,-2 1,0 1,0 1,0 1,-2 1,-9 1,-13 0,-1 0,-5 -1,-6 0,-1 1,-1 -1,-2 0,0 0,-1 0,-1 -1,0 -2,-1 -2,-1 -1,0 -1,0 -2,0 -2,0 -14,0 -16,0 -1,0 -3,1 -4,2 0,1 0,1 0,2 0,0 0,0 0,1l0 9c0,3 -1,7 1,9l0 1c1,0 1,0 1,1zm-2 50c0,0 0,0 0,1 1,0 1,0 1,0 1,1 1,2 5,2 2,0 4,0 6,0 2,0 8,0 10,0 1,0 1,-1 2,-1 0,0 0,0 0,-1 0,0 0,0 1,0 0,0 0,0 0,0 0,-1 0,-1 0,-1 1,-1 1,-1 1,-2l0 -7c0,-3 0,-9 -1,-11 0,0 0,0 0,0 -1,-1 -1,-1 -2,-1 0,-1 0,-1 0,-1 -1,0 -1,0 -2,-1 0,0 -16,0 -17,0 -2,1 -3,2 -4,3 0,1 0,1 0,2 -1,2 0,7 0,9l0 7c0,1 0,1 0,2z"/>
 </g>
</svg>
