<?xml version="1.0" encoding="UTF-8"?>
<!DOCTYPE svg PUBLIC "-//W3C//DTD SVG 1.1//EN" "http://www.w3.org/Graphics/SVG/1.1/DTD/svg11.dtd">
<!-- Creator: CorelDRAW X8 -->
<svg xmlns="http://www.w3.org/2000/svg" xml:space="preserve" width="20.5011mm" height="15.9501mm" version="1.1" style="shape-rendering:geometricPrecision; text-rendering:geometricPrecision; image-rendering:optimizeQuality; fill-rule:evenodd; clip-rule:evenodd"
viewBox="0 0 429 334"
 xmlns:xlink="http://www.w3.org/1999/xlink">
 <defs>
  <style type="text/css">
   <![CDATA[
    .fil0 {fill:white}
   ]]>
  </style>
 </defs>
 <g id="Camada_x0020_1">
  <metadata id="CorelCorpID_0Corel-Layer"/>
  <g id="_2207214267504">
   <path class="fil0" d="M0 119c0,4 0,8 1,11 0,2 0,4 0,5 0,2 1,1 1,2l1 4c0,3 0,5 2,7l2 5c0,1 0,2 0,2 1,2 1,2 2,4 0,1 1,2 2,3l2 5c2,3 4,6 6,8l2 4c1,1 1,1 2,3 2,2 6,5 5,7l-2 3c-1,2 -2,4 -3,6 -1,2 -3,6 -5,8 -1,1 -3,5 -4,6 -1,3 -5,7 -7,9 0,1 0,1 -1,2l-2 3c-1,0 -1,1 -1,1 -1,1 -2,2 -3,3 -1,4 1,10 10,8 2,0 6,0 10,-1 2,0 3,0 4,0l7 -1c1,-1 3,-1 4,-1 4,-2 4,-1 7,-2 1,0 1,0 2,-1l17 -6c2,-2 5,-3 7,-4 4,-2 3,-3 6,-2 1,1 4,2 5,3 1,0 2,1 3,1 1,1 2,1 3,1 1,1 2,1 3,1l4 2c0,0 1,0 2,1 3,0 6,1 9,2l4 1c1,1 2,1 2,1 2,1 9,2 11,2 3,1 1,1 5,1 2,0 2,1 4,1 2,0 4,0 5,0 4,1 1,1 6,1 5,0 10,1 15,1 3,0 5,-1 8,-1 2,0 11,0 13,-1 1,0 1,0 2,0 4,0 5,-1 7,-1 4,0 2,0 5,0 1,-1 0,0 3,-1 1,-1 1,0 2,-1 1,0 2,0 3,0 2,-1 1,0 3,-1l16 -5c1,0 1,0 2,-1l19 -7c0,-1 0,-1 1,-1l9 -5c1,0 2,-1 4,-2 1,-1 1,-1 2,-2 3,-1 5,-3 7,-4 0,0 0,-1 0,-1l1 0c1,-1 1,-1 2,-1 0,0 0,0 0,0l11 -9c0,-1 1,-1 1,-2 1,-1 2,-2 2,-2 1,-1 1,-2 2,-2l8 -9c0,0 0,-1 1,-1 0,-1 0,-2 1,-2 2,-2 3,-5 5,-7 0,0 0,0 0,0 0,-1 0,-1 1,-2l1 -1c0,0 0,-1 0,-1l4 -8c0,0 0,-1 0,-1 0,0 0,0 0,0 0,0 0,0 0,0 1,-2 2,-3 3,-5l1 -6c2,-3 3,-9 3,-13 1,-1 1,-2 1,-4 1,-2 1,-19 0,-23 -1,-4 -2,-9 -3,-13l-2 -6 -8 -17c-3,-3 -4,-7 -7,-10l-10 -12c-4,-4 -3,-4 -8,-8l-2 -1c-3,-3 -4,-3 -7,-6 -3,-2 -9,-6 -13,-8l-6 -4c-3,-2 -6,-3 -8,-4l-6 -3c0,0 -2,0 -3,-1 0,0 -1,0 -2,-1 -1,0 -1,0 -2,0 -2,-1 -5,-2 -7,-3l-10 -2c-1,-1 -1,-1 -3,-1 -2,-1 -4,-1 -7,-2 -1,0 -1,0 -3,0 -3,-1 -6,-2 -10,-2 -5,0 -10,-2 -14,-2 -11,0 -22,-1 -31,1 -3,0 -5,0 -7,1 -3,0 -6,0 -10,1 -2,1 -3,1 -4,1 -2,0 -5,1 -7,1l-21 7c-6,1 -14,6 -17,7 -5,2 -9,5 -13,7 -1,1 -1,0 -2,1 -1,1 -2,1 -2,2l-5 3c-1,1 -2,1 -2,2 -1,0 -2,1 -3,2l-5 4c-1,1 -1,1 -1,1l-4 3c-1,1 -2,2 -2,3l-4 4c-2,1 -3,3 -4,4 -1,2 -2,3 -3,5 -2,2 -3,3 -5,5 0,1 0,1 0,2l0 0c-1,1 -5,7 -6,8 0,1 1,0 0,1 -1,3 -3,6 -4,9 -1,3 -1,5 -2,8 -1,2 -2,5 -2,8 -1,2 -2,8 -2,10 0,3 0,6 0,8z"/>
   <path class="fil0" d="M327 158c0,2 -2,4 -3,7 -1,2 -3,6 -4,9 -1,2 -6,9 -7,12 -2,2 -4,6 -6,8l-4 5c-1,0 -1,1 -1,1 -1,1 -1,1 -1,2 -5,4 -10,10 -14,14l-1 0c0,0 0,0 0,0l-1 1c0,0 0,0 0,0 -4,3 -8,6 -12,9l-12 8c-1,1 -1,1 -2,1 -1,0 -1,1 -1,1 -1,0 -1,0 -2,1 -1,0 -2,1 -3,1l-16 8 -20 7c-2,1 -2,0 -4,1 -2,1 -4,2 -5,2l-10 2c-1,0 -1,0 -2,0l-6 2c-1,0 -3,0 -4,0l-4 1c-2,0 -2,0 -4,0 -3,1 -6,0 -9,1 -2,0 -2,0 -4,0 -8,0 -16,1 -23,0 -3,-1 -7,-1 -10,-1 1,3 4,8 6,10l6 9c2,1 3,3 5,5l2 1c1,2 2,3 3,4 0,0 0,0 0,0 0,0 0,0 0,0 1,1 2,1 2,2l1 0c0,0 0,0 0,0l22 17c1,0 2,0 3,1 1,1 1,1 2,1 1,1 2,1 3,2 2,1 4,2 7,3 1,1 2,1 3,2 2,1 5,2 8,3 2,1 6,2 8,3 1,0 1,0 1,0l10 4c1,0 1,0 2,0 1,0 1,0 1,0 1,1 7,1 8,2 2,0 0,0 2,0l3 1c2,0 3,0 7,1 1,0 8,1 10,1l7 0c5,0 18,1 22,0 2,0 5,0 7,0 3,0 5,-1 7,-1 3,0 4,-1 7,-1 1,0 1,0 3,-1 1,0 2,0 3,0 2,-1 4,-1 6,-1 2,-1 1,-1 3,-1 3,-1 6,-2 9,-3 4,-1 7,-2 11,-4 2,-1 3,-1 6,-2 1,0 3,-1 5,-2 0,0 1,-1 2,-1 3,-2 6,1 8,2l19 9c2,0 3,1 6,1 1,1 1,1 2,1 2,1 2,0 4,1l9 2c1,0 2,0 4,0 2,0 2,1 9,1 5,0 9,2 12,-3 2,-2 0,-6 -2,-8l-8 -10c-2,-2 -2,-3 -3,-5l-3 -3c-1,-2 -2,-4 -3,-6l-3 -5c-2,-1 -3,-5 -4,-7 -1,-3 -2,-2 1,-5 0,-1 1,-2 2,-3 1,-1 2,-3 3,-4 3,-4 5,-6 7,-10 1,-3 3,-5 4,-8 0,-1 2,-4 3,-7l3 -7c0,0 0,0 0,-1 0,-1 0,-2 1,-3 1,-6 3,-13 3,-18 0,-3 0,-6 0,-9 0,-4 -1,-7 -1,-11 -1,-1 -1,-2 -1,-4l-1 -5c0,0 -1,-1 -1,-1 0,-2 0,-2 0,-4 -2,-3 -3,-8 -5,-11l-5 -8c0,-1 0,-1 0,-1l-9 -14c0,0 0,0 0,0l-8 -9c-2,-2 -8,-8 -10,-9l-6 -5c0,0 -1,-1 -2,-2 -3,-1 -5,-3 -7,-4l-3 -2c0,0 0,0 -1,0 0,-1 0,-1 -1,-2l-6 -2c-1,-1 -2,-2 -3,-2l-5 -2c0,0 0,0 0,0l-1 -1c-1,0 -1,0 -1,0l0 0c-1,0 -1,0 -1,0l-4 -2c-2,-1 -12,-5 -14,-5 0,3 1,4 1,7 0,6 0,15 -1,22 0,1 0,2 -1,3 0,1 0,3 0,4 0,1 -1,1 -1,3 0,2 0,1 -1,2 0,1 0,2 0,2 0,1 0,1 0,2 -1,0 0,1 -1,1 0,1 0,1 0,2 0,0 0,1 0,1 -1,2 -1,1 -1,2 -1,1 1,1 -1,2z"/>
  </g>
 </g>
</svg>
