<?xml version="1.0" encoding="UTF-8"?>
<!DOCTYPE svg PUBLIC "-//W3C//DTD SVG 1.1//EN" "http://www.w3.org/Graphics/SVG/1.1/DTD/svg11.dtd">
<!-- Creator: CorelDRAW X8 -->
<svg xmlns="http://www.w3.org/2000/svg" xml:space="preserve" width="22.2549mm" height="19.2574mm" version="1.1" style="shape-rendering:geometricPrecision; text-rendering:geometricPrecision; image-rendering:optimizeQuality; fill-rule:evenodd; clip-rule:evenodd"
viewBox="0 0 160 139"
 xmlns:xlink="http://www.w3.org/1999/xlink">
 <defs>
  <style type="text/css">
   <![CDATA[
    .fil0 {fill:white}
   ]]>
  </style>
 </defs>
 <g id="Camada_x0020_1">
  <metadata id="CorelCorpID_0Corel-Layer"/>
  <path class="fil0" d="M123 0c10,0 18,8 18,18 0,10 -8,18 -18,18 -4,0 -7,-1 -10,-3 -1,-5 -4,-9 -8,-13 0,-1 0,-1 0,-2 0,-10 8,-18 18,-18zm-45 19c15,0 27,12 27,27 0,16 -12,28 -27,28 -15,0 -28,-12 -28,-28 0,-15 13,-27 28,-27zm35 49c13,10 21,26 21,44 0,9 -2,19 -6,27l-100 0c-5,-8 -7,-18 -7,-27 0,-18 8,-34 21,-44 2,3 4,6 6,8 8,8 18,12 30,12 11,0 22,-4 29,-12l0 0c3,-2 5,-5 6,-8zm-76 -68c9,0 17,7 18,16 -2,1 -3,2 -4,4 -5,4 -8,9 -10,15 -1,1 -2,1 -4,1 -10,0 -18,-8 -18,-18 0,-10 8,-18 18,-18zm-18 78l-15 0c-2,-5 -4,-11 -4,-17 0,-12 5,-22 14,-29 1,2 2,4 4,5 5,5 12,8 19,8 1,0 2,0 3,0l-1 1c0,3 1,6 1,9l-5 5c-6,5 -12,11 -16,18zm127 -46c9,7 14,17 14,29 0,6 -1,12 -4,17l-20 0c-4,-7 -9,-13 -16,-18l-5 -5c0,-3 1,-6 1,-9l0 -2c2,1 4,1 7,1 7,0 14,-3 19,-8l0 0c2,-1 3,-3 4,-5z"/>
 </g>
</svg>
