<?xml version="1.0" encoding="UTF-8"?>
<!DOCTYPE svg PUBLIC "-//W3C//DTD SVG 1.1//EN" "http://www.w3.org/Graphics/SVG/1.1/DTD/svg11.dtd">
<!-- Creator: CorelDRAW 2020 (64-Bit) -->
<svg xmlns="http://www.w3.org/2000/svg" xml:space="preserve" width="22.255mm" height="22.255mm" version="1.1" style="shape-rendering:geometricPrecision; text-rendering:geometricPrecision; image-rendering:optimizeQuality; fill-rule:evenodd; clip-rule:evenodd"
viewBox="0 0 97.57 97.57"
 xmlns:xlink="http://www.w3.org/1999/xlink"
 xmlns:xodm="http://www.corel.com/coreldraw/odm/2003">
 <defs>
  <style type="text/css">
   <![CDATA[
    .fil1 {fill:none}
    .fil0 {fill:#6C757D}
   ]]>
  </style>
 </defs>
 <g id="Layer_x0020_1">
  <metadata id="CorelCorpID_0Corel-Layer"/>
  <g id="_1989499449424">
   <path class="fil0" d="M0.59 50l-0.01 26.95c-0.02,6.08 -0.49,10.81 4.96,13.96 3.28,1.9 11.78,1.24 17.16,1.24l57.62 -0.01c4.8,0 8.8,0.65 12.32,-1.63 5.35,-3.46 4.27,-9.73 4.3,-16.57l-0 -24.11c-0,-5.78 -0.64,-7.98 -4.21,-10.63 -1.2,-0.89 -7.97,-6.19 -8.59,-6.3l-0.03 9.1c2.11,1.75 5.31,3.44 5.42,5.2l-20.91 16.61c0.31,0.7 1.93,1.86 2.67,2.5l8.41 7.19c0.88,0.79 2.12,1.4 2.05,3.11 -0.06,1.5 -1.4,2.56 -2.8,2.42 -1.34,-0.13 -4.83,-3.5 -5.97,-4.48l-16.88 -14.5c-8.5,-7.24 -13.54,-1.1 -20.2,4.76 -3.71,3.26 -7.47,6.35 -11.27,9.66 -1.08,0.94 -4.7,4.36 -5.92,4.54 -1.46,0.22 -2.7,-0.8 -2.92,-2.09 -0.32,-1.81 1.14,-2.63 1.93,-3.33 0.54,-0.47 10.9,-9.14 11.15,-9.74l-20.89 -16.64c0.11,-1.75 3.05,-3.29 4.87,-4.73 0.81,-0.64 0.56,-1.27 0.57,-2.56l-0.03 -7c-0.63,0.1 -7.56,5.52 -8.6,6.29 -3.67,2.73 -4.23,5.1 -4.21,10.81zm51.4 -14.54c-0,2.5 -0.27,2.07 5.29,2.06l8.16 -0.01c2.36,-0.01 2.6,0.5 2.6,-2.05 0,-1.58 -1.01,-1.13 -3.67,-1.13l-10.99 -0c-1.08,0.01 -1.39,0.03 -1.39,1.13zm0.19 8.08c0.49,0.68 1.05,0.4 2.62,0.4l10.99 0.01c1.38,-0 2.52,0.43 2.26,-2.29 -0.08,-0.9 -0.44,-0.89 -1.38,-0.9l-13.13 -0.01c-0.9,-0.01 -1.42,-0.07 -1.56,0.75 -0.1,0.58 -0.08,1.68 0.19,2.04zm0.16 -19.09c0.67,0.5 9.13,0.21 11.14,0.2 4.64,-0.01 4.55,0.46 4.55,-1.96 0,-1.45 -0.53,-1.22 -2.42,-1.23l-11.17 0c-0.86,-0 -2.07,-0.21 -2.36,0.44 -0.16,0.36 -0.12,0.92 -0.11,1.32 0.01,0.87 -0.1,0.82 0.37,1.22zm-0.21 6.41c1.04,0.44 14.17,0.22 14.37,0.22 1.02,0.01 1.46,0.05 1.55,-0.95 0.29,-2.98 -0.61,-2.22 -5.1,-2.25l-8.16 0c-1.35,0 -3.78,-0.72 -2.67,2.98zm-17.82 -9.32c-2.72,0.97 -6.37,2.11 -6.63,6.47 -0.42,6.83 7.9,7.52 10.46,9.38 3.67,2.68 0.14,7.74 -7.31,5 -0.88,-0.32 -1.45,-0.89 -2.42,-0.85 -0.45,0.56 -1.34,2.84 -1.24,3.83 2.61,1.9 6.48,1.56 6.97,2.04 0.43,0.53 0.13,2.13 0.4,2.79 0.74,0.25 1.98,0.22 2.73,-0 1.02,-2.47 -1.01,-2.8 1.36,-3.42 0.41,-0.11 0.79,-0.24 1.19,-0.41 6.06,-2.57 6.99,-9.67 0.55,-13.16 -3.09,-1.68 -7.87,-2.01 -7.47,-5.37 0.21,-1.78 2.23,-2.39 4.15,-2.38 1.01,0 1.94,0.14 2.87,0.42 0.97,0.29 1.46,0.81 2.46,0.71 0.44,-0.7 1.3,-2.7 1.21,-3.73 -1.83,-1.44 -4.87,-1.21 -5.99,-1.58 -0.26,-1.21 0.14,-1.77 -0.34,-2.86 -3.92,-1.21 -2.86,1.64 -2.97,3.13zm-17.61 27.03c1.68,1.1 5.15,4.37 6.32,4.96 0.28,-5.35 0.03,-11.41 0.03,-16.83 -0.01,-5.61 -0,-11.23 0,-16.84 0,-1.8 -0.44,-6.95 0.62,-7.73 0.87,-0.64 6.7,-0.34 8.26,-0.33l33.69 0.02c10.03,-0.01 8.83,-1.78 8.88,8.04 0.03,5.61 -0,11.23 0,16.84 0,5.45 -0.24,11.45 0.03,16.84 1.14,-0.57 4.64,-3.84 6.32,-4.96 0.25,-3.49 -0,-14.31 0.03,-18.79 0.02,-2.98 0.16,-16.9 -0.05,-18.78 -0.28,-2.55 -2.11,-4.46 -4.18,-5.22 -1.92,-0.7 -6.43,-0.43 -8.9,-0.4l-37.76 0.01c-2.43,0 -6.97,-0.29 -8.97,0.35 -5.84,1.88 -4.28,8.88 -4.34,14.46 -0.04,3.1 -0.03,6.3 0,9.4 0.07,6.12 -0.34,12.96 0.03,18.97z"/>
   <rect class="fil1" width="97.57" height="97.57"/>
  </g>
 </g>
</svg>
