<?xml version="1.0" encoding="UTF-8"?>
<!DOCTYPE svg PUBLIC "-//W3C//DTD SVG 1.1//EN" "http://www.w3.org/Graphics/SVG/1.1/DTD/svg11.dtd">
<!-- Creator: CorelDRAW 2020 (64-Bit) -->
<svg xmlns="http://www.w3.org/2000/svg" xml:space="preserve" width="22.255mm" height="22.255mm" version="1.1" style="shape-rendering:geometricPrecision; text-rendering:geometricPrecision; image-rendering:optimizeQuality; fill-rule:evenodd; clip-rule:evenodd"
viewBox="0 0 87.76 87.76"
 xmlns:xlink="http://www.w3.org/1999/xlink"
 xmlns:xodm="http://www.corel.com/coreldraw/odm/2003">
 <defs>
  <style type="text/css">
   <![CDATA[
    .fil0 {fill:none}
    .fil1 {fill:#6C757D}
   ]]>
  </style>
 </defs>
 <g id="Layer_x0020_1">
  <metadata id="CorelCorpID_0Corel-Layer"/>
  <g id="_1497470981920">
   <rect class="fil0" width="87.76" height="87.76"/>
   <path class="fil1" d="M48.58 61.81l-0 10.95c-0.01,2.47 -0.2,4.39 2.02,5.67 1.33,0.77 4.79,0.5 6.97,0.5l23.41 -0c1.95,0 3.58,0.26 5.01,-0.66 2.17,-1.41 1.73,-3.95 1.75,-6.73l-0 -9.8c-0,-2.35 -0.26,-3.24 -1.71,-4.32 -0.49,-0.36 -3.24,-2.52 -3.49,-2.56l-0.01 3.7c0.86,0.71 2.16,1.4 2.2,2.11l-8.5 6.75c0.12,0.29 0.78,0.76 1.08,1.02l3.42 2.92c0.36,0.32 0.86,0.57 0.83,1.26 -0.03,0.61 -0.57,1.04 -1.14,0.99 -0.55,-0.05 -1.96,-1.42 -2.43,-1.82l-6.86 -5.89c-3.45,-2.94 -5.5,-0.45 -8.21,1.94 -1.51,1.32 -3.03,2.58 -4.58,3.92 -0.44,0.38 -1.91,1.77 -2.4,1.85 -0.59,0.09 -1.1,-0.32 -1.19,-0.85 -0.13,-0.73 0.46,-1.07 0.79,-1.35 0.22,-0.19 4.43,-3.71 4.53,-3.96l-8.49 -6.76c0.04,-0.71 1.24,-1.34 1.98,-1.92 0.33,-0.26 0.23,-0.51 0.23,-1.04l-0.01 -2.84c-0.26,0.04 -3.07,2.24 -3.49,2.56 -1.49,1.11 -1.72,2.07 -1.71,4.39zm20.88 -5.91c-0,1.02 -0.11,0.84 2.15,0.84l3.31 -0c0.96,-0 1.06,0.2 1.06,-0.83 0,-0.64 -0.41,-0.46 -1.49,-0.46l-4.47 -0c-0.44,0 -0.57,0.01 -0.57,0.46zm0.08 3.28c0.2,0.28 0.43,0.16 1.06,0.16l4.47 0c0.56,-0 1.02,0.18 0.92,-0.93 -0.03,-0.37 -0.18,-0.36 -0.56,-0.37l-5.33 -0.01c-0.37,-0 -0.58,-0.03 -0.63,0.3 -0.04,0.24 -0.03,0.68 0.08,0.83zm0.06 -7.75c0.27,0.2 3.71,0.09 4.53,0.08 1.89,-0.01 1.85,0.19 1.85,-0.8 0,-0.59 -0.21,-0.5 -0.99,-0.5l-4.54 0c-0.35,-0 -0.84,-0.09 -0.96,0.18 -0.07,0.14 -0.05,0.37 -0.04,0.54 0.01,0.35 -0.04,0.33 0.15,0.5zm-0.09 2.61c0.42,0.18 5.76,0.09 5.84,0.09 0.42,0 0.59,0.02 0.63,-0.38 0.12,-1.21 -0.25,-0.9 -2.07,-0.91l-3.31 0c-0.55,0 -1.54,-0.29 -1.08,1.21zm-7.24 -3.79c-1.11,0.39 -2.59,0.86 -2.69,2.63 -0.17,2.77 3.21,3.05 4.25,3.81 1.49,1.09 0.05,3.14 -2.97,2.03 -0.36,-0.13 -0.59,-0.36 -0.98,-0.35 -0.18,0.23 -0.55,1.15 -0.5,1.55 1.06,0.77 2.63,0.63 2.83,0.83 0.17,0.21 0.05,0.87 0.16,1.13 0.3,0.1 0.8,0.09 1.11,-0 0.42,-1.01 -0.41,-1.14 0.55,-1.39 0.17,-0.04 0.32,-0.1 0.48,-0.17 2.46,-1.05 2.84,-3.93 0.22,-5.35 -1.25,-0.68 -3.2,-0.82 -3.04,-2.18 0.08,-0.72 0.91,-0.97 1.69,-0.97 0.41,0 0.79,0.06 1.17,0.17 0.39,0.12 0.59,0.33 1,0.29 0.18,-0.28 0.53,-1.1 0.49,-1.51 -0.74,-0.58 -1.98,-0.49 -2.43,-0.64 -0.11,-0.49 0.06,-0.72 -0.14,-1.16 -1.59,-0.49 -1.16,0.67 -1.21,1.27zm-7.15 10.98c0.68,0.45 2.09,1.78 2.57,2.01 0.11,-2.17 0.01,-4.64 0.01,-6.84 -0,-2.28 -0,-4.56 0,-6.84 0,-0.73 -0.18,-2.82 0.25,-3.14 0.35,-0.26 2.72,-0.14 3.36,-0.13l13.69 0.01c4.07,-0 3.59,-0.72 3.61,3.27 0.01,2.28 -0,4.56 0,6.84 0,2.21 -0.1,4.65 0.01,6.84 0.46,-0.23 1.88,-1.56 2.57,-2.02 0.1,-1.42 -0,-5.81 0.01,-7.63 0.01,-1.21 0.07,-6.87 -0.02,-7.63 -0.11,-1.04 -0.86,-1.81 -1.7,-2.12 -0.78,-0.28 -2.61,-0.17 -3.62,-0.16l-15.34 0.01c-0.99,0 -2.83,-0.12 -3.64,0.14 -2.37,0.76 -1.74,3.61 -1.76,5.88 -0.01,1.26 -0.01,2.56 0,3.82 0.03,2.49 -0.14,5.27 0.01,7.71zm-37.62 -13.02c-4.7,0.16 -10.02,2.71 -12.82,6.19 -4.92,6.12 -4.72,9.57 -4.66,17.56 0.01,1.97 0.57,3.24 1.5,4.45 2.07,2.68 5.15,2.4 9.32,2.4l34.01 0c-0.78,-1.65 -0.76,-3.48 -0.74,-5.57l0 -0.49 0 -10.95c-0.01,-1.66 0.1,-2.91 0.56,-4.17 0.57,-1.57 1.46,-2.7 2.94,-3.8l0.46 -0.34c0.64,-0.49 1.6,-1.23 2.57,-1.86l0 -0.03c0,-0.6 0,-1.19 0.01,-1.77 -0.91,-0.41 -1.88,-0.76 -2.93,-1.05 -1.77,-0.48 -6.05,-1.06 -7.83,-0.28 -9.98,4.36 -18.45,-0.28 -19.57,-0.33 -0.89,-0.04 -1.94,0 -2.82,0.04zm11.06 -39.29c-9.53,1.09 -16.28,9.58 -15.25,19.43 0.5,4.74 2.92,8.43 6.18,11.39 1.24,1.13 3.51,2.37 5.63,3.07 2.74,0.89 4.67,1.13 7.72,0.78 9.39,-1.09 16.28,-9.52 15.24,-19.4 -0.31,-2.96 -2.31,-7.95 -4.4,-9.66 -0.6,-0.49 -1.36,-1.47 -1.72,-1.74 -1.73,-1.29 -3.08,-2.22 -5.62,-3.09 -2.66,-0.91 -4.73,-1.13 -7.79,-0.78z"/>
  </g>
 </g>
</svg>
