<?xml version="1.0" encoding="UTF-8"?>
<!DOCTYPE svg PUBLIC "-//W3C//DTD SVG 1.1//EN" "http://www.w3.org/Graphics/SVG/1.1/DTD/svg11.dtd">
<!-- Creator: CorelDRAW X8 -->
<svg xmlns="http://www.w3.org/2000/svg" xml:space="preserve" width="19.4635mm" height="22.2551mm" version="1.1" style="shape-rendering:geometricPrecision; text-rendering:geometricPrecision; image-rendering:optimizeQuality; fill-rule:evenodd; clip-rule:evenodd"
viewBox="0 0 109 125"
 xmlns:xlink="http://www.w3.org/1999/xlink">
 <defs>
  <style type="text/css">
   <![CDATA[
    .fil0 {fill:white}
   ]]>
  </style>
 </defs>
 <g id="Camada_x0020_1">
  <metadata id="CorelCorpID_0Corel-Layer"/>
  <path class="fil0" d="M23 39l-19 0c-1,0 -3,0 -4,0l0 70c0,0 0,0 0,1 0,1 0,0 0,1l1 1c0,0 0,0 0,0 0,1 1,2 1,3 0,0 0,0 0,0l1 1c1,1 2,3 3,4 1,1 1,1 2,2 2,0 2,1 3,1 1,1 1,1 4,2 0,0 0,0 1,0 0,0 1,0 1,0 1,0 2,0 3,0l69 0c1,0 4,0 5,0 1,0 1,0 2,-1 0,0 1,0 1,0 1,-1 2,-1 2,-1 1,0 1,-1 1,-1 1,0 1,0 1,0 0,-1 1,-1 1,-1 1,-1 1,-1 1,-1 1,0 1,0 1,-1l0 0c1,0 1,-1 1,-1l2 -2c0,-1 0,-1 0,-1 1,0 0,0 0,-1l1 0c0,-1 0,0 0,-1 0,0 0,-2 1,-2l0 0c0,-1 0,-1 0,-2 0,0 0,0 0,-1 1,-1 0,-13 0,-15 0,-4 1,-53 0,-54 0,0 0,0 0,0 -4,0 -23,0 -23,0 0,0 0,-4 0,-4 0,-1 0,-6 0,-7 0,-1 0,0 0,-2l-1 -1c0,-1 0,0 0,-1 0,-1 0,-1 0,-1 0,-1 -1,-2 -1,-3l-3 -6 -1 -1c-1,-1 -1,-1 -1,-2l-2 -1c0,-1 -1,-2 -2,-2 -1,-1 0,-1 -1,-1 0,0 -1,-1 -1,-2l-1 0c0,0 0,0 0,0 0,0 0,0 0,0 -1,0 -1,0 -1,0 0,0 0,0 0,0l-1 -1c-1,0 -1,-1 -2,-1 0,0 -4,-1 -5,-2l-1 0c-1,0 -2,0 -2,-1l-1 0c-1,0 -7,0 -8,0 -1,1 -2,0 -3,1 -1,0 -2,0 -3,0l-3 1c0,1 0,1 0,1l-2 0c0,1 -1,1 -2,2 0,0 -1,0 -1,1l-1 0c0,0 0,0 0,0 0,1 -1,1 -1,1 0,0 0,0 0,0l-2 1c0,1 -1,2 -1,2 0,0 0,0 0,0l0 0c-1,1 -3,3 -3,4l-4 7c0,0 0,0 0,0l-1 4c0,0 0,0 0,0 0,1 0,1 0,2 0,1 0,1 0,2 -1,0 -1,1 -1,2 0,1 0,5 0,6 0,2 1,2 0,2zm16 -11c1,0 0,0 0,1 0,1 0,9 0,10 1,0 6,0 8,0l8 0c3,0 14,0 15,0 0,-1 0,-10 0,-10 0,-1 0,-1 0,-1 -1,-1 0,-1 -1,-2 0,0 0,0 0,0 0,-1 0,0 0,-1 0,0 0,0 0,0l-1 -1c0,0 0,0 0,0 0,-1 0,-1 -2,-3 -1,-1 0,0 0,-1 -1,0 -1,0 -1,0 0,0 -1,-1 -2,-2l-2 -1c-1,0 0,0 -1,0 -1,0 -2,-1 -3,-1 0,0 0,0 -1,0 -1,0 -1,0 -2,0 -1,0 -2,0 -3,0 -1,1 -2,1 -3,1 -1,1 -2,1 -2,2 0,0 0,0 -1,0 0,0 0,0 -1,1l0 0c-1,1 0,1 -1,1 0,0 0,1 -1,1l0 1c0,0 0,0 -1,0 0,1 -1,3 -1,4l-1 1zm-8 21c-1,0 -1,0 -1,0 -1,0 -1,0 -1,0l-1 1c-1,0 0,0 -1,1 0,0 -1,1 -1,1 0,1 0,0 0,1 0,0 0,0 0,1 -1,1 -1,2 0,3 1,1 2,3 3,3l1 0 2 0c1,0 0,0 1,0 0,0 0,0 1,0l1 -1c0,0 0,0 0,0 1,-1 1,-1 1,-2 0,0 0,0 0,0 0,0 1,-1 1,-1 0,-1 0,-2 0,-3 -1,-1 -1,-2 -2,-2 0,-1 0,-1 0,-1l-2 -1c0,0 -1,0 -2,0zm46 0c0,0 0,0 0,0l-1 0c0,1 0,0 0,1 -1,0 -1,0 -1,0 0,0 -1,1 -1,1 -1,0 -1,0 -1,0l0 1c0,0 0,1 0,1 -1,1 -1,1 -1,3 0,0 1,2 2,2l0 0c0,1 0,1 0,1 0,0 1,1 1,1 1,0 1,0 1,0 2,1 3,1 4,0 2,0 3,-1 3,-2 1,-1 1,-1 1,-1 0,-1 0,-2 0,-3 0,-2 -1,-3 -2,-4 0,0 -1,0 -1,0l-1 -1c0,0 0,0 0,0 -1,0 -2,0 -3,0z"/>
 </g>
</svg>
