<?xml version="1.0" encoding="UTF-8"?>
<!DOCTYPE svg PUBLIC "-//W3C//DTD SVG 1.1//EN" "http://www.w3.org/Graphics/SVG/1.1/DTD/svg11.dtd">
<!-- Creator: CorelDRAW X8 -->
<svg xmlns="http://www.w3.org/2000/svg" xml:space="preserve" width="35.8148mm" height="35.8419mm" version="1.1" style="shape-rendering:geometricPrecision; text-rendering:geometricPrecision; image-rendering:optimizeQuality; fill-rule:evenodd; clip-rule:evenodd"
viewBox="0 0 239 239"
 xmlns:xlink="http://www.w3.org/1999/xlink">
 <defs>
  <style type="text/css">
   <![CDATA[
    .fil0 {fill:#16AABF}
   ]]>
  </style>
 </defs>
 <g id="Camada_x0020_1">
  <metadata id="CorelCorpID_0Corel-Layer"/>
  <path class="fil0" d="M239 119l0 0c0,-1 0,-5 0,-6 -1,-2 0,-4 -1,-6 0,-1 0,-1 0,-3 0,-1 0,-3 -1,-5l0 -1c0,-1 0,-2 0,-2 0,-2 -1,-3 -1,-3 0,-1 0,-1 -1,-2 0,-1 0,-2 0,-2 -1,-1 0,-1 -1,-2 0,-1 -1,-6 -2,-7 0,-2 -1,-3 -1,-5 -1,-1 -1,0 -1,-1l-2 -4c0,0 0,0 0,0 0,-1 -1,-2 -1,-4l-2 -3c0,0 0,0 0,0l-3 -5c0,0 0,0 0,-1l-2 -2c0,0 0,0 0,-1 -1,-1 -2,-2 -3,-3 0,-1 0,-1 0,-1l-2 -2c-1,-1 -2,-3 -3,-4l-1 -1c-1,-1 -1,-1 -1,-1 0,-1 0,-1 0,-1 0,0 -1,0 -1,0 0,-1 -1,-1 -1,-2 0,0 0,0 -1,-1l-1 -1c0,0 0,0 0,0 -2,-2 -4,-4 -6,-6l-5 -4c-1,-1 -1,-1 -2,-2 -1,0 -1,0 -2,-1 0,0 0,0 -1,-1 0,0 0,0 -1,0l-1 -2c-1,0 -2,-1 -2,-1l-4 -2c-2,-2 -4,-3 -6,-4 -1,-1 -3,-1 -4,-2 0,0 0,0 0,0 0,0 0,0 -1,0 -1,-1 -3,-2 -5,-3 -1,0 -4,-1 -6,-2l-1 0c-1,0 -1,0 -1,-1 -2,0 -3,-1 -5,-1 -1,0 -1,0 -1,-1 -1,0 -1,0 -2,0 0,-1 0,0 -2,0 -1,-1 -6,-2 -7,-2 -2,0 -1,0 -3,0 0,-1 -1,0 -2,-1l-5 0c-5,-1 -13,-1 -17,-1 -1,0 -1,0 -3,0 -3,0 -3,1 -5,1 -2,0 -4,0 -6,0 -1,1 -1,1 -3,1 -1,0 -1,0 -1,0 -1,1 -2,1 -3,1 -1,0 -6,1 -7,2 -1,0 -1,0 -1,0 0,1 0,0 -1,1 -1,0 -2,0 -3,1 -1,0 0,0 -2,0 -1,0 0,0 -1,0 -1,1 -2,1 -3,2 0,0 0,0 -1,0 0,0 0,0 -1,0l-2 1c0,1 -1,0 -1,1l-3 1c-1,1 -3,2 -4,2l-6 3c0,1 -1,1 -2,2 0,0 0,0 0,0 0,0 0,0 0,0 -2,1 -4,3 -6,4l-1 1c-2,2 -4,3 -6,4 -1,1 -2,3 -3,3l-4 4c0,0 0,0 0,0l0 0c0,0 0,0 0,0 0,0 0,0 0,0l-1 2c-1,0 -1,0 -1,0l-2 2c-1,2 -1,2 -3,4l0 0c-1,1 0,1 -1,1l-1 1c0,0 -1,1 -1,2 -1,1 -2,3 -3,4 0,0 -1,0 -1,1l-8 12c0,1 0,2 -1,2l-2 6c-1,2 -2,3 -2,5 0,0 0,0 0,1l-1 2c0,0 0,1 -1,1 0,1 -1,3 -1,5 0,0 0,0 0,1 0,0 -1,0 -1,1 0,0 0,0 0,1 0,1 0,3 -1,4 0,0 0,0 0,0 0,1 0,1 0,2 -1,0 -1,0 -1,1 0,0 0,1 0,1 0,1 0,2 0,3l-1 5c-1,9 -1,19 0,28 0,1 0,1 0,2 0,2 1,4 1,5 0,1 0,2 0,3 0,2 1,3 1,5 1,1 2,7 3,9 0,1 1,3 1,4 1,1 1,2 1,2l2 5c0,1 0,1 1,2l6 11c0,1 1,1 1,2 0,0 1,0 1,1 1,3 5,7 7,10 0,0 0,0 0,0 0,0 0,0 0,0l5 6c1,2 3,3 4,4 1,1 1,1 2,2 1,0 1,0 1,0 0,1 1,2 2,2 1,1 2,2 2,3l1 1c1,0 2,1 2,1l0 1c1,0 1,0 1,0l2 1c2,1 2,2 4,3l1 1c3,2 5,3 7,4 1,1 1,1 2,1l2 1c0,0 1,1 1,1l0 0c0,0 0,0 1,0 1,1 2,2 4,2 0,0 1,0 1,1l2 0c1,1 1,1 1,1l1 0c0,0 0,0 0,0l3 2c1,0 2,0 2,0l2 1c1,1 4,1 5,2 0,0 1,0 1,0 1,0 1,0 1,0 1,1 2,1 3,1 1,0 3,0 5,1l5 1c1,0 1,0 2,0 1,0 2,0 3,0 2,1 8,1 11,1l11 0c2,0 9,-1 11,-2 1,0 1,0 2,0 1,0 0,0 1,0 1,-1 2,0 3,-1 0,0 0,0 1,0 0,0 0,0 1,0 0,0 1,0 1,-1l10 -3c1,0 1,0 1,0l4 -1c1,-1 2,-1 4,-2 0,0 0,0 0,0l3 -1c2,-1 2,-2 3,-2l1 -1c1,0 1,0 1,0 0,0 0,0 0,0l11 -7 17 -13c0,-1 1,-2 2,-3 1,-1 1,-2 2,-2 0,0 0,-1 0,-1l3 -3c0,0 0,0 0,0l1 -2c1,0 2,-1 3,-2l1 -2c0,0 0,0 0,-1 1,0 1,0 1,0 1,-1 1,-1 1,-2 1,-1 1,-2 2,-2 1,-2 2,-5 4,-7l2 -4c0,0 0,-1 0,-1l4 -7c0,0 0,-1 0,-2 1,-1 2,-2 2,-3 0,-1 0,-1 0,-2 0,0 0,-1 0,-1 1,0 1,0 1,-1 0,-1 0,0 0,-1 0,-1 0,0 0,-1 1,-1 1,0 1,-1 0,-1 0,-1 0,-1 0,-1 0,-1 0,-1 1,-1 0,-1 1,-2 0,-1 0,-1 0,-2 1,-1 1,-2 1,-3 0,-1 0,-1 1,-1 0,-1 0,-2 0,-3 0,-1 0,-1 0,-3 0,0 1,-1 1,-2 0,-1 0,-2 0,-3 0,-1 0,-1 0,-2 0,-2 1,-4 1,-6 0,-2 0,-4 0,-6zm-167 -5c-1,0 0,0 -1,0 0,0 0,0 0,0l-1 -1c-3,-2 -6,-1 -7,1 -1,0 -1,0 -1,0 -1,1 -2,3 -3,3 0,1 0,1 -1,2l-3 2c-1,2 -4,4 -5,7 0,4 4,5 5,8 1,0 1,1 2,1l1 2c0,0 0,0 0,0 1,0 1,0 1,0l1 1c0,1 0,1 0,1l9 8c1,2 2,3 3,4 1,1 1,1 2,2l7 7c0,0 0,0 0,0 0,0 0,0 0,0l1 0c0,1 0,1 0,1l2 2c0,0 0,0 0,0l1 1c0,0 1,0 1,1 2,2 5,4 7,6l3 4c1,0 2,1 3,1l2 0 2 -1c0,0 0,0 0,0l1 -1c1,0 4,-3 4,-4l4 -3c0,0 0,0 0,0l4 -5c1,0 1,-1 2,-1 0,-1 1,-1 1,-2l6 -5c0,0 0,-1 1,-1l3 -3c0,-1 0,-1 0,-1 2,-1 3,-3 5,-4 0,-1 0,-1 0,-1l2 -2c1,0 1,0 1,-1l5 -4c0,0 0,0 0,0 2,-2 5,-5 7,-7 0,0 0,0 0,0 0,0 0,0 0,0l10 -10c0,0 0,0 0,0 0,0 0,0 0,0 0,0 0,0 0,0l1 -1c0,0 0,0 0,0 1,-1 5,-5 6,-6l10 -10c1,-1 1,-1 2,-2 1,-1 2,-2 3,-3l7 -6c0,-1 0,-1 0,-2 1,0 1,-1 1,-2 0,-3 -2,-4 -4,-6l-8 -8c0,-1 0,-1 -1,-2 -1,0 -1,0 -1,0 -3,-2 -6,0 -8,1 0,1 -1,2 -1,2 -1,1 -1,1 -2,2l-3 3c0,0 0,0 0,0 0,0 0,0 0,0l-8 7c0,1 0,1 0,1 -3,3 -6,6 -9,9 0,0 0,0 -1,0l-5 6c-1,0 -1,1 -2,1l-3 4c-1,0 -1,1 -2,1l-5 6c0,0 -1,0 -1,0 0,1 0,1 -1,1l-20 21c-1,1 -3,3 -4,3 -1,0 -4,-4 -6,-5l-1 -2c-1,0 -1,-1 -2,-1l-2 -2c-1,-2 -2,-3 -3,-4 -1,0 -1,0 -1,-1l0 0c-1,-1 -2,-1 -2,-2l-11 -11zm-49 6c0,2 0,9 1,11 0,1 0,2 0,3 0,1 1,1 1,2 0,1 0,1 0,2 0,0 0,1 0,2 1,1 1,1 1,1 0,1 0,3 1,4l3 11c1,0 0,0 1,1 1,2 1,4 3,7 0,0 0,0 0,0l3 5c0,1 0,1 0,1l2 3c1,2 3,4 4,5 1,1 1,1 1,2 2,2 3,3 5,5l2 2c0,0 0,1 1,1l12 10c0,1 0,1 1,1l3 2c2,1 9,5 10,6 1,0 3,1 4,1l5 2c0,0 0,0 1,0 0,1 0,1 1,1 0,0 3,1 4,1 2,1 1,1 3,1 1,0 0,0 1,0l9 2c2,1 12,1 14,1 2,0 7,0 9,-1 1,0 0,0 1,0 0,0 1,0 1,0 1,0 2,0 3,0l5 -1c1,0 1,0 3,-1l3 -1c1,0 1,0 2,0 1,0 2,-1 4,-1 1,-1 1,-1 2,-1 1,0 1,0 1,0l3 -1c0,0 0,0 0,-1 0,0 0,0 1,0 0,0 1,-1 2,-1 1,0 4,-2 6,-3l6 -4c0,0 0,0 0,0 1,0 1,0 1,0l7 -6c1,-1 4,-2 5,-4l2 -1c0,0 0,-1 0,-1l4 -4c1,-1 1,-1 1,-1 0,-1 1,-1 1,-1l0 -1c2,-1 2,-1 3,-3 0,0 0,0 0,0l2 -3c1,-1 2,-2 2,-3 1,-2 3,-4 5,-7 1,-3 2,-6 3,-8 1,-1 1,-1 1,-2l2 -6c0,-1 0,-1 1,-1 0,-3 1,-4 1,-6 0,-1 1,-1 1,-2 0,-1 0,-1 0,-2 0,0 0,-1 0,-1 0,-1 0,-1 1,-1 0,-1 0,-2 0,-3 0,-1 0,-2 0,-3l1 -5c0,-3 0,-10 0,-12l-2 -13c0,-1 0,-1 0,-1 -1,-2 -1,-2 -1,-3l0 -2c-1,-1 -1,-1 -1,-2 0,0 0,0 0,-1 0,0 0,0 -1,-1 0,-1 0,0 0,-1 0,-1 0,-1 0,-1 0,-1 -1,-1 -1,-1l-3 -9c-1,0 -1,0 -1,-1 0,-1 -1,-3 -2,-4 0,0 -1,-1 -1,-2l-1 -2c0,0 0,0 -1,0 0,-1 0,-1 0,-1l-6 -9c-1,-1 -1,-1 -2,-2l-2 -2c-1,-1 -5,-5 -6,-6 0,-1 0,-1 0,-1 0,0 0,0 -1,0 0,0 -1,-1 -2,-2l-5 -4c0,0 -1,0 -1,-1 -1,0 -3,-2 -4,-3 -1,0 -1,0 -2,0 0,-1 -1,-1 -1,-1 -1,-1 -1,-1 -1,-1 -2,-1 -3,-2 -5,-2l-1 -1c-1,0 -2,-1 -2,-1 -1,0 -1,0 -1,0 -1,-1 -1,-1 -1,-1 -1,0 0,0 -1,0l-1 -1c-1,0 -2,0 -3,-1 -1,0 -2,0 -3,-1l-1 0c-1,0 -1,-1 -1,-1l-7 -2c-3,-1 -9,-1 -11,-1 -1,-1 -2,0 -4,-1 0,0 0,0 -1,0 -2,0 -10,0 -12,0l-13 2c-1,0 -2,0 -2,0l-2 1c0,0 0,0 -2,0 -1,0 0,0 -1,1 -1,0 -3,1 -5,1l-9 4c-1,0 -2,1 -3,2 -1,0 -1,0 -1,0 -1,1 -2,1 -3,2l-2 1c-1,0 -1,0 -2,1 -1,0 -1,1 -2,1 0,0 0,0 -1,1 -3,2 -5,4 -8,6 -1,1 -1,1 -1,1 0,1 -1,1 -2,1 0,1 -1,1 -1,2l-4 4c-3,3 -6,6 -7,9 -1,1 -3,3 -3,4 -1,1 -2,2 -2,3 -1,1 -1,1 -1,2 -1,1 -1,1 -2,2 0,0 0,1 -1,2 0,1 -1,1 -1,2l-2 5c0,0 0,0 0,1 0,0 -1,1 -1,1 0,2 -1,5 -2,7l0 1c-1,1 -2,6 -2,7 0,2 -1,7 -1,8 -1,2 0,5 -1,7 0,0 0,4 0,5z"/>
 </g>
</svg>
