<?xml version="1.0" encoding="UTF-8"?>
<!DOCTYPE svg PUBLIC "-//W3C//DTD SVG 1.1//EN" "http://www.w3.org/Graphics/SVG/1.1/DTD/svg11.dtd">
<!-- Creator: CorelDRAW X8 -->
<svg xmlns="http://www.w3.org/2000/svg" xml:space="preserve" width="35.8122mm" height="35.7829mm" version="1.1" style="shape-rendering:geometricPrecision; text-rendering:geometricPrecision; image-rendering:optimizeQuality; fill-rule:evenodd; clip-rule:evenodd"
viewBox="0 0 287 287"
 xmlns:xlink="http://www.w3.org/1999/xlink">
 <defs>
  <style type="text/css">
   <![CDATA[
    .fil0 {fill:#17A2B8}
   ]]>
  </style>
 </defs>
 <g id="Camada_x0020_1">
  <metadata id="CorelCorpID_0Corel-Layer"/>
  <path class="fil0" d="M0 144c0,3 0,6 0,9 0,1 1,5 1,6 0,1 0,1 0,2 0,1 0,1 0,2 0,1 1,1 1,2 0,1 0,2 0,4 1,1 1,2 1,4 0,0 0,1 0,1 1,1 1,1 1,1 0,1 0,2 0,3 1,1 1,4 2,5 0,1 0,2 1,3l1 4c1,3 4,12 5,14l1 2c1,1 1,2 2,3 0,1 0,2 1,3l4 7c0,0 0,0 0,1 0,0 0,0 1,0l0 1c0,0 0,0 0,0 1,1 0,-1 1,1l0 0c0,0 1,1 1,1l3 6c1,0 1,0 1,1l12 13 4 4c1,1 1,1 2,1l0 1c2,2 5,5 6,6 1,0 1,0 2,1 1,1 3,3 5,4 2,1 4,3 6,4l3 2c1,0 1,1 2,1 1,1 4,3 5,3 2,1 4,2 6,3 1,1 2,1 3,2l8 3c1,0 2,1 3,1 1,0 1,0 1,0l3 1c1,1 2,1 3,1l4 1c1,1 1,0 2,1 0,0 0,0 0,0l0 0c1,0 2,0 3,1l4 0c0,0 1,0 2,0 1,1 0,1 2,1 1,0 1,0 2,1l1 0c2,0 3,0 4,0 2,1 3,1 4,1 2,0 3,0 4,0 3,0 7,0 9,0 3,0 9,0 11,0l11 -1c2,0 1,-1 3,-1 3,0 9,-1 12,-2l3 -1c1,0 1,0 2,-1 0,0 1,0 2,0 1,0 0,0 1,-1l4 -1c1,0 2,0 3,-1 1,0 0,0 1,0l2 -1c1,0 2,0 2,-1 1,0 1,0 1,0 0,0 0,0 1,0l1 -1c1,-1 2,-1 3,-2l9 -4c2,-2 4,-2 6,-4l7 -5c0,0 0,0 0,0l1 -1c1,0 1,-1 2,-1 1,0 1,-1 1,-1 0,0 1,0 1,-1 0,0 0,0 1,0 1,-1 3,-3 4,-4 1,-1 1,-1 2,-1 0,0 0,-1 0,-1l3 -3c3,-2 8,-8 11,-11l5 -6c0,-1 1,-1 1,-2 2,-2 4,-5 5,-8 0,0 1,0 1,0l1 -3c0,0 0,0 1,-1 0,-1 1,-1 1,-2l5 -10c0,0 1,-1 1,-1 3,-6 5,-14 7,-20l2 -7c0,-1 0,-1 0,-2 1,-1 1,-1 1,-2 0,-1 1,-5 1,-8 0,-3 1,-5 1,-8 0,-2 0,-3 0,-4 1,-6 0,-16 0,-22 0,-1 0,-1 0,-2l-1 -6c-1,-1 -1,-2 -1,-4l0 -3c-2,-4 -3,-11 -4,-15l-2 -3c0,-1 0,-2 0,-2 -1,-3 -3,-6 -4,-9 -1,-2 -1,-3 -2,-5 -1,0 -1,-2 -2,-3 0,0 0,-1 0,-1 -1,-2 -2,-3 -2,-4l-6 -9c0,0 0,0 0,0l-2 -3c0,-1 -1,-1 -1,-2l-13 -15c0,0 0,0 0,0l-7 -6c-1,-2 -3,-3 -4,-5l-11 -8c-1,0 -1,0 -1,0l-1 -1c-1,0 -1,-1 -2,-1l-3 -2c0,0 -1,0 -1,-1l-3 -1c0,-1 0,-1 -1,-1 -1,0 -2,-1 -2,-1 -1,-1 -4,-3 -6,-3l-7 -3c-1,-1 -1,-1 -2,-1 -1,-1 -5,-2 -7,-2 -1,-1 -3,-2 -4,-2l-11 -3c-2,0 -1,0 -4,0 -1,-1 -1,-1 -2,-1 -2,0 -8,-1 -10,-1 -1,0 -1,0 -2,-1 -1,0 -3,0 -4,0 -6,0 -12,0 -17,0 -2,1 -3,0 -5,1 -2,0 -10,1 -12,1 -1,1 -2,1 -4,1l-5 1c-1,0 -1,0 -2,1 -1,0 0,0 -1,0l-4 1c-1,0 -1,0 -2,1 -2,0 -6,2 -8,3 0,0 -1,0 -2,0 -2,1 -5,2 -7,4l-5 2c-1,0 -2,1 -3,1 0,1 -1,1 -1,1l-4 3c-2,1 -3,1 -5,3 0,0 0,0 0,0 0,0 -1,0 -1,0 -1,1 -2,1 -3,2l-2 2c0,0 -1,1 -1,1l-5 4c-2,1 -10,8 -11,9l-3 4c0,0 0,0 0,0l-1 1c0,0 0,0 0,0l-9 11c-1,0 -1,1 -2,1 0,1 -1,3 -2,4l-1 1c-1,2 -3,5 -4,8 -1,0 0,0 -1,0l-1 2c0,0 0,0 0,0l-2 3c0,0 0,0 0,0l-1 3c0,1 0,1 0,1l-1 1c0,0 0,0 0,0 0,0 0,0 0,1 0,0 0,0 0,0l-1 2c-1,0 -1,0 -1,1 0,0 0,0 0,0 -1,3 -3,7 -4,10l-1 3c0,1 0,2 -1,2 0,1 0,1 0,2l-1 3c0,1 0,2 -1,2 0,2 -1,6 -1,7 0,2 -1,3 -1,4 0,1 0,2 0,2 0,1 0,2 0,2 -1,2 -1,3 -1,4 -1,2 0,6 -1,9 0,2 0,6 0,8zm129 74c0,-1 0,-1 1,-2 0,0 0,0 0,0l12 -12c0,0 1,0 1,0l13 -14c1,-1 9,-8 10,-9 1,-2 3,-2 4,-4 1,-1 3,-4 4,-4l1 0c0,-1 -1,0 0,-1 1,-1 2,-2 3,-3 0,0 0,0 0,0l1 -1c1,-1 1,-1 1,-1l1 -1c1,-1 2,-1 2,-2 2,-2 4,-4 6,-6l3 -3c1,-1 1,-2 2,-3 1,0 1,-1 2,-1 2,-3 5,-5 7,-7l9 -9c2,-2 4,-4 6,-6l3 -3c0,0 1,-1 1,-1l5 -5c1,-1 3,-3 4,-4l4 -4c1,-2 1,-1 1,-2 0,-3 1,-3 0,-6 -1,-3 -2,-3 -3,-5 -1,-1 -1,-1 -2,-1l-5 -6c0,0 0,0 -1,0 0,-1 0,-1 -1,-2l-4 -4 -2 -1c-2,-1 -4,-1 -6,-1 -1,1 -3,1 -4,2 -2,2 -4,4 -6,6l-8 8c0,0 0,0 0,0 0,0 0,0 0,0 0,0 0,1 0,1 -2,1 -5,4 -6,6 -2,1 -6,6 -8,8 -1,1 -2,2 -4,3 -1,1 -2,2 -3,3l-2 3c0,0 0,0 0,0 0,0 0,0 -1,0 -1,1 -1,2 -3,3 0,1 0,0 -1,1 -1,2 -2,3 -4,4 -1,1 -2,2 -3,4l-18 17c-1,2 -3,4 -5,5l-1 2c-1,0 -1,0 -1,0 -1,1 0,0 -1,1 0,0 0,0 0,0l-6 7c0,0 0,0 -1,0 0,0 0,0 0,0l-2 3c-1,1 -2,2 -4,3 -1,-1 -1,-2 -2,-3l-2 -2c-1,-1 -2,-2 -3,-3 -2,-1 -5,-4 -6,-6l-3 -3c-2,-2 -4,-4 -6,-6 -1,-1 -1,-1 -2,-2l-7 -7c0,0 0,0 0,0 -1,-1 -1,-1 -1,-1l-3 -3c-1,0 -2,-2 -2,-2l-2 -2c-1,-1 -2,-2 -3,-2 -1,-1 -3,-1 -4,-1 -3,0 -5,1 -7,2 0,0 0,0 -1,1 -3,4 -7,7 -11,11 -1,1 -1,1 -1,1 -1,1 -2,2 -2,3 -1,0 -1,2 -1,3 0,2 0,2 0,4 1,2 2,3 3,4l8 8c1,0 1,1 2,2l7 7c2,1 4,3 5,5l2 2c2,2 5,4 6,6l7 7c0,0 0,0 1,1l2 2c1,0 1,0 1,1 0,0 0,0 0,0 1,1 1,1 2,1l1 2c1,1 4,3 5,4l3 4c0,0 0,0 0,0l3 3c0,0 0,0 1,1l3 3c3,3 3,3 9,3 1,0 1,0 2,0 1,-1 1,-1 3,-2 0,0 1,-1 2,-2z"/>
 </g>
</svg>
