<?xml version="1.0" encoding="UTF-8"?>
<!DOCTYPE svg PUBLIC "-//W3C//DTD SVG 1.1//EN" "http://www.w3.org/Graphics/SVG/1.1/DTD/svg11.dtd">
<!-- Creator: CorelDRAW X8 -->
<svg xmlns="http://www.w3.org/2000/svg" xml:space="preserve" width="21.3398mm" height="22.255mm" version="1.1" style="shape-rendering:geometricPrecision; text-rendering:geometricPrecision; image-rendering:optimizeQuality; fill-rule:evenodd; clip-rule:evenodd"
viewBox="0 0 176 184"
 xmlns:xlink="http://www.w3.org/1999/xlink">
 <defs>
  <style type="text/css">
   <![CDATA[
    .fil0 {fill:white}
   ]]>
  </style>
 </defs>
 <g id="Camada_x0020_1">
  <metadata id="CorelCorpID_0Corel-Layer"/>
  <path class="fil0" d="M64 9l0 15c0,1 0,1 -1,1 -1,1 -1,1 -3,2 0,0 0,0 -1,0l-5 2c0,1 -1,1 -1,1l-3 2c-1,0 -2,1 -3,2 -1,0 -1,0 -1,1 -1,0 -1,0 -2,1l-2 1c-1,1 -1,0 -1,0 0,0 0,0 0,0l-9 -5c0,0 0,0 0,0l-2 -1c-1,-1 -2,-1 -3,-2 -1,0 -1,-1 -3,-1 -1,0 -2,0 -3,1 -1,1 -1,1 -3,3l-1 1c0,0 0,0 0,0 0,1 -1,1 -1,2l-1 1c-1,1 -1,1 -1,1 -1,1 -1,2 -2,3 0,0 0,0 0,1 -1,0 -1,0 -1,0 0,1 -1,2 -1,2l-4 8c-1,2 -2,4 -3,6 0,0 0,1 -1,2l-2 6c0,0 0,1 0,1 0,1 0,1 0,1 1,2 2,3 3,3l1 1c1,1 3,1 5,2l9 6c0,0 0,2 0,3 0,1 -1,1 -1,2 0,2 0,5 0,8 0,2 0,4 0,7 0,1 1,2 1,3 0,2 0,2 0,3l-2 1c0,0 0,0 -1,0 0,1 0,1 0,1 0,0 0,0 0,0l-8 4c0,0 0,0 -1,1 0,0 0,0 -1,0l-2 1c0,1 -1,1 -2,2 -1,1 -1,2 -1,3 0,1 0,1 0,1l1 4c1,1 1,2 2,3 0,0 0,0 0,1 1,2 1,3 2,5 1,0 1,1 1,1 0,0 0,0 0,0 0,0 0,0 0,0 0,1 1,2 1,3l7 10c0,1 1,2 2,3l2 2c0,0 0,1 0,1 1,1 2,2 3,3 1,0 2,1 3,1 2,0 4,-2 5,-2 0,-1 0,0 0,-1l1 0c0,0 1,0 1,-1l2 -1c1,0 2,-1 2,-1l6 -3c0,0 0,-1 1,-1 0,0 1,1 1,1 1,1 2,2 3,2l2 2c1,0 1,0 2,1l3 2c0,0 1,1 2,1 0,0 0,0 1,0l8 4 0 18c0,1 0,2 1,2 1,2 4,3 6,3 3,1 9,2 12,2 4,0 8,0 13,-1 0,0 1,0 1,0 3,0 2,0 5,0 1,0 1,-1 2,-1l3 0c1,0 2,-1 3,-1 0,-1 1,-1 1,-1 1,-1 1,-4 1,-5l0 -16c1,-1 1,-1 2,-1 1,0 0,0 1,0 1,-1 4,-2 5,-2 2,-1 4,-2 5,-3l1 -1c0,0 1,-1 1,-1 1,0 2,-1 3,-1l3 -3c1,-1 2,-1 4,0 1,1 2,2 3,2l3 2c0,0 1,0 1,1 1,0 3,1 4,2 0,0 1,0 1,0 1,1 2,2 4,2 2,0 4,-4 6,-5 0,-1 1,-2 1,-2 0,0 0,-1 1,-1 0,0 0,0 0,-1 1,-1 2,-2 2,-3 1,0 0,0 1,0 0,0 0,0 0,0 0,0 0,0 0,0l3 -5c1,-1 1,-3 2,-4l2 -4c1,-1 1,-2 2,-3 0,-1 0,0 0,0 0,0 0,0 0,-1 0,0 0,0 0,-1l1 -1c0,0 0,-1 0,-1 1,-1 1,-2 1,-3l1 -1c0,-1 0,0 0,-1 0,-3 0,-2 -1,-4 0,0 -1,-1 -1,-1 -2,-1 -5,-3 -7,-4l-5 -3c0,0 0,0 0,0 -1,0 -4,-2 -4,-2 0,-1 0,-3 1,-3 0,-1 0,-2 0,-3 0,-2 0,-12 0,-14 0,-1 0,-1 0,-1 0,-1 0,-2 0,-2 -1,-1 -1,-1 -1,-3l1 -1c1,0 2,-1 2,-1l10 -6c1,0 1,0 2,-1 0,0 0,0 1,0 0,0 0,-1 0,-1 1,0 1,-1 2,-1 0,-2 0,-3 0,-4 -1,-2 -2,-4 -2,-6 0,0 -1,-1 -1,-1l-1 -3c0,0 0,0 0,-1l-2 -2c0,-1 0,-2 -1,-2l0 0c0,-1 0,-1 0,-1l-1 -2c0,0 -1,-1 -2,-3 0,0 -1,-1 -1,-1 0,-1 0,-1 -1,-1 0,-1 -1,-2 -1,-3 -1,-1 -4,-4 -5,-5l0 -1c-1,-1 -1,-1 -2,-2 0,0 0,0 -1,-1l0 0c-1,-1 -3,-1 -5,0l-1 0c-1,1 -1,1 -2,2l-6 3c0,0 0,0 0,0 0,0 0,0 0,0 0,0 0,0 -1,0 0,0 0,1 -1,1l-3 2c-2,1 -1,1 -4,-1 -1,-1 -5,-3 -6,-4l-3 -2c0,0 0,0 0,0 -2,-1 -3,-2 -5,-3 0,0 0,0 -1,0l-2 -1c-1,0 -1,0 -2,-1 -2,-1 -1,0 -1,-5l0 -13c0,-2 -1,-3 -2,-4 -1,-1 -3,-1 -5,-1 -1,-1 -2,-1 -3,-1 -1,0 -1,0 -2,0l-5 -1c-5,0 -11,0 -16,0 -1,1 -2,1 -3,1 -1,0 -3,0 -4,0 -1,1 -4,1 -6,2 0,0 -1,2 -1,2 -1,1 -1,1 -1,2 0,1 0,1 0,2zm20 53c-1,1 -2,1 -3,1 0,0 0,0 -1,0 -1,1 -1,0 -1,1 -1,0 -2,0 -3,1 -2,1 -5,3 -7,4 -1,1 -1,1 -2,2 0,0 0,0 0,0l-2 2c0,0 -2,3 -3,4 0,1 0,1 0,1 -1,1 -1,1 -1,1l0 1c0,0 -1,2 -1,2 -1,2 -1,2 -1,2 0,1 0,0 0,1 0,1 0,2 0,3 -1,2 -1,3 -1,4 0,1 0,4 1,5 0,0 0,0 0,0l0 2c0,0 0,0 0,1 0,0 0,1 0,1 1,0 0,0 1,0l1 4c1,1 1,1 1,1 1,3 3,5 5,7 0,0 1,0 1,1 1,1 4,3 6,4 1,0 1,1 2,1 0,0 1,0 1,0 2,1 3,1 4,2 1,0 1,0 2,0 0,0 1,0 1,0 2,1 6,1 7,0l6 -1c1,0 2,-1 3,-1 0,0 1,0 1,-1 1,0 3,-1 4,-2l4 -3c1,0 0,0 1,-1l3 -4c1,-2 1,-2 2,-4l1 -3c0,0 0,0 0,-1 1,-2 1,0 1,-3 0,0 0,-1 0,-1 1,-2 1,-6 1,-8 -1,-2 -1,-4 -2,-7l-3 -5c0,0 0,-1 -1,-1 0,0 0,-1 0,-1 -2,-2 -2,-2 -4,-4 0,0 0,-1 -1,-1 0,0 -1,-1 -2,-1l-2 -1c0,-1 0,-1 0,-1l-1 0c-1,-1 -3,-2 -4,-2 -1,-1 -1,0 -2,-1 0,0 -1,0 -1,0l-3 -1c-2,0 -7,0 -8,0z"/>
 </g>
</svg>
