<?xml version="1.0" encoding="UTF-8"?>
<!DOCTYPE svg PUBLIC "-//W3C//DTD SVG 1.1//EN" "http://www.w3.org/Graphics/SVG/1.1/DTD/svg11.dtd">
<!-- Creator: CorelDRAW 2020 (64-Bit) -->
<svg xmlns="http://www.w3.org/2000/svg" xml:space="preserve" width="22.2546mm" height="22.2546mm" version="1.1" style="shape-rendering:geometricPrecision; text-rendering:geometricPrecision; image-rendering:optimizeQuality; fill-rule:evenodd; clip-rule:evenodd"
viewBox="0 0 110.52 110.52"
 xmlns:xlink="http://www.w3.org/1999/xlink"
 xmlns:xodm="http://www.corel.com/coreldraw/odm/2003">
 <defs>
  <style type="text/css">
   <![CDATA[
    .fil1 {fill:none}
    .fil0 {fill:#DC3545}
   ]]>
  </style>
 </defs>
 <g id="Layer_x0020_1">
  <metadata id="CorelCorpID_0Corel-Layer"/>
  <path class="fil0" d="M110.33 54.16l-6.46 4.65c-2.29,1.59 -4.3,3.18 -6.59,4.75 -2.26,1.55 -4.47,3.19 -6.61,4.73 -2.29,1.65 -4.36,3.1 -6.59,4.75l-13.19 9.5c-5.21,3.61 -8.62,7.35 -15.63,7.3 -6.49,-0.04 -10.7,-3.58 -15.52,-7.18 -12.65,-9.46 -26.65,-19.08 -39.57,-28.49 -0.33,2.22 -0.11,36.26 -0.09,41.46 0.01,2.2 -0.15,4.71 0.29,6.73 0.75,3.45 3.23,6.05 6.55,7.33 2.58,0.99 17.04,0.58 20.36,0.57l69.56 -0c10.91,-0.03 13.64,-3.61 13.57,-14.37 -0.04,-5.9 0.29,-39.11 -0.09,-41.73zm-89.65 6.19l0.1 -39.76 69.04 0 -0.01 39.74 20.57 -14.84c0.32,-4.51 -0.79,-7.38 -3.08,-9.71 -1.37,-1.39 -6.49,-4.54 -7.24,-5.92 -0.45,-1.76 1.41,-10.12 -1.58,-14.74 -0.46,-0.71 -2.06,-2.39 -2.7,-2.85 -2.6,-1.88 -5.38,-1.93 -9.02,-1.93 -3.7,0 -7.4,-0.03 -11.09,-0 -3.51,0.03 -2.96,-0.09 -7.27,-3.44 -11.06,-8.63 -14.54,-9.04 -25.45,-0.67 -6.23,4.78 -3.95,4.12 -12.65,4.13 -10.87,0.01 -19.87,-1.43 -19.86,12.71 0,1.86 0.03,3.71 0.04,5.56 0.01,1.88 -0.06,1.7 -2.31,3.31 -2.07,1.48 -4.51,3.26 -5.87,4.96 -1.7,2.12 -2.6,5.46 -2.11,8.74l20.49 14.72zm31.12 -25.86c-9.51,0.77 -12.3,12.45 -5.19,17.62 2.47,1.8 8.01,3 11.37,4 1.94,0.58 3.83,1.9 2.71,4.38 -0.99,2.21 -4.59,1.57 -7.71,1.57 -2.22,0 -3.83,-1.29 -4.87,-1.02 -0.91,0.24 -2.99,2.6 -3.3,3 -2.09,2.72 4.5,4.65 6.98,4.79 0.01,4.81 -0.8,5.26 4.47,5.26 3.24,0 2.47,-2.4 2.47,-5.2 3.77,-0.37 6.99,-2.27 8.42,-5.97 1.63,-4.22 0.13,-8.79 -2.28,-10.91 -4.52,-3.99 -14.11,-3.57 -15.17,-6.77 -1.32,-3.97 2.84,-3.91 4.8,-3.91 3,0 3.69,-0.24 6.35,0.85 1.91,0.79 3.32,-1.23 4.3,-2.17 1.84,-1.77 0.64,-3.05 -1.17,-4.01 -3.21,-1.7 -4.97,-0.89 -5.25,-1.85 -0.44,-1.5 1.54,-4.86 -2.72,-4.86 -4.97,0 -4.21,0.4 -4.21,5.21z"/>
  <rect class="fil1" width="110.52" height="110.52"/>
 </g>
</svg>
