<?xml version="1.0" encoding="UTF-8"?>
<!DOCTYPE svg PUBLIC "-//W3C//DTD SVG 1.1//EN" "http://www.w3.org/Graphics/SVG/1.1/DTD/svg11.dtd">
<!-- Creator: CorelDRAW 2020 (64-Bit) -->
<svg xmlns="http://www.w3.org/2000/svg" xml:space="preserve" width="22.2566mm" height="22.2545mm" version="1.1" style="shape-rendering:geometricPrecision; text-rendering:geometricPrecision; image-rendering:optimizeQuality; fill-rule:evenodd; clip-rule:evenodd"
viewBox="0 0 196.69 196.68"
 xmlns:xlink="http://www.w3.org/1999/xlink"
 xmlns:xodm="http://www.corel.com/coreldraw/odm/2003">
 <defs>
  <style type="text/css">
   <![CDATA[
    .fil1 {fill:none}
    .fil0 {fill:#6C757D}
   ]]>
  </style>
 </defs>
 <g id="Layer_x0020_1">
  <metadata id="CorelCorpID_0Corel-Layer"/>
  <g id="_1388479839808">
   <path class="fil0" d="M196.36 96.38l-11.5 8.27c-4.07,2.83 -7.65,5.66 -11.73,8.45 -4.02,2.76 -7.95,5.68 -11.76,8.42 -4.07,2.94 -7.76,5.52 -11.73,8.45l-23.47 16.91c-9.27,6.42 -15.34,13.08 -27.81,12.99 -11.55,-0.07 -19.04,-6.37 -27.62,-12.78 -22.51,-16.83 -47.42,-33.95 -70.42,-50.7 -0.59,3.95 -0.2,64.53 -0.16,73.78 0.02,3.92 -0.27,8.38 0.52,11.98 1.33,6.14 5.75,10.77 11.66,13.04 4.59,1.76 30.32,1.03 36.23,1.01l123.78 0c19.42,-0.05 24.27,-6.42 24.15,-25.57 -0.07,-10.5 0.52,-69.6 -0.16,-74.26l0.02 0zm-159.54 11.01l0.18 -70.75 122.86 0 -0.02 70.72 36.61 -26.41c0.57,-8.03 -1.41,-13.13 -5.48,-17.28 -2.44,-2.47 -11.55,-8.08 -12.88,-10.54 -0.8,-3.13 2.51,-18.01 -2.81,-26.23 -0.82,-1.26 -3.67,-4.25 -4.8,-5.07 -4.63,-3.35 -9.57,-3.43 -16.05,-3.43 -6.58,0 -13.17,-0.05 -19.74,0 -6.25,0.05 -5.27,-0.16 -12.94,-6.12 -19.68,-15.36 -25.87,-16.09 -45.29,-1.19 -11.09,8.51 -7.03,7.33 -22.51,7.35 -19.34,0.02 -35.36,-2.54 -35.34,22.62 0,3.31 0.05,6.6 0.07,9.89 0.02,3.35 -0.11,3.03 -4.11,5.89 -3.68,2.63 -8.03,5.8 -10.45,8.83 -3.03,3.77 -4.63,9.72 -3.76,15.55l36.46 26.19 0 -0.02zm55.38 -46.02c-16.92,1.37 -21.89,22.16 -9.24,31.36 4.4,3.2 14.25,5.34 20.23,7.12 3.45,1.03 6.82,3.38 4.82,7.79 -1.76,3.93 -8.17,2.79 -13.72,2.79 -3.95,0 -6.82,-2.3 -8.67,-1.82 -1.62,0.43 -5.32,4.63 -5.87,5.34 -3.72,4.84 8.01,8.27 12.42,8.52 0.02,8.56 -1.42,9.36 7.95,9.36 5.77,0 4.4,-4.27 4.4,-9.25 6.71,-0.66 12.44,-4.04 14.98,-10.62 2.9,-7.51 0.23,-15.64 -4.06,-19.41 -8.04,-7.1 -25.11,-6.35 -27,-12.05 -2.35,-7.06 5.05,-6.96 8.54,-6.96 5.34,0 6.57,-0.43 11.3,1.51 3.4,1.41 5.91,-2.19 7.65,-3.86 3.27,-3.15 1.14,-5.43 -2.08,-7.14 -5.71,-3.03 -8.84,-1.58 -9.34,-3.29 -0.78,-2.67 2.74,-8.65 -4.84,-8.65 -8.84,0 -7.49,0.71 -7.49,9.27l-0 -0.02z"/>
   <rect class="fil1" x="0.02" width="196.68" height="196.68"/>
  </g>
 </g>
</svg>
