<?xml version="1.0" encoding="UTF-8"?>
<!DOCTYPE svg PUBLIC "-//W3C//DTD SVG 1.1//EN" "http://www.w3.org/Graphics/SVG/1.1/DTD/svg11.dtd">
<!-- Creator: CorelDRAW X8 -->
<svg xmlns="http://www.w3.org/2000/svg" xml:space="preserve" width="105.966mm" height="106.278mm" version="1.1" style="shape-rendering:geometricPrecision; text-rendering:geometricPrecision; image-rendering:optimizeQuality; fill-rule:evenodd; clip-rule:evenodd"
viewBox="0 0 2228 2234"
 xmlns:xlink="http://www.w3.org/1999/xlink">
 <defs>
  <style type="text/css">
   <![CDATA[
    .fil0 {fill:white}
   ]]>
  </style>
 </defs>
 <g id="Camada_x0020_1">
  <metadata id="CorelCorpID_0Corel-Layer"/>
  <path class="fil0" d="M593 1018c9,3 32,28 38,34 1,0 1,1 1,1l26 23c9,7 0,5 10,14 5,5 8,8 13,13 14,14 14,13 -9,35l-61 61c-2,2 -1,1 -3,4l-260 259c-2,2 -4,4 -6,6l-14 13c-8,8 -17,17 -26,26l-18 19c-6,6 -2,4 -11,6l-4 5c-2,2 -3,3 -5,5l-29 30c-2,2 -2,1 -3,3 -2,1 -4,4 -5,5 -2,2 -4,4 -6,6l-26 28c-4,4 0,1 -5,5 0,0 0,1 -1,1 0,0 0,0 -1,1 0,0 0,0 -1,1l-26 24c0,0 -1,1 -1,2 -1,0 -3,2 -3,2 -3,4 -7,8 -11,11l-31 33c-2,2 -4,4 -6,5l-38 39c-14,13 -43,42 -48,59l-6 16c-2,5 -1,4 -3,8 -3,6 1,-1 -2,3 -3,5 -3,14 -6,21 -4,8 -4,4 -4,18l0 64 8 37 16 28c4,7 2,9 6,14 3,4 7,9 10,12l61 63c19,16 39,39 56,53l34 36c8,8 15,11 21,16l2 2c22,21 7,7 27,18l16 8c8,4 4,4 16,6 9,1 7,3 15,5 10,3 28,2 40,4 14,2 22,-2 38,-2 19,-1 23,-3 38,-8l43 -21 59 -53c0,-1 1,-1 1,-1l45 -45c2,-1 4,-3 6,-5 23,-24 72,-69 87,-87 4,-5 6,-6 11,-10l61 -57c5,-7 5,-11 14,-18 4,-3 7,-7 11,-11l44 -43c1,-2 3,-4 5,-6l5 -4c0,0 1,-1 1,-1l10 -11c0,0 3,-2 3,-3l104 -104c12,-10 21,-23 34,-34 4,-3 7,-5 10,-10 18,-23 45,-45 65,-66 7,-7 14,-14 22,-21l21 -22c5,-4 7,-7 11,-10 2,-3 4,-4 6,-6 6,-4 10,-10 15,-16 1,-1 3,-2 3,-3 16,-16 14,-1 38,18l23 24c3,3 1,1 4,5 1,0 5,4 6,5l62 62c0,0 0,0 0,0l37 38c5,4 8,10 13,14 6,5 12,8 17,14 3,3 2,3 4,5l25 25c4,4 7,7 10,10 3,3 2,2 5,4 15,13 33,39 49,49 8,5 12,13 20,20 12,12 22,24 35,36 18,15 32,34 49,49l20 20c4,6 1,2 4,5l83 82c0,0 0,0 1,1l22 21c12,15 31,28 44,44 3,4 1,2 4,6 0,0 1,1 1,1l24 23c3,3 3,3 5,5 0,0 0,1 1,1l2 1c0,1 0,1 1,1l6 6c4,3 8,6 11,10l40 40c11,10 26,12 39,20 7,4 8,2 15,5 8,2 4,5 13,6 40,6 37,12 86,3 26,-5 65,-17 84,-36 4,-4 7,-5 11,-9l35 -33c0,0 4,-4 5,-5l15 -14c3,-2 3,-3 6,-5l64 -65c3,-3 2,-2 5,-5l14 -15c14,-15 31,-29 41,-48 5,-10 8,-17 14,-26 5,-9 3,-20 8,-31 4,-10 3,-23 3,-36 0,-11 2,-48 -1,-58 -1,-2 -2,-3 -4,-6 -2,-4 -2,-4 -3,-8 -2,-5 0,-2 -3,-6l-18 -32c-4,-7 1,-6 -6,-14l-115 -121 -6 -1c-4,-7 -2,-3 -7,-9 -2,-1 -2,-1 -4,-3l-55 -56c-3,-3 -4,-5 -8,-8l-85 -84c-27,-27 -62,-65 -88,-89l-23 -23c-1,0 -1,-1 -1,-1l-60 -58c-15,-19 -14,-13 -19,-20l-16 -17c0,0 -1,0 -1,-1l-36 -37c-22,-21 -43,-43 -65,-65l-66 -67c1,-7 2,-8 6,-13 5,-5 5,-7 13,-8 3,-6 11,-12 16,-17l2 -1c0,-1 1,-1 1,-1l5 -4c0,-1 0,-1 0,-1l44 -45c15,-17 33,-31 48,-48 19,-22 43,-41 63,-62 5,-5 9,-10 14,-15 9,-12 18,-19 28,-29 17,-18 50,-47 62,-62 14,-19 33,-32 49,-49 5,-5 9,-8 13,-14l127 -125c22,-24 48,-44 69,-69 5,-5 1,-2 7,-8l35 -34c6,-5 8,-8 14,-13 20,-19 37,-38 50,-63 8,-14 13,-24 16,-40 2,-11 6,-7 7,-21 1,-17 3,-65 -2,-80l-7 -22c-3,-9 -11,-18 -14,-27 -2,-4 -2,-7 -4,-11 -3,-7 -7,-9 -12,-14 -5,-4 -3,-3 -6,-8l-12 -16c-3,-3 -4,-4 -7,-7l-22 -20c-4,-4 -2,-3 -6,-8l-15 -13c-10,-10 -18,-19 -28,-29l-69 -69c-6,-5 -11,-8 -16,-13 -7,-9 -41,-26 -53,-29 -35,-8 -13,-11 -74,-9 -44,1 -31,4 -69,15 -11,3 -11,4 -19,10 -7,5 -10,3 -17,9 -11,11 -26,22 -36,34l-36 33c-8,10 -18,23 -26,30 -4,3 -3,1 -7,6l-49 50c-2,2 -4,3 -6,6l-51 49c-17,21 -37,36 -55,56l-110 111c-6,6 -9,9 -14,14 -19,18 -37,38 -57,56 -5,4 -9,9 -14,14l-71 69c-4,5 -9,10 -13,15 -11,12 -36,39 -49,48 -5,4 -21,22 -33,32l-2 2c-35,34 -25,39 -65,-1 -9,-9 -18,-20 -28,-27 -10,-7 -30,-29 -42,-40l-4 -3c-7,-6 -23,-27 -34,-37l-51 -49c0,-1 -1,-2 -2,-2 -8,-7 -12,-16 -21,-24 -2,-2 -3,-3 -6,-6l-61 -59c-4,-5 -8,-9 -13,-14l-53 -52c-5,-5 -8,-9 -13,-14l-41 -40c-5,-5 -8,-8 -13,-14 -5,-7 -9,-7 -14,-12 -10,-11 -20,-24 -31,-33l-49 -47c-3,-2 -4,-4 -6,-6l-11 -9c0,-1 0,-1 -1,-1l-6 -6c-2,-2 -1,-1 -3,-4 -2,-3 0,-1 -2,-4l-11 -8c-8,-10 -16,-20 -26,-29l-33 -32c-11,-13 -49,-51 -63,-57l-18 -9c-22,-11 -28,-10 -39,-15 -12,-5 -3,-5 -21,-5 -18,0 -35,0 -54,0 -10,0 -15,2 -21,5 -17,9 -30,8 -56,23l-123 118c-2,2 0,0 -2,3l-75 79 -23 44c-2,4 -1,7 -2,12 -5,21 -7,0 -8,46 0,11 -1,43 1,52 2,7 5,6 7,19 3,17 13,31 21,45 6,9 10,19 17,25l27 29c0,0 0,0 1,1 0,0 0,0 1,0 1,2 2,2 3,4 3,2 5,4 8,7 2,2 3,4 6,6l13 14c10,13 10,10 17,17l13 14c4,3 0,0 4,3l2 1c11,9 20,20 29,30 1,1 2,2 2,2l9 9c7,8 2,5 11,10 7,5 7,10 13,14 17,9 24,25 38,38l8 8c5,6 10,7 15,14 4,8 0,2 5,8 1,1 1,1 1,1l2 2c9,10 -8,-4 3,3 0,0 2,1 4,2 0,0 4,3 4,3 5,4 9,8 14,13 9,10 18,18 27,27 15,12 26,28 40,40 6,5 9,8 14,13l73 72c1,0 2,2 2,2l2 2c2,1 3,2 4,3l19 21c0,0 0,0 1,0l42 42c23,24 49,47 70,71z"/>
 </g>
</svg>
