<?xml version="1.0" encoding="UTF-8"?>
<!DOCTYPE svg PUBLIC "-//W3C//DTD SVG 1.1//EN" "http://www.w3.org/Graphics/SVG/1.1/DTD/svg11.dtd">
<!-- Creator: CorelDRAW X8 -->
<svg xmlns="http://www.w3.org/2000/svg" xml:space="preserve" width="22.8037mm" height="22.7848mm" version="1.1" style="shape-rendering:geometricPrecision; text-rendering:geometricPrecision; image-rendering:optimizeQuality; fill-rule:evenodd; clip-rule:evenodd"
viewBox="0 0 129 129"
 xmlns:xlink="http://www.w3.org/1999/xlink">
 <defs>
  <style type="text/css">
   <![CDATA[
    .fil0 {fill:#6C757D}
   ]]>
  </style>
 </defs>
 <g id="Camada_x0020_1">
  <metadata id="CorelCorpID_0Corel-Layer"/>
  <path class="fil0" d="M0 6c0,1 0,1 1,3 0,1 1,1 2,2l7 7c0,0 0,1 0,1 1,1 2,2 3,3l6 5c0,0 0,0 0,0 0,1 0,0 0,1l3 3c1,1 2,2 3,3 0,0 0,0 1,0l2 3c1,0 1,0 1,1l15 15c1,0 1,0 1,1l3 2c0,1 0,1 0,1 0,0 0,0 0,0l1 52c0,1 0,3 1,4 0,0 1,1 1,1 0,0 1,1 1,1 1,0 1,1 2,1 0,0 0,0 1,1l6 4c0,0 0,0 0,0l1 1c1,0 1,0 1,0l3 2c0,1 0,0 0,1 0,0 1,0 1,0l3 2c0,1 3,2 3,2 1,0 3,0 4,0 0,0 0,0 0,0 0,0 0,0 0,0l2 -1c0,0 0,0 0,0l1 -2c1,-1 1,-4 1,-5l0 -64c0,0 0,0 0,0l2 -2c0,0 0,0 0,0l6 -6c0,0 0,0 0,0 1,-1 1,-1 1,-1 0,0 1,-1 1,-1l12 -12c0,0 0,0 0,0l1 0c0,-1 1,-2 2,-3 0,0 0,0 0,0 0,0 0,0 0,0 1,-1 1,-1 1,-1 1,-1 1,-1 2,-2l4 -4c0,0 0,0 0,0l1 -1c0,0 1,-1 2,-2l0 0c0,0 1,0 1,-1l1 -1c0,0 0,0 0,0l0 0c0,0 0,0 0,0l2 -2c0,0 0,0 0,0 0,0 0,0 0,0l1 -1c1,-1 3,-3 4,-4l0 0c0,0 2,-2 3,-3 0,-1 1,-1 1,-1 0,-1 1,-3 0,-4l0 -1c0,0 0,0 0,0 0,0 0,-1 -1,-1l0 -1c0,0 0,0 0,0 0,0 0,-1 0,-1 -1,0 -1,0 -1,0l0 0c0,0 0,0 0,0 0,0 0,0 0,0l-2 -1 -119 0c-1,0 -1,0 -2,0 -1,0 -1,0 -1,1l-2 1c0,0 0,0 0,0 0,1 0,0 0,1 0,0 0,0 0,0l-1 1c0,1 0,0 0,1 0,0 0,0 0,1z"/>
 </g>
</svg>
