<?xml version="1.0" encoding="UTF-8"?>
<!DOCTYPE svg PUBLIC "-//W3C//DTD SVG 1.1//EN" "http://www.w3.org/Graphics/SVG/1.1/DTD/svg11.dtd">
<!-- Creator: CorelDRAW X8 -->
<svg xmlns="http://www.w3.org/2000/svg" xml:space="preserve" width="25.2345mm" height="20.1921mm" version="1.1" style="shape-rendering:geometricPrecision; text-rendering:geometricPrecision; image-rendering:optimizeQuality; fill-rule:evenodd; clip-rule:evenodd"
viewBox="0 0 233 187"
 xmlns:xlink="http://www.w3.org/1999/xlink">
 <defs>
  <style type="text/css">
   <![CDATA[
    .fil0 {fill:white}
   ]]>
  </style>
 </defs>
 <g id="Camada_x0020_1">
  <metadata id="CorelCorpID_0Corel-Layer"/>
  <path class="fil0" d="M12 151c1,0 3,0 5,0 1,0 5,0 6,1 0,0 1,4 1,5 0,0 0,0 0,1 0,0 0,1 0,1 1,1 0,1 1,1l0 3c1,1 1,1 1,1 0,1 0,1 0,2 1,1 1,1 1,1 0,1 0,1 1,2l2 3c0,0 0,0 0,1 0,0 0,0 1,0 0,0 1,1 1,2l5 5 4 2c1,1 2,1 3,1 0,0 0,1 1,1 0,0 0,0 0,0 1,1 2,1 3,1 0,0 -1,0 0,0l2 1c1,0 1,0 2,0 2,0 1,0 4,0 1,0 6,1 7,0 1,0 1,0 2,0 1,0 0,0 1,0l2 -1c0,0 0,0 0,0l4 -1c1,-1 2,-1 3,-2l2 -1c1,0 1,-1 2,-1l2 -2c0,0 0,0 0,0 0,0 2,-1 2,-2 1,-1 2,-2 3,-3 0,-1 1,-1 2,-2l1 -3c0,0 0,0 0,0 1,-1 1,-2 1,-2 1,-2 2,-5 2,-7 1,-1 1,-3 1,-4 0,0 0,-3 0,-3 1,-1 5,0 6,0l35 0c1,0 5,-1 6,0 0,0 0,0 0,0 0,2 1,6 1,8 1,1 1,2 1,3 0,1 0,1 1,2 0,0 0,1 0,1 1,1 1,2 2,3l4 6c2,2 2,2 3,3 1,1 2,2 3,2 3,2 5,4 8,4 1,1 1,1 2,1 0,0 4,1 5,1 1,0 0,0 3,0 2,1 3,0 4,0 3,0 5,0 7,-1 2,0 6,-2 8,-3 2,-1 3,-2 4,-3l3 -2c2,-3 5,-6 6,-8 0,-1 0,-1 0,-1 0,0 0,0 0,0 0,0 1,0 1,0l2 -5c0,0 0,0 0,-1 1,0 1,0 1,0 0,-1 0,-1 0,-1 0,-1 0,-1 0,-2 1,-1 0,0 1,-1 0,0 0,-1 0,-1 0,-1 0,-2 0,-3 0,-1 0,-1 0,-2 6,-1 13,0 18,0 1,-1 2,-1 3,-2 2,-2 2,-3 2,-6 0,-2 0,-10 0,-12 0,-1 -2,-3 -3,-3 -1,0 0,0 -1,0 -1,-1 -2,-1 -3,-1 -1,0 -4,1 -4,0 -1,0 -1,-33 -1,-38 0,-3 1,-2 0,-4 0,-1 0,-1 0,-2l-3 -5c0,-1 0,-1 0,-1l-4 -4c0,0 -2,-2 -2,-2l-12 -12c0,-1 -1,-1 -1,-1l-17 -17c0,0 0,0 -1,-1l-4 -3c-2,-1 -2,-1 -4,-2 -3,-1 -9,-1 -11,-1 -3,0 -5,0 -8,0 -3,0 -2,1 -2,-4l0 -14c0,-4 -2,-8 -4,-11l-3 -2c0,0 0,-1 -1,-1 -1,-1 -3,-2 -5,-2 -1,-1 -3,-1 -6,-1l-112 0c-6,0 -8,0 -12,2 -2,1 -3,2 -4,3 -1,1 -3,3 -3,4 0,1 0,1 -1,1 0,2 -1,3 -1,5 0,2 0,4 0,6l0 113c0,1 0,2 0,3 0,2 1,4 2,5 0,1 0,1 0,1 1,0 0,0 1,1l1 2 4 3c0,0 1,0 1,0l1 1c1,0 1,1 2,1zm45 -17c-1,0 -2,0 -2,0 -2,1 -4,1 -5,2 -3,2 -5,4 -7,6 -1,2 -3,8 -2,11 0,1 0,0 0,2 0,0 0,1 1,2 0,2 1,3 1,4 1,0 1,1 2,2l0 1c0,0 0,0 0,0l1 0c0,0 0,0 0,0l2 2c1,0 3,2 4,2 0,0 1,0 1,0 0,0 0,0 1,1 3,0 1,0 6,0 1,0 1,0 2,0 2,-1 2,-1 5,-2 0,0 0,0 1,-1l1 0c0,-1 0,-1 0,-1l1 -1c0,0 0,0 0,0 1,0 1,0 1,-1 1,-1 3,-4 4,-5l0 -2c0,-1 0,-1 0,-2 1,0 0,0 1,0l0 -4 -1 -4c-1,-2 0,-1 -1,-3 -2,-3 -2,-3 -4,-5 -1,0 -3,-2 -4,-2 0,0 0,0 -1,-1l-2 0c-2,-1 -5,-1 -6,-1zm135 19c0,-3 0,-6 -1,-8l-1 -3c-1,-1 -3,-3 -4,-3 -1,-2 -4,-4 -7,-4 0,-1 -1,0 -1,-1 -1,0 -1,0 -2,0 -2,0 -4,0 -5,1 -1,0 -1,0 -2,0l-2 1c0,0 -1,0 -1,0l-2 2c-1,1 -4,4 -5,6l-1 2c0,0 0,0 0,1l0 1c-1,1 0,2 -1,2 0,4 1,6 2,8 2,5 2,3 3,6 1,1 5,3 6,4 1,0 1,0 2,0 1,0 1,1 4,1 2,0 4,0 6,-1 1,0 3,-1 4,-2 0,0 1,0 1,0l3 -4c1,0 2,-1 2,-2 1,-2 2,-4 2,-5 0,-1 0,-1 0,-2zm12 -64c0,-1 -2,-2 -3,-3 0,0 0,0 0,0l-1 -1c0,0 0,0 0,0 0,0 0,0 0,0l-7 -7c0,0 0,0 0,0 0,0 0,0 0,0l-6 -6c-1,-1 -1,-1 -1,-2l-3 -2c-1,0 0,0 -1,-1l-3 -2c0,0 0,0 0,0 -2,-2 -6,-7 -8,-9l-1 0c0,-1 -2,-3 -2,-3l-16 0 0 40c5,0 51,0 52,0l0 -4z"/>
 </g>
</svg>
