<?xml version="1.0" encoding="UTF-8"?>
<!DOCTYPE svg PUBLIC "-//W3C//DTD SVG 1.1//EN" "http://www.w3.org/Graphics/SVG/1.1/DTD/svg11.dtd">
<!-- Creator: CorelDRAW X8 -->
<svg xmlns="http://www.w3.org/2000/svg" xml:space="preserve" width="35.8148mm" height="35.7606mm" version="1.1" style="shape-rendering:geometricPrecision; text-rendering:geometricPrecision; image-rendering:optimizeQuality; fill-rule:evenodd; clip-rule:evenodd"
viewBox="0 0 226 226"
 xmlns:xlink="http://www.w3.org/1999/xlink">
 <defs>
  <style type="text/css">
   <![CDATA[
    .fil0 {fill:#17A2B8}
   ]]>
  </style>
 </defs>
 <g id="Camada_x0020_1">
  <metadata id="CorelCorpID_0Corel-Layer"/>
  <path class="fil0" d="M1 166c0,0 2,2 3,2 0,0 1,1 2,1 1,0 2,0 3,0l19 0c1,0 0,1 0,3l0 37c0,3 0,4 1,6 0,1 1,4 2,5 1,1 2,2 4,3 1,1 1,1 4,2 1,0 0,0 2,0 8,1 16,1 23,1l93 0c3,0 28,0 29,-1l2 0c3,-1 3,-2 5,-3l0 0c0,0 0,0 0,0 0,0 1,-1 1,-1 0,0 0,-1 1,-1l0 0c1,-1 1,-2 1,-2 1,-2 1,-3 1,-5 1,-4 0,-43 1,-44 0,0 0,0 0,0 0,0 0,0 0,0 0,0 0,0 0,0 2,0 19,0 22,0 2,0 1,-1 2,-1 1,0 2,-2 3,-2 0,-1 1,-3 1,-4 0,-2 0,-25 0,-29 0,-5 0,-20 0,-24 -1,-3 0,-1 -1,-4l-2 -5c-1,-1 -1,-1 -1,-2 -1,0 -1,-1 -1,-1 -1,-2 -2,-3 -4,-4 -2,-2 -1,-1 -3,-3 -1,-1 -1,-1 -2,-1 0,0 -1,-1 -2,-1 0,0 0,0 -1,-1 0,0 0,0 0,0 -2,-1 -4,-1 -4,-1 -3,-1 -2,-1 -3,-1 -1,0 -1,0 -2,0 -1,0 -2,0 -2,0 -1,-1 -1,-38 -1,-43 0,-3 1,-8 0,-11 0,-1 0,-1 0,-1 0,-1 0,-1 -1,-1 0,-1 0,-1 0,-1 -1,-3 -4,-6 -5,-7l-1 0c0,-1 0,-1 -1,-1l-8 -9c0,0 -1,0 -1,0l-6 -6c0,-1 -1,-1 -1,-1 -2,-2 -3,-3 -5,-3 -1,0 -1,0 -1,-1 -2,0 -10,0 -12,0 -14,0 -28,0 -42,0l-64 0c-3,0 -6,0 -9,0 0,0 0,0 0,0 -1,0 -1,0 -1,0 0,1 -1,0 -5,3l-2 1c0,1 0,1 -1,2 0,0 -1,1 -1,1l-1 2c0,1 0,1 0,2 0,3 -1,1 -1,5l0 48c0,2 1,20 0,20 0,1 -2,1 -3,1 -1,0 -2,0 -3,0 -1,1 0,1 -1,1 -2,0 -7,2 -9,4l-1 1c0,0 -1,0 -1,0 0,0 0,1 -1,1 -2,2 -3,3 -5,7 0,0 -1,1 -1,2l-1 2c-1,1 -1,2 -1,3 0,1 0,1 0,1 0,1 0,1 0,2 -1,1 -1,2 -1,3 0,2 0,5 0,7l0 41c0,1 0,4 1,5 0,0 0,0 0,1zm56 31l112 0 0 -41 -112 -1 0 42zm0 -154c0,18 0,36 0,54 0,1 -1,1 0,1 0,1 37,0 43,0 9,1 18,0 28,0 9,1 19,0 28,0l12 0c1,0 1,0 1,-2l0 -39c-1,-1 -20,0 -22,-1 -3,-1 -4,-2 -6,-4 0,-1 0,-9 0,-11l0 -13c-9,0 -19,0 -29,0 -9,0 -19,0 -28,0 -3,0 -27,0 -27,0 -1,1 0,13 0,15zm125 70c0,1 0,1 -1,3 0,0 -1,2 -1,3 0,1 1,4 2,6 0,1 2,3 3,4 3,1 4,1 6,1 2,0 3,-1 5,-1l1 -2c1,0 1,0 2,-1 0,-1 0,-1 1,-1 0,-1 0,-1 0,-1l0 -1c0,0 0,-1 1,-1 0,-4 0,0 -1,-5 0,-1 0,-2 -1,-3 0,0 0,0 0,0 -1,-1 -1,-1 -1,-2 -1,0 -1,-1 -2,-1 -1,-1 -4,-2 -6,-2 -1,0 -1,0 -2,0 -1,1 -1,1 -1,1 -1,0 -1,0 -2,1l-2 1c0,1 0,0 -1,1l0 0z"/>
 </g>
</svg>
