<?xml version="1.0" encoding="UTF-8"?>
<!DOCTYPE svg PUBLIC "-//W3C//DTD SVG 1.1//EN" "http://www.w3.org/Graphics/SVG/1.1/DTD/svg11.dtd">
<!-- Creator: CorelDRAW X8 -->
<svg xmlns="http://www.w3.org/2000/svg" xml:space="preserve" width="22.2545mm" height="17.3172mm" version="1.1" style="shape-rendering:geometricPrecision; text-rendering:geometricPrecision; image-rendering:optimizeQuality; fill-rule:evenodd; clip-rule:evenodd"
viewBox="0 0 225 175"
 xmlns:xlink="http://www.w3.org/1999/xlink">
 <defs>
  <style type="text/css">
   <![CDATA[
    .fil0 {fill:white}
   ]]>
  </style>
 </defs>
 <g id="Camada_x0020_1">
  <metadata id="CorelCorpID_0Corel-Layer"/>
  <path class="fil0" d="M0 89c0,3 1,3 3,5 0,1 0,1 1,1 1,2 1,3 2,4 1,0 1,1 2,2l3 3c0,0 0,0 1,1 0,1 1,1 3,1 2,0 2,-1 4,-2l6 -5c0,-1 1,-1 1,-1l9 -7c0,-1 1,-1 1,-2 1,0 2,-1 3,-2l11 -9c2,-1 3,-3 5,-4l0 0c1,-1 4,-3 4,-4 1,0 1,0 1,0l1 -1c1,0 1,0 1,0 0,0 0,0 0,0l3 -3c1,-1 1,-1 2,-2 0,0 0,0 0,0l3 -2c2,-2 3,-3 5,-4l5 -4c0,-1 0,-1 1,-1l6 -5c1,-1 1,-1 2,-2 0,0 0,0 1,0 0,-1 0,-1 0,-1l0 0c1,0 1,0 1,-1l6 -5c1,0 1,0 2,-1l1 -1c1,-1 1,-1 2,-1l6 -5c0,0 0,-1 0,-1l1 0c0,0 0,0 0,0 0,0 0,0 0,0l0 -1c1,0 1,0 1,0 2,-1 4,-1 5,0 0,1 1,1 2,1l7 6c0,1 1,2 2,3 1,0 2,1 3,2 0,0 0,0 1,0 0,0 0,1 1,1 0,0 0,0 0,0l5 5c1,0 1,0 1,0 2,1 3,3 5,4 0,0 0,1 1,1l2 2c0,0 0,0 0,0 0,0 1,0 1,1 1,0 1,1 2,1 0,0 1,1 1,1l9 7c1,1 2,2 4,3l0 1c2,1 6,5 8,6 0,0 0,0 0,0 0,0 0,1 0,1 0,0 0,0 0,0 0,0 1,0 1,0 1,1 2,2 3,3 1,0 1,0 2,1l4 4c1,0 1,0 1,1l2 1c0,0 1,0 1,0l3 3c0,0 0,0 0,0l1 2c1,0 2,0 2,1l2 1c0,1 0,1 1,1l4 3c0,0 0,1 0,1l1 0c0,0 0,0 0,0l0 1c2,0 2,2 4,2 0,1 1,1 1,2l3 2c0,0 0,0 1,0 1,1 1,2 4,2 1,0 1,-1 2,-1 0,0 3,-3 3,-4 2,-2 4,-4 5,-6 0,0 0,0 1,-1 0,0 0,0 1,0l1 -2c1,-2 1,-4 -1,-6 0,0 0,0 0,0 0,0 0,-1 0,-1l-1 0c0,0 0,0 0,0l-2 -2c-1,-1 -2,-2 -3,-3l-1 0c-1,-1 0,-1 -1,-1l-2 -2c0,0 0,0 0,0 0,0 0,0 0,0l0 0c-1,0 -1,0 -1,-1l-9 -7c-2,-1 -4,-4 -5,-4 -1,-1 -2,-1 -3,-2 0,0 0,0 0,0l-2 -2c0,0 -1,-1 -1,-1 -1,-1 -2,-1 -2,-2 0,-6 0,-53 0,-54 0,0 0,-1 0,-1 0,-1 -1,-1 -1,-1l0 -1c-1,0 -1,0 -2,-1 -1,0 -1,0 -2,0l-21 0c-3,0 -3,1 -5,3 0,1 0,1 0,2 0,5 0,26 0,27l0 0c-1,0 -1,0 -2,-1 -3,-2 -3,-3 -5,-4l-12 -10c-2,-1 -4,-3 -6,-5l-7 -6c-1,0 -2,-1 -2,-2l-1 0c-1,0 -2,-1 -3,-2 -2,0 -2,-1 -5,-2 -1,0 0,0 -4,0 -1,0 -3,0 -5,1 0,0 0,0 0,0 0,0 0,0 0,0 -1,0 -1,0 -1,0l-1 0c0,1 -1,1 -2,2l-8 6c-1,1 -2,2 -3,2l-7 6c-1,1 -3,3 -5,4l-1 1c0,0 -1,1 -1,1l-15 12c0,0 0,0 0,0 -2,1 -4,4 -6,5l-6 5c-1,1 -1,1 -2,1l-9 8c-1,1 -2,2 -3,2l-2 2c-1,1 0,1 -1,1 0,0 0,0 0,0 -1,1 -3,2 -4,3 -1,1 -2,2 -2,2l-2 2c-1,0 -2,1 -3,2l-8 7c0,0 0,0 0,0 -1,0 -2,2 -3,2l-2 2c-1,0 -1,1 -2,1l-5 5c-1,0 -2,1 -3,2 0,1 0,1 0,2zm38 15c0,0 0,0 0,0 -1,1 0,1 0,3l0 29c0,11 -1,22 0,33 0,1 0,1 0,1l0 1c0,0 0,0 0,0 1,1 1,1 2,2 1,1 2,1 4,1l38 0c3,0 7,1 9,-1 2,-1 2,-3 2,-3 0,-1 0,-34 0,-38 0,-2 1,-3 1,-5 2,-1 4,-2 6,-2 1,0 2,0 2,0l22 0c2,0 4,0 5,1 0,0 0,0 0,0 0,1 1,1 1,1 0,0 1,1 1,2 0,1 0,4 0,6l0 28c0,3 -1,8 2,10 2,2 4,2 7,2 9,0 18,0 27,0 5,0 9,0 14,0 1,0 2,-1 3,-1 1,-1 1,-1 2,-3 2,-1 1,-1 1,-4 0,-18 0,-37 0,-55 0,-2 0,-5 0,-7 0,-1 -1,-1 -1,-2l-4 -3c-2,-1 -4,-3 -6,-5l-2 -1c-2,-2 -3,-3 -4,-4l-13 -10c0,-1 -1,-1 -2,-2 -1,-1 -2,-2 -3,-3 -1,0 -1,0 -1,0l-5 -4c-1,-1 -2,-2 -3,-3 -1,-1 -2,-1 -3,-2 0,0 0,-1 -1,-1 0,0 0,0 -1,-1 0,0 -1,-1 -2,-1 -1,-1 -3,-3 -4,-4 -1,0 -1,-1 -1,-1 -1,0 -1,0 -1,-1 0,0 -1,0 -1,0 -1,-1 -1,-1 -1,-2l-2 -1c0,0 0,0 -1,-1 -1,0 -1,-1 -2,-1l-3 -2c-1,-1 -1,-2 -2,-3 -3,-2 -3,-3 -6,-3 -2,0 -3,1 -4,2l-3 3c-1,1 -2,2 -3,2l-2 2c-1,0 -1,0 -1,1 -1,0 -1,0 -1,1 0,0 -1,0 -1,0l-3 3c0,0 0,0 -1,1 0,0 -4,3 -5,4l-6 5c-2,1 -4,4 -7,5 -1,1 -1,2 -3,3 0,0 0,0 0,1l-1 0c0,0 0,0 0,0 0,0 0,0 0,0 0,0 -1,1 -1,1 -1,0 -1,1 -2,2l-3 1c0,1 0,1 0,1 -1,1 -3,2 -4,3l-1 1c-2,2 -5,4 -7,6l-3 2c-1,1 -3,2 -4,3l-5 4c0,1 -2,2 -3,3z"/>
 </g>
</svg>
