<?xml version="1.0" encoding="UTF-8"?>
<!DOCTYPE svg PUBLIC "-//W3C//DTD SVG 1.1//EN" "http://www.w3.org/Graphics/SVG/1.1/DTD/svg11.dtd">
<!-- Creator: CorelDRAW -->
<svg xmlns="http://www.w3.org/2000/svg" xml:space="preserve" width="57.6001mm" height="86.0382mm" version="1.1" style="shape-rendering:geometricPrecision; text-rendering:geometricPrecision; image-rendering:optimizeQuality; fill-rule:evenodd; clip-rule:evenodd"
viewBox="0 0 12709.53 18984.43"
 xmlns:xlink="http://www.w3.org/1999/xlink"
 xmlns:xodm="http://www.corel.com/coreldraw/odm/2003">
 <defs>
  <style type="text/css">
   <![CDATA[
    .str0 {stroke:#373435;stroke-width:44.13;stroke-miterlimit:22.9256}
    .fil10 {fill:none}
    .fil1 {fill:#FEFEFE}
    .fil2 {fill:black}
    .fil9 {fill:#101E36}
    .fil7 {fill:#373737}
    .fil0 {fill:#3766B8}
    .fil5 {fill:#626262}
    .fil4 {fill:#868686}
    .fil6 {fill:#ADADAD}
    .fil8 {fill:#EC1B23}
    .fil3 {fill:#FEFEFE}
    .fil14 {fill:url(#id0)}
    .fil13 {fill:url(#id1)}
    .fil12 {fill:url(#id2)}
    .fil11 {fill:url(#id3)}
   ]]>
  </style>
  <linearGradient id="id0" gradientUnits="userSpaceOnUse" x1="2110.24" y1="14148.57" x2="1374.74" y2="14905.85">
   <stop offset="0" style="stop-opacity:1; stop-color:#00C4FF"/>
   <stop offset="1" style="stop-opacity:1; stop-color:#00E3FF"/>
  </linearGradient>
  <linearGradient id="id1" gradientUnits="userSpaceOnUse" x1="2640.31" y1="14318.05" x2="3424.62" y2="14318.03">
   <stop offset="0" style="stop-opacity:1; stop-color:#FFBB00"/>
   <stop offset="1" style="stop-opacity:1; stop-color:#FFDC00"/>
  </linearGradient>
  <linearGradient id="id2" gradientUnits="userSpaceOnUse" x1="1728.01" y1="13373.27" x2="2550.15" y2="14076.46">
   <stop offset="0" style="stop-opacity:1; stop-color:#10D774"/>
   <stop offset="1" style="stop-opacity:1; stop-color:#00F076"/>
  </linearGradient>
  <linearGradient id="id3" gradientUnits="userSpaceOnUse" x1="1872.23" y1="15122.19" x2="2615.09" y2="14577.69">
   <stop offset="0" style="stop-opacity:1; stop-color:#E02554"/>
   <stop offset="1" style="stop-opacity:1; stop-color:#FE3945"/>
  </linearGradient>
 </defs>
 <g id="Camada_x0020_1">
  <metadata id="CorelCorpID_0Corel-Layer"/>
  <path class="fil0" d="M1840.3 0l9028.96 0c1012.15,0 1840.27,828.15 1840.27,1840.32l0 14958.76c0,1201.93 -983.4,2185.35 -2185.35,2185.35l-8338.83 0c-1201.95,0 -2185.35,-983.4 -2185.35,-2185.35l0 -14958.76c0,-1012.19 828.13,-1840.32 1840.3,-1840.32z"/>
  <path class="fil1" d="M2207.97 964.91l667.47 0 0 357.79c0,363.77 297.61,661.38 661.36,661.38l5635.89 0c363.77,0 661.38,-297.61 661.38,-661.38l0 -357.79 667.49 0c929.71,0 1690.39,760.69 1690.39,1690.41l0 13473.64c0,32.39 -0.88,64.72 -2.41,96.76l-11669.56 0c-1.52,-32.04 -2.41,-64.32 -2.41,-96.76l0 -13473.64c0,-929.74 760.67,-1690.41 1690.39,-1690.41z"/>
  <path class="fil0" d="M8953.63 14905.1l140.93 2.01 0.04 -953.96c40.47,29.35 67.85,122.09 91.39,169.86l165.25 350.17c60.33,130.29 36.28,129.37 151.65,118.56l226.06 -482.21c14.03,-29.72 24.43,-48.74 38.99,-80.07 14.08,-30.16 22.15,-54.59 45.98,-75.26l1.13 951.56 144.77 2.01 5.54 -1132.91 -208.16 -0.4 -251.1 540.09c-22.35,48.59 -23.15,58.8 -54.17,78.38l-291.5 -617.71 -204.32 -0.55 -2.47 1130.46zm-979.74 -239.87c-49.29,-26.39 -33.47,-29.04 -77.23,-110.9l-369.88 -693.55c-53.02,-99.67 6.6,-86.25 -245.76,-86.34 -52.16,-0.09 -33.3,61.47 -33.3,118.31l0.33 1011.75 140.31 2.36 1.08 -995.25c35.19,25.82 502.03,927.71 540.44,994.94l181.86 0.51 4.37 -1090.79c-3.27,-53.38 -13.24,-45.87 -73.48,-45.74 -99.76,0.35 -68.73,11.21 -68.73,336.85 -0.02,185.85 1.28,372.08 -0.02,557.85zm-3894.54 -15.98l-1.59 182.28c177.71,104.54 528.57,131.42 709.95,23.34 203.97,-121.51 243.4,-431.88 -11.98,-538.23 -172.13,-71.67 -432.45,-56.77 -503.83,-150.53 -118.03,-155.1 81.73,-395.74 492.54,-235.41 52.47,20.45 110.59,65.62 140.29,74.09l2.27 -173.26c-216.06,-100.64 -518.64,-121.4 -708.4,14.96 -76.1,54.77 -142.21,170.63 -103.55,315.07 30.94,115.56 110.7,172.2 229.23,208.85 183.54,56.69 441.96,28.93 468.29,188.72 13.26,80.8 -12.33,134.29 -55.56,169.61 -123.9,101.37 -364.82,73.96 -520.89,-2.58 -28.18,-13.83 -125.07,-73.98 -136.76,-76.92zm2363.2 -187.66c4.66,-53.88 170.43,-515.84 197.28,-545.03l189.27 545.45 -386.56 -0.42zm-316.35 442.8l146.34 3.16 117.81 -316.04 492.03 -0.11c27.93,88.02 77.25,245.52 113.04,315.07l151.94 0.84 -407.65 -1135.07 -201.9 0.13 -411.6 1132.03zm-132.63 -88.61l1.72 -165.4c-59.4,16.22 -126.34,89.34 -228.33,120.63 -748.89,229.76 -743.55,-1095.03 -7.68,-869.01 155.71,47.82 167.76,104.15 235.72,123.59l-0.22 -177.89c-219.61,-87.22 -409.51,-151.21 -654.36,-39.87 -442.52,201.15 -420.45,1206.19 350.33,1112.26 93.42,-11.36 244.99,-54.41 302.82,-104.3zm4395.79 -38.7c-24.8,-15.45 -20.26,-2.82 -18.65,-100.82 0.99,-56.16 -13.86,-287.75 15.47,-327.49 34.29,-14.41 95.03,-8.19 134.91,-8.05l454.39 -0.49 0.38 -112.18 -588.43 -8.3c-15.91,-19.53 -17.12,-30.36 -17.54,-68.93 -0.64,-59.11 -2.34,-204.43 9.4,-248.23 99.73,-28.02 463.52,-4.83 596.11,-9.84l0.13 -108.3 -727.82 0.02 -0.38 1109.41 728.46 2.1 -0.04 -112.49c-101.01,-1.15 -535.52,10.57 -586.38,-6.42zm-1.94 -557.32l588.43 8.3 -0.38 112.18 -454.39 0.49c-39.87,-0.13 -100.62,-6.35 -134.91,8.05 -29.32,39.74 -14.47,271.33 -15.47,327.49 -1.61,97.99 -6.16,85.37 18.65,100.82 50.86,16.99 485.37,5.27 586.38,6.42l0.04 112.49 -728.46 -2.1 0.38 -1109.41 727.82 -0.02 -0.13 108.3c-132.59,5.01 -496.38,-18.18 -596.11,9.84 -11.74,43.8 -10.04,189.12 -9.4,248.23 0.42,38.57 1.63,49.4 17.54,68.93zm1.94 557.32l-3.18 -428.31 600.04 2.82 -3.97 -136.83 -594.83 4.99 1.46 -309.33 590.22 -1.17c13.81,-41.9 9.89,-90.4 4.72,-137.33l-750.81 5.41 3.75 1132.07 748.91 -1.1 -2.93 -134.29c-101.21,-8.41 -506.95,-13.15 -593.38,3.07z"/>
  <g id="_2482791258464">
   <path class="fil2" d="M10298.98 11862.36l1.24 189.47 10.86 4.72 186.32 1.65 1.5 -604.23 202.58 -2.29 1.41 -200.31 -201.9 -3.8 -1.74 -201.04 196.29 -0.44 -4.26 -202.36 -189.47 2.58 -3.33 -204.1 -201.72 -0.26 0.51 204.37 -1007.21 0.04 -3.71 -204.04 1010.41 -0.42 1.15 -400.81 -401.81 -0.9 -3.44 -407.1 203.11 0.64 3.16 198.37 198.63 0.49 0.13 208.52 401.81 -0.9 2.49 199.34 -200.84 0.09 -2.52 202.58 203.42 0.46 -1.65 193.09c70.45,8.94 168.84,-5.03 199.03,12.44 9.09,9.05 4.74,-3.8 10.83,19.81l2.54 165.75 187.18 4.1 -1.48 -307.32c-1.77,-126.63 -0.4,-79.99 17.7,-88.22 44.37,-17.94 132.7,-5.74 188.74,-5.89l-1.1 -193.42 -188.94 -3.6c-19.4,-18.34 -16.86,40.56 -16.26,-31.27l-0.44 -365.13c-117.72,-13.15 -532.1,20.96 -604.8,-12.07l-0.35 -192.36 -198.1 -6.88c-20.92,-71.51 -6.24,-306.4 -7.72,-397.99 -58.96,-1.74 -137.66,9.8 -195.83,-8.21l-1.32 -193.47 -198.96 2.98 1.5 390.49 -199.87 3.57 -3.24 402.73 -402.78 0.84 -0.33 403.28 -194.11 5.49 -6.58 202.34c-58.89,4.63 -153.11,16.2 -202.36,-8.14l0.04 -191.39 -5.23 -3.02 -190.18 -0.38c-21.38,-29.43 -14.19,-58.36 -13.9,-101.08 0.24,-32.83 -0.13,-65.03 1.21,-97.86 48.48,-12.82 162.29,-12 212.97,-1.63l-2.96 195.98 195.19 2.71 -0.75 -403.79 -597.13 3.6 -0.62 394.7c78.84,7.15 155.07,-10 196.84,14.23 -3.62,47.99 -16.5,157.9 6.51,189.74l202.69 4.52 -2.01 199.82 200.9 2.03c2.43,34.53 7.33,153.64 -1.94,188.06 -0.57,2.14 -3.38,8.98 -3.86,7.63 -0.51,-1.35 -2.82,5.01 -4.41,7.37l-190.36 -1.52 -0.49 202.95 398.96 -0.55 2.43 -201.87 202.36 0.33 1.77 403.44 -604.45 2.98 -2.63 200.22 -406.09 1.96 0.68 198.14 195.28 1.59 2.56 203.82 -401.39 0.22 -2.21 -203.51 -200.42 0.24 -2.14 202.67 -197.92 0.88 -0.26 -403.28 -206.26 -0.71 -0.66 196.2 -396.95 3.62 -1.94 203.15 197.86 1.1c10.61,232.79 -33.87,202.67 95.76,202.12 144.75,-0.64 95.45,31.16 106.99,-200.73l205.47 -1.74 -0.22 405.65 198.85 0.22 0.84 -203 809.48 -1.88 3.29 203.79 -406.04 2.32 -0.15 198.78 1006.5 5.6 3.75 -201.68c-35.08,-0.66 -68.75,-0.82 -102.4,-0.6 -15.29,0.09 -35.46,1.39 -49.87,0.93 -63.13,-1.96 -57.02,-6.44 -53.15,-156.53 0.15,-6.42 0.46,-20.39 1.88,-26.15 10.19,-41.61 25.71,-29.57 91.33,-28.84 37,0.42 74.03,0.29 110.99,-0.62l0.6 -193.38 -406.11 -0.64 -1.77 -209.53 813.47 -3.07 1.13 211.43 -199.67 2.29 -0.04 188.97c46.89,10.37 152.45,10.3 197.53,-2.12l2.18 -189.14 188.7 -4.77c14.81,-16.26 15.45,28.18 8.27,-26.65l0.95 -178.42c40.64,-2.05 171.71,-11.74 206.02,10.77zm-402.53 600.28c265.93,21.38 184.62,-69.73 202.71,201.76l1208.9 1.19 1.08 -808.93 -188.88 -2.38c-16.48,53.11 -7.94,118.86 -8.01,175.73 -2.03,47.11 2.47,11.5 -16.55,26.79l-190.6 1.13 -0.6 -199.47 195.12 -4.13 7.5 -199.91 -405.09 2.82c10.92,62.75 10.88,539.32 -0.71,600.28 69.24,-1.21 139.23,-0.22 208.76,-0.22l174.12 1.48c37.97,11.12 32.06,40.36 28.84,153.33 -0.15,5.38 -0.84,22.07 -2.07,26.63 -9.11,33.87 -28.18,30.12 -73.52,29.5 -107.5,-1.48 -494.08,6.82 -539.71,-6l-2.6 -198.43 -196.16 -0.93 -3.97 -204.21 -197.35 4.04 2.25 197.81 -203.24 3.64 -0.22 198.48zm-1013.49 -1610.22l-408.05 -4.3 -0.75 -200.81 -198.23 3.66 -1.96 183.71c-15.47,14.83 -1.83,9.82 -29.79,15.75l-176.57 -1.08 1.9 -206.22c53.15,-12.18 150.66,-11.21 200.09,-1.43l4.81 -606.57 -604.32 1.92 -6.22 199.62c36.87,-0.04 74.18,0.64 111.34,0.38 93.71,-0.66 84.88,-9.75 94.42,14.74l3.09 186.98 -204.37 0.95 -3.16 199.29 -198.37 4.17 -2.14 202.73 -400.88 0.33 -3.62 -202.95 204.17 -1.94 1.79 -200.59 -205.89 -1.96 -0.29 -194.77 -197.97 -4.61 -2.65 -206.93 -198.56 0.55 -0.38 405.42 196.62 0.95 2.41 406.99 -195.54 -0.33 -3.73 -407.61 -205.45 0.79 -0.73 -195.23 -199.84 -3.4 -0.95 197.73 -204.41 0.02c-0.24,-33.76 -10.59,-370.52 9.84,-401.03l194.75 -5.96 -0.66 -197.92 -401.94 -0.49 -4.06 197.62 -189.89 1.41c-1.28,-6.11 -2.58,-12.25 -2.91,-10.97l-6.97 -32.61c-0.95,-12 0.11,-35.99 0.29,-49.09 0.46,-35.48 1.15,-69.81 -2.45,-105.05l-402.62 -0.71 -0.88 196.14 201.17 3.42 1.06 204.9 202.38 2.89 1.1 195.56 -202.6 3.66 -1.99 405.42 -199.45 0.95 -1.28 193.58 -200.02 5.8 0.62 199.8 198.54 3.82 0.79 199.01 -404.59 4.26 -1.99 -406.84 206.62 -0.62 0 -198.21 -403.42 -0.66 -2.41 397.33 -198.14 4.59 -2.65 -202.36 -404.52 -0.38 0.07 -199.07 402.16 -0.33 3.46 -204.32 -205.07 -0.11 -2.03 -201.72 204.39 -0.66 2.58 202.49 604.19 0.18 1.46 205.03 196.16 -0.84 3.02 -605.73 -198.23 0.46 -0.97 196.51c-66.64,4.35 -355.8,9.02 -406.86,-4.1l0.07 -400.15 -198.81 -0.26 -1.04 206.53 -404.01 0.29c-21.95,-288.17 -10.04,-185.55 197.9,-210.96l-0.49 -398.56 -188.66 -2.1c-0.64,41 8.1,190.8 -15.89,203.42 -57.57,25.22 -310.21,-3.11 -403.97,11.36l2.67 395.03 -395.8 -0.53c-6.24,40.51 -5.85,71.36 -5.3,112.25 0.35,25.68 4.96,66.02 -10.24,84.8 -27.03,19.26 -121.45,1.96 -191.57,12.33l0.18 195.59 -196.95 4.17 -1.9 194.66 394.41 0.35 -3.31 -200.48 204.59 0.44 4.85 -174.78c2.12,-47.93 -3.07,-11.61 17.37,-26.68l380.89 -0.88 2.43 202.69 205.14 0.09 1.54 204.63 -207.59 -0.18 0.84 -204.54 -197.46 0.29 -1.21 203.29 197.84 1.08 3.11 394.92 406.2 2.27 2.36 405.14 199.93 2.6c16.46,53.18 10.24,149.25 5.05,206.46l-203.82 0.29 -2.01 202.43c-58.8,4.68 -150.51,10.37 -204.3,-4.24l-2.07 -196.82 -205.18 -1.43 -1.74 -609.92 -575.22 4.57c-54.08,-5.41 -9.38,-5.01 -25.95,9.05l-2.16 382.79c-15.86,16.68 24.8,13.42 -30.49,14.76l-160.52 0.51 -1.17 594.15 184.69 0.66 0.42 -166.13c2.98,-65.75 -1.88,-12.78 16.7,-32.04l190.4 2.32 3.95 -204.92c56.27,-16.9 149.76,-12.69 207.48,-2.89 4.7,48.43 1.01,191.64 5.03,203.11l188.59 4.9 2.49 200.48 608.31 1.3 5.14 -200.48 196.95 -1.81c13.31,259.79 -60.24,191.17 200.64,203.48l0.77 202.23 207.13 -0.09 -0.53 -608.49 -392.89 -2.07c-23.81,-16.66 -16.79,47.26 -18.51,-116.83 -0.09,-9.95 -1.19,-31.27 -0.6,-39.85 4.26,-62.11 29.21,-48.08 147.42,-48.06 99.56,0 406.59,-6.77 464.43,4.41l6.2 196.05 171.58 2.23c34.2,8.96 -1.83,-9.86 14.32,9.44 15.14,13.92 14.74,-40.82 13.42,80.93l1.1 313.7 191.48 -1.15 0.2 -999.53 -200.68 0.57 -2.65 -212.64 205.12 -4.61 -1.3 -196.03c53.22,-6.77 175.97,-9.25 204.54,-0.93l6.38 -199.25 592.8 -1.5c6.53,3.99 17.67,-45.1 16.81,99.71 -0.24,38.61 1.28,69.84 -3.97,108.36 -72.02,13.24 -548.01,14.41 -608.42,-2.87l5.1 1003.32 201.12 -2.93c3.38,67.48 13.06,152.87 -6.27,212.77 -54.15,15.89 -135.24,13.61 -192.41,4.81l-2.69 190.84 187.05 -0.35c2.18,-34.47 1.9,-65.69 1.61,-97.26 -0.4,-47.09 -9.29,-68.75 15.73,-102.38l193.69 4.17 2.82 -201.7 198.78 -2.27 2.03 203.42 402.58 0.49 2.45 -808.05 198.65 -3.66 2.58 -200.2 602.75 -1.08 2.85 201.23 205.93 1.35 -0.07 -401.87 195.1 0.46 3.93 193.69 199.31 5.67 3.09 201.92 204.32 -0.02 0.07 204.92 -202.47 -0.95 -2.45 -203.95 -400.83 0.02 -0.24 405.14 605.95 0.02 -0.02 -200.29 195.72 -0.82 2.65 -203.51 -198.37 -0.53 0.55 -201.48 407.45 -1.41 -3.4 -192.94zm-5259.31 1394.54l-4.77 -180.05c-0.4,-0.15 -151.45,0.13 -188.5,-0.4l-1.94 188.57c63.13,0 136.08,10.28 195.21,-8.12zm-413.77 -1198.69l-184.84 -2.47 -4.48 199.31 194.7 -0.62 -3.07 -198.87 208.96 -2.89 -0.29 -196.95 -205.43 4.3c11.52,50.4 18.71,151.34 -5.56,198.19zm2840.6 606.31c-11.65,-49.85 -10.68,-544.57 -2.47,-612.22l613.15 2.43c8.63,66.09 10.02,559.77 -2.65,612.22l-608.03 -2.43zm3639.93 -607.56l604.47 -1.5 3.27 607.67 -607.52 0.13 -0.22 -606.31zm-6266.76 553.11l0.15 -142.58 198.1 -4.81 0.11 200.22c-43.45,3 -84.47,1.37 -125.13,2.03 -72.37,1.21 -73.1,12.73 -73.23,-54.85zm2220.99 -1164.95l205.38 4.48 1.06 206.62 -207.1 -3.84 0.66 -207.26z"/>
   <path class="fil2" d="M10492.4 8216.28l2.29 -367.91c0.31,-59.49 -1.54,-21.8 11.67,-32.37 8.36,-14.89 -23.96,-11.58 22.84,-12.69l370.03 -0.15 -0.15 -190.66 -369.88 -0.71c-52.03,-1.19 -12.73,2.01 -23.68,-13.79 -19.15,-4.46 -11.65,-6.05 -11.01,-81.73l-3.07 -318.82 -369.81 1.08c-48.5,-12.27 -29.06,-103.55 -25.02,-193.14l200.4 -5.14 1.46 -202.25 197.79 -2.85 0.62 -200.29 -196.45 -0.66 -2.36 -197.31 198.67 -2.14 2.41 196.75 201.87 2.12 0.88 -193.91 193.86 -5.45 -0.44 -202.05c-55.32,10.92 -545.96,9.8 -601.3,-2.41l-2.1 -195.19 -189.76 0.07 2.05 300.2c0.26,39.17 7.46,76.94 -13.35,100.99l-197.77 -1.59 -0.57 603.44 -202.71 3.27 0.57 -604.72 202.71 -2.14 0.13 -204.28 -400.88 -2.58 -0.88 -197.79 398.3 -1.21 1.61 -397.92 400.28 -11.1 3.91 -405.18 205.51 -3.2 2.16 406.04 194.44 -1.3 0.75 -189.38c60.24,-18.93 141.06,-5.36 203.18,-7.37 0.2,-62.71 10.13,-147.59 -7.3,-205.38l-393.22 -2.6 -2.52 -195.47 202.73 -1.28 1.01 -197.53 -198.28 -1.3 -5.71 200.11 -198.74 -1.39 -3 -189.12 -199.07 0.22 -0.53 186.91 -203.57 3.18 -1.01 195.78 -201.68 2.34 -0.29 -196.25 202.98 -2.45 -0.88 -190.16 -802.91 -0.68 3.95 392.6 192.85 -3.64 1.46 -198.28 203.46 4.02 -0.31 194.24 -204.37 0.02 -2.78 399.2c-14.56,17.74 9.64,13.99 -43.82,14.34 -29.5,0 -58.89,-0.02 -88.39,0.38 -30.3,0.42 -57.5,9.25 -60.41,-12.64 -13.68,-9.53 -10.5,21.56 -11.89,-21.67l-1.06 -372.22 -400.02 -3.71c-24.07,-47.15 -17.61,-331.13 -7.06,-393.8l-396.8 5.12 -0.97 186.96 204.68 1.9 -0.6 196.73 -203.62 -0.99 -0.46 -197.5 -400.48 0 -0.51 -198.65 -206.71 -3.38c-19.4,-260.96 -12.73,-208.96 205.93,-204.92l0.84 207.52 198.67 -1.3 0.07 -404.45 201.96 -1.94 0.6 -191.26c-60.33,1.17 -158.16,10 -199.8,-7.33 -24.49,-33.8 -14.32,-174.84 -8.19,-212 42.48,-10 66.64,-6.91 109.71,-7.08 137.84,-0.6 89.3,-2.43 102.38,16.79l-4.37 193.58 194.86 -5.14 1.85 -204.79 195.96 -0.38 0.26 -176.17 -791.08 0.18 -3.24 593.71 -605.69 0.64 -0.31 196.91 -405.62 1.83 -0.93 -195.78 406.86 -3.11 -0.09 -407.43 195.39 0.68c5.65,37.09 -2.93,179.65 7.97,197.04 12.03,19.22 156.38,22.04 182.3,8.43 22.2,-11.67 14.65,-46.76 14.12,-79.79l-0.53 -321.27 -399.22 -3.97 0.13 198.87 -203.59 0.02 -2.29 -397.81 604.67 -1.17 0.62 -404.25 206.62 -2.05 -0.09 406.53 400.5 0.11 0.29 -206.4 -198.87 -0.82 -1.13 -148.41c-3.44,-80.67 -27.23,-50.11 -200.81,-51.7l-1.35 -206.44 -204.57 -0.66 -0.99 -195.96 -397.19 -2.91 -1.79 190.6 191.3 8.08c20.83,-34.95 14.81,210.7 14.81,211.03 0,35.79 -0.26,71.69 0.04,107.48 0.11,13.22 1.74,38.17 0.93,49.78 -4.3,60.3 -2.03,23.74 -13.59,36.05 -18.07,15.07 -346.49,13.15 -378.2,8.72 -52.14,-7.3 -25.37,-82.46 -30.6,-207.19l-191.33 3.24 -0.33 405.6 -198.17 -0.46 -1.13 -610.03 -205.45 -2.21 -0.82 401.63 -201.19 4.32 0.29 205.6 -203.93 0.2 -0.93 -206.71 204.57 0.53 0.33 -605.38 -203.42 -0.11 -1.19 604.96 -199.51 0.62 -2.01 -186.94c-59.49,-16.86 -315.84,-6.53 -396.27,-6.53 -101.59,0 -324,12.89 -409.26,-4.68 17.17,51.96 13.9,133.54 6.49,189.03l604.19 1.63 3.31 418.91 -208.49 2.32 -0.11 298.39c0.29,33.65 5.25,75.55 -10.13,93.42 -6.82,21.34 -14.52,13.22 -93.38,13.04 -15.16,-0.02 -35.48,1.13 -49.73,0.46l-46.67 -10.68 -10.72 -37.25c-1.01,-11.41 0.04,-36.45 0.18,-49.14 0.42,-37.03 0.11,-74.09 -0.09,-111.12l-190.05 -0.46 -0.09 593.62 187.97 0.95c20.32,-194.46 -49.98,-193.8 109.2,-194.26l74.58 2.16c31.49,7.86 37.31,10.5 29.66,149.6 -0.62,10.99 -0.26,14.43 -3.24,24.87 -8.61,30.16 -2.41,25.11 -41.95,29.83l-155.29 0.53 -3.16 199.42c50.53,-3.31 155.4,-9.51 200.26,4.77l2.78 194.08 397.02 0.11 0.15 -399.18c-66.11,-0.11 -151.9,-2.54 -202.51,-0.64l-1.61 -613.37 209.88 -3.31 3.44 604.85 145.23 -0.44c49.91,3.66 42.37,10.35 47.04,16.62l7.99 194.31 196.11 -1.52 -2.56 -204.26 415.35 -3.84c9.49,56.84 13.33,167.92 -2.67,217.3l-199.45 2.8 0.13 187.97c230.62,26.15 204.12,-80.03 203.77,200.99l182.99 0c32.22,-115.4 -20.65,-272.61 12.67,-396.47l572.94 -2.01c2.91,0.46 5.52,0.99 8.14,1.61 2.45,0.57 5.27,1.74 7.35,2.38 1.99,0.6 5.21,2.43 6.73,2.98 1.5,0.55 4.5,1.83 6.4,3.31l7.04 191.59c-55.25,22.11 -134.35,9.33 -194.53,9.64l-1.63 183.29 395.63 1.65 5.41 205.71 199.93 2.25 -0.31 -201.81 198.37 0.84 1.26 206.77 400.46 0.49 6.27 197.73 198.01 3.11 1.01 205.01 606.37 0.31 1.85 398.89 205.62 0.51 -0.97 203.09 -202.2 4.57 -2.74 200.55 204.5 0.11 0.53 195.65 -204.43 4.37 -0.51 -200.13 -198.59 -1.26 -4.57 -198.74 -197.28 -1.3 -0.38 -207.04 196.95 -0.35 1.72 -196.11 -404.98 -2.89 -3.02 -200.22 -195.94 0.42 -2.14 604.52 407.79 1.9 -0.99 397 -207.65 3.07 -0.75 -199.53 -197.55 0.2 -0.79 804.36 406.92 1.94 0.51 -400.81 804.03 -0.04 -0.46 199.31 -604.21 1.08 -0.86 197.95 404.7 3.4 2.54 608.58 -407.32 3.13 0.38 -204.23 199.71 -3.49 1.65 -197.46c-77.91,-7.83 -566.9,-12.73 -601.94,5.67 -21.54,46.16 -1.17,133.69 -11.16,192.23l-193.47 0.93 -0.31 405.82c269.57,5.8 186.58,24.12 200.81,-199.45l404.32 -0.26 -0.07 196.75 -193.84 2.41 -5.87 197.75 -405.27 3.22 -0.44 204.72 196 1.68 2.1 399.4 -196.73 0.73 -1.52 204.28 195.43 1.94 3.49 198.21 -194.68 0.79 -4.59 200.13 194.97 2.71 4.35 199.87 207.21 4.15c1.68,-90.75 -10.77,-341.26 6.4,-407.12l193.27 -0.53 0.44 -196.51 202.71 -2.25 -1.3 398.47 -199.23 4.35 -2.71 201.32 406.44 2.23 0.84 -606.46 -204.04 0.35 -0.88 -205.91 203.66 0.35 1.52 205.21 196.47 0.09 2.49 -203.84 604.47 -2.38 1.77 -200.55 -199.25 -0.75 -0.18 -198.45 -204.15 -0.11 -0.97 195.96 -808.31 3.04 0.6 -196.89 808.69 -2.21 -0.38 -406.99 201.39 0.35 3.2 406.84 197.77 -0.22 3 -404.89 193.93 1.06zm-5657.43 -5261.18l0.71 200.53 199.71 -3.22c-1.88,-33.87 -1.28,-134.66 -1.65,-194.99l-198.76 -2.32zm4049.99 5864.58l199.34 0.71 -0.53 198.12 -195.76 1.94 -3.04 -200.77zm402.36 -606.42c60.7,-0.64 151.92,-12.71 196.64,6.07 19.84,41.09 9.27,137.05 6.38,191.81l-201.43 2.82 -1.59 -200.7zm403.13 -809.66l603.13 -1.65 4.5 611.78 -606.79 0.13 -0.84 -610.25zm-199.2 -2020.61l199.12 -0.68 -0.68 197.88 -195.56 1.01 -2.87 -198.21zm-3442.56 -1620.7l611.78 3.04 -1.74 601.45 -35.97 1.61 -527.4 0.6 -46.58 -3.33 -0.09 -603.37zm810.96 195.92l204.68 0.4 -6.31 212.75 -200.55 -1.46 2.18 -211.69z"/>
   <path class="fil2" d="M2411.23 7402.1l603.26 0.11 2.41 608.89 -604.25 3.04 -1.41 -612.04zm605.14 -816.03l3.62 -191.7 191.57 4.02c0.49,-37.78 0.62,-75.48 0.51,-113.26 -0.07,-16.15 -0.93,-34.13 -0.64,-49.91 0.71,-39.96 -5.8,-30.1 11.01,-39.3 7.17,-14.12 -18.29,-10.86 21.23,-11.94l342.89 -0.84c49.12,3.77 21.84,-3.02 29.72,12.78 13.06,6.86 10.35,-16.88 10.86,20.83l0.79 137.86c-3.35,55.85 5.56,16.62 -11.21,29.99 -13.79,14.56 40.05,13.04 -80.03,12.14l-317.21 0.42 0.35 192.45 401.08 0.31c17.76,48.96 16.64,552 3.2,613.19l-194.08 4.63 -2.12 599.02c-52.93,16.15 -159.77,10.77 -214.72,4.06 -11.96,-72.55 -15.47,-560.98 4.5,-613.34l200.81 -1.88 0.44 -190.09 -200.81 -1.01c-25,-59.97 -8.14,-318.58 -10.3,-402.29l-149.73 -1.63c-58.14,-0.6 -29.81,-4.66 -41.73,-14.5zm0.79 -587.24l-1.32 187.88 -188.63 0.86 -3.44 184.84c-6.47,26.41 1.26,8.12 -10.83,20.19l-196.98 6.27 0.86 187.16 149.03 -0.11c7.24,0.18 21.49,0.46 28.16,1.79 17.21,3.4 18.01,6.75 21.29,8.76 1.24,2.12 3.02,2.89 3.33,6.55l7.17 180.85 197.75 1.28c10.57,68.25 11.21,360.3 -1.24,421.86l-800.24 5.38c-11.87,57.63 -0.57,259.4 -2.65,343.66l-11.05 47.9c-26.54,19.11 -156.46,11.05 -197.13,10.22l-1.5 396.66c52.85,-0.33 155.34,-16.04 194.55,6.73 17.61,6.11 16,-27.07 14.32,84.77 -0.51,33.08 -2.03,67.59 2.67,99.78 105.07,0.77 533.78,-13.9 600.26,9.22l4.21 155.63c-2.03,51.92 -7.7,40.18 -16.11,47l-397.9 -0.22 -0.09 396.07c-13.11,18.78 23.34,13.46 -27.43,16.9l-164.63 0.22 -1.28 187.55 585.87 0.86 3.8 -188.08 -170.14 -2.29c-40.69,-8.36 -12.18,-1.88 -26.94,-9.51l-0.68 -192.58 199.12 -2.93c17.06,14.94 12.84,-25.49 15.38,29.57l0.51 159.35 183.96 0.53 2.03 -296.73c-0.02,-3.13 4.04,-123.54 16.99,-97.26l182.85 -6.27 0.13 -297.08c-1.04,-127.4 -41.28,-101.41 305.93,-101.41l234.99 -0.33c9.55,-0.04 29.35,-0.62 37.93,0.31 62.49,6.82 26.99,26.52 37.91,189.47l193.18 2.69c-0.24,-39.34 -12.11,-158.78 14.34,-190l192.12 0.77 2.43 -394.57c-60.13,-15.62 -131.91,-8.23 -194.44,-5.98l-1.46 194.42c-52.34,14.01 -160.46,10.06 -214.19,3.75l-3.44 -207.72 206.29 -3.2 1.9 -392.94 -203.95 -0.79 -4.9 -414.71 411.16 -8.34 1.72 -387.64 -184.22 -1.32 -14.25 -0.07 0.57 -206.93 196.25 -0.71 1.92 -195.19 -601.72 -3.33 -5.3 -197.95 -795.18 -2.56 -2.12 193.89 146.36 -1.83c51.19,2.63 39.23,8.58 46.14,19z"/>
   <path class="fil2" d="M1802.81 7002.83c-31.84,3.31 -184.53,11.14 -201.56,-3.84 -24.51,-21.54 -10.68,-160.74 -5.16,-202.69 51.52,-15.29 156.93,-11.58 211.45,-3.2 6.31,51.79 12.27,163.9 -4.72,209.73zm408.56 -1002.09c14.28,-25.11 -9.05,-17.76 45.06,-21.03l149.42 1.54 0.2 -188.5c-13.97,0.04 -176.98,4.44 -181.49,-6.22 -1.15,-2.69 -4.24,-2.14 -6.24,-3.42 -21.69,-38.04 -8.87,-145.19 -5.85,-198.23l199.67 -4.1 -0.95 -186.83 -200.13 -11.01c-19.17,-74.34 -2.85,-304.59 -7.19,-400.59l-193.64 3.33c-7.77,92.7 25.31,177.6 -29.1,189.87 -37.44,8.45 -147.64,10.44 -169.28,-8.03 -22.26,-25.68 -10.22,-148.83 -10.15,-189.14l-400.55 -0.09 -0.04 599.29 191.5 -2.34c0.38,-39.96 -4.39,-139.74 4.5,-175.11l6.16 -13.48c27.27,-15.64 171.95,-9.2 201.3,-6.82 4.88,18.45 21.49,372.75 -7.66,409.37l-396.71 -1.21 -1.94 604.65 199.49 3.09 0.75 195.92 -199.42 4.1c-4.5,168.16 -10.59,1558.5 4.88,1617.59l193.22 1.19 -0.07 199.31 -198.1 0.31 -0.4 204.74 197.17 1.5 3.66 172.88c10.94,50.24 112.95,30.3 201.83,25.49l3.8 -195.34 -204.83 -3.4 -1.32 -206.29 204.81 -0.6 0.68 -198.01 -204.83 -2.56 -0.4 -197.92 194.24 -0.11c14.43,-69.2 8.47,-318.31 4.66,-400.06l-189.78 -5.63c-1.19,-2.74 -4.41,-2.07 -6.51,-3.29 -23.68,-20.79 -12.25,-275.88 -12.62,-314.12 -0.97,-96.16 6.6,-69.24 8.21,-82.88 2.18,-18.62 54.3,-15.86 73.74,-15.75 26.13,0.18 52.21,0.24 78.33,0.24l450.59 -2.47 -0.11 -179.79c-57.04,-11.45 -123.26,4.55 -176.17,-6.69l-16.28 -6.91 -0.71 -201.01 204.06 -4.74 -3.57 -195.74 -202.6 -2.56 -0.71 -405.67 -404.39 -0.71 -0.2 -198.3 404.72 2.41 -0.13 196.56 206.71 -0.77 0.73 -185.92zm203.31 -216l393.38 3.07 -3.82 -205.03 -392.1 -1.63 2.54 203.59z"/>
   <path class="fil2" d="M10088.94 3961.99c-6.77,-77.58 -13.95,-992.56 6.93,-1011.55 18.2,-16.57 913.8,-13.28 1008.55,-4.63 14.65,58.72 5.87,729.49 6,896.77 0.04,56.53 18.56,114.3 -33.89,124.01 -0.75,0.13 -26.35,0.2 -29.06,0.22 -199.58,0.31 -875.32,7.63 -958.53,-4.81zm-194.68 199.14l1404.53 0.71 4.85 -1412.61 -1407.78 -0.13 -1.61 1412.03z"/>
   <path class="fil2" d="M3433.29 8620.44l190.11 -0.2 -0.42 -205.25 196.47 -1.41 2.52 -192.5 -389.18 0.11 0.51 399.25zm189.01 194.48l-189.38 7.28c-1.92,-0.4 -5.14,-1.35 -7.61,-2.32l-6.35 -15.56c-2.93,-13.11 -3.42,-12.27 -4.59,-27.07l1.13 -150.95 -194.44 -1.17 0.9 151.98c-0.95,15.38 0.71,3.27 -1.65,17.19 -5.52,32.35 -0.35,8.72 -6.69,19.97 -1.85,1.61 -5.05,1.13 -6.2,4.02 -1.19,2.93 -4.9,3.07 -6.62,3.6 -44.26,13.26 -110.52,-1.13 -172.04,7.06l-0.02 586.95 386.27 1.17 0.68 -193.82c65.07,-15.25 150,-9.53 215.11,-4.26l3.84 195.32c67.81,11.08 149.47,-11.56 190.11,14.7l-0.26 187.8 193.75 0 4.46 -193.22 205.32 -11.96 0.62 -388.68 -197.09 -3 -1.59 201.79 -206.64 4.77 -1.01 -203.66 205.07 -2.93 2.76 -197.73 198.78 -3.99 -0.53 -195.76 -604.98 -2.25 -1.1 194.75z"/>
   <path class="fil2" d="M3427.09 4778.4l195.72 -5.19c18.76,62.8 -0.04,134.53 11.45,199.62l185.1 2.12 3.91 -198.56 205.89 -1.37c2.41,-285.06 -44.42,-185.5 198.54,-210.19l1.15 -387.73 -193.69 -2.85 -0.22 166.59c-3.02,49.73 2.07,14.41 -17.76,27.4l-394.28 -0.88 3.33 -405.73 195.08 -0.53 1.1 195.89 202.23 5.67 -0.49 -393.82 -595.29 0.2c-3.71,127.05 9.02,740.15 -5.94,802.57l-204.35 -0.99c-26.61,-61.96 -8.45,-678.81 -10.53,-801.56l-185.19 -0.88c3.84,101.83 11.98,752.69 -8.61,803.52l-192.34 0.57 0.71 198.1c76.3,0.95 342.56,-10.11 396.53,7.17l0.26 193.91 199.67 -1.1 8.01 -191.97z"/>
   <path class="fil2" d="M2611.36 2951.5c12.03,16.06 12.47,11.63 13.26,50.24l-0.35 899.75c0,2.58 -0.22,29.24 -0.33,29.83 -9.05,50.97 -27.47,40.51 -93.18,40.22l-859.59 0.24c-103.73,0.79 -79.19,-22.33 -79.06,-119.44l-0.97 -870.29c2.96,-43.2 11.21,-45.79 60.08,-47.18l938.5 2.34c23.19,7.1 15.14,8.41 21.65,14.28zm-1205.77 -125.02l0.04 1289.66 0.55 38.19 1400.05 0.09 -2.36 -1400.69 -38.77 -0.49 -1269.6 0.09 -89.39 0.15 -0.53 72.99z"/>
   <path class="fil2" d="M1596.34 11447.69c48.19,-25.99 975.19,-22.62 1020.69,-1.96 15.18,55.38 13.48,921.86 3.53,1016.83 -45.67,7.26 -1003.19,6.16 -1012.79,1.15 -28.49,-14.83 -15.67,-198.26 -15.67,-238.3 0,-154.12 -10.68,-701.23 4.24,-777.71zm-190.69 1203.63l1397.34 0.51 1.06 -45.39 -0.18 -1309.21 -0.31 -43.53 -38.46 0.24 -1308.66 -0.04 -50.93 0.13 0.13 1397.3z"/>
   <path class="fil3" d="M8478.23 4370.33l195.43 -1.48 3.24 198.01 -197.33 0.07 -1.35 -196.6zm-204.39 -193.86l-0.6 191.26 -201.96 1.94 -0.07 404.45 -198.67 1.3 -0.84 -207.52c-218.67,-4.04 -225.33,-56.05 -205.93,204.92l206.71 3.38 0.51 198.65 400.48 0 0.46 197.5 203.62 0.99 0.6 -196.73 -204.68 -1.9 0.97 -186.96c16.44,-18.29 -22.9,-14.36 28.09,-15.82 65.11,0.31 130.23,0.18 195.32,0.18 28.51,0 159.88,-15.2 173.39,10.53 9.82,10.57 3.84,-5.1 8.85,18.6l0.84 174.69c0,62.14 -2.89,131.27 1.74,192.78l401.92 4.92c18.95,71.49 5.07,308.98 6.69,400.39l192.63 -2.07 2.78 -399.2 204.37 -0.02 0.31 -194.24 -203.46 -4.02 -1.46 198.28 -192.85 3.64c-29.72,-42.7 -15.34,-323.39 -14.74,-394.88 -33.72,-4.24 -68.34,-3.02 -102.49,-2.69 -14.67,0.13 -77.51,5.1 -84.6,-10.61 -18.25,-27.38 -8.43,-361.36 -9.29,-394.83l-209.42 -1.39 -0.26 -406.73 -191.55 -0.66 -1.43 206.02 -205.96 5.85z"/>
   <path class="fil3" d="M2207.48 6394.27l205.43 -4.19 1.57 205.65 -207.26 4.04 0.26 -205.49zm-200.02 602.93l198.67 -1.1 0.62 -204.65 205.67 0.2c6.02,54.48 11.67,164.23 -4.3,210.94l-193.4 1.54 0.22 192.74 798.32 0.31 0.86 -398.96 -193.2 -0.13c-0.35,231.09 48.04,219.9 -207.39,204.37 -19.7,-46.82 -12.95,-155.4 -5.16,-208.34l204.72 -3.62 2.21 -194.04 -205.25 2.03 -5.49 -205.62 208.38 -0.26 -4.92 -204.9 -396.49 -0.42 -0.35 -190.09c-51.65,-10.35 -150.88,-13.19 -199.8,3.55l-0.73 185.92 -206.71 0.77 0.13 -196.56 -404.72 -2.41 0.2 198.3 404.39 0.71 0.71 405.67 202.6 2.56 3.57 195.74 -204.06 4.74 0.71 201.01z"/>
   <path class="fil2" d="M8891.76 4768.21l192.39 -2.52 0.93 -196.47 805.07 -1.79 2.56 199.51 197.04 -0.18c0.75,-34.47 0.77,-69.02 0.44,-103.51 -0.33,-35.19 -5.98,-63.33 11.78,-92.1l194.37 -4.19 1.88 -198.34 -804.54 -0.31 -2.01 -201.3 197.97 1.32 -0.11 -206.04 -194.44 -0.93 -3.75 205.65 -204.26 1.61 -0.79 -403.22 -195.47 -6.2c-2.36,70.03 -1.08,140.29 -1.08,210.37l0.57 157.15c-0.6,11.8 -1.08,13.61 -3.22,24.23l-5.38 11.28c-21.36,27.93 -184.93,14.67 -188.02,7.44 -31.84,-74.32 -13.7,-101.37 -14.06,-201.94l-194.44 1.17 0.11 395.12 203.46 6.16c15.47,57.99 13.81,333.76 3,398.03z"/>
   <path class="fil3" d="M10299.47 3154.14l596.13 -1.08 4.21 605.22 -599.51 0.73c-10.86,-42.72 -10.79,-556.28 -0.84,-604.87zm-199.65 803.43l998.71 -3.44 0.04 -995.18 -998.65 -2.71 -0.11 1001.34z"/>
   <path class="fil3" d="M1804.18 12258.5c-14.89,-42.39 -13.17,-544.7 -4.06,-609.13 50.68,-14.96 565.37,-14.94 610.59,1.3 7.66,65.78 9.55,565.02 -3.82,610.59l-602.71 -2.76zm-198.03 197.92l999.59 -0.11 2.38 -1003.32c-99.25,-10.68 -934.1,-13.22 -1001.51,2.58l-0.46 1000.85z"/>
   <path class="fil3" d="M1802.63 3759.72c-14.03,-48.32 -13.35,-551.52 -1.04,-607.67 50.04,-11.34 562.4,-11.45 607.47,0.82 10.92,55.49 4.39,359.04 4.39,455.23 0,45.17 6.13,105.56 -4.99,141.66 -3.24,10.5 -1.92,10.99 -24.4,13.9 -69.77,9.02 -563.52,-0.57 -581.44,-3.93zm-196.45 197.39l1003.01 0.64 -1.04 -1006.26 -1005.55 2.32 3.57 1003.3z"/>
   <path class="fil2" d="M3829.38 3357.52c-1.7,-2.34 -3.53,-9.05 -4.06,-7.68l-9.95 -34.33c-1.06,-9.09 -0.09,-38.44 0.07,-49.32 0.44,-35 -0.62,-70.19 1.72,-104.72l-186.89 0.77 -2.18 393.38 601.83 1.1 9.86 203.53 192.96 -1.79c24.54,48.26 20.01,152.21 3.2,202.58 -53.97,17.65 -140.47,13.86 -198.08,6.18l-1.59 194.37 194.77 1.08c-9,-58.34 -13.02,-149.82 4.9,-201.63 56.18,-16.46 130.27,-5.96 191.99,-7.83l2.32 -187.55c-58.56,7.81 -139.98,11.41 -194.08,-3.27 -18.87,-52.07 -14.74,-146.62 -1.9,-204.1l400.68 -3.16 -0.62 -198.96 -196.38 -1.26c-14.61,-229.79 57.77,-208.96 -196.29,-198.98l-6.62 197.88 -205.03 1.28 -1.39 -603.83 -404.85 -2.07 -0.88 199.12 205.56 1.65 0.73 404.5 -199.78 3.07z"/>
   <path class="fil2" d="M4228.03 4782.9l0.33 190.38 -198.63 3 -0.62 196.89 -204.48 0.9 -1.92 206.46 206.55 1.77 -0.38 199.01 -205.47 0.46 -1.21 203.46 207.52 1.59 1.04 -205.47 196.11 -0.73 2.05 -197.2 202.29 -1.77 5.1 -404.74 199.29 -0.99 0.79 196.98 197.95 0.55 0.49 -391.81c13.39,-9.33 -0.49,-3.75 21.98,-8.87l180.38 -2.18 -0.46 -198.45 -394.92 1.83 -5.65 205.32 -408.14 3.62z"/>
   <polygon class="fil2" points="1803.98,10031.15 1599.1,10032.83 1598.82,10842.49 1399.63,10847.28 1398.18,11043.37 2004.11,11045.53 2004.35,10849.2 2207.53,10845.91 2211.15,10642.87 1808.04,10641.81 1805.21,10439.38 2003.87,10438.9 2003.87,9834.38 1807.95,9832.86 "/>
   <path class="fil4" d="M6862.29 5177.76l192.28 0.15 1.24 202.43c52.65,15.07 335.52,8.03 406.55,6.22l-2.8 188.33 -597.28 2.56 0.02 -399.69zm-4247.93 -397.46l101.92 -0.42 48.83 0.07 46.51 0.75 0.4 189.08 -37.14 1.92 -97.66 -0.31 -62.89 -0.53 0.02 -190.55zm0.75 -206.49l195.34 -0.86 0.24 195.28 -195.23 1.26 -0.35 -195.67zm3037.88 -607.34l190.64 0.04 -3.8 592.25c-32.04,-0.11 -64.12,-0.02 -96.18,0.11l-91 -3.07 0.33 -589.34zm-403.81 410.19l185.04 -0.22 0.79 182.13 -186.58 -0.11 0.75 -181.79zm-2028.38 -606.48l196.78 0.79 -3.55 787.95 -193.93 -3.11 0.71 -785.63zm1420.79 195.98l191.77 -0.42 0.09 400.92 -192.47 -2.21 0.62 -398.3zm-208.87 -207.7l0 198.06 -163.99 -0.13c-47.42,4.63 -42.19,13.75 -44.42,51.21 -0.71,11.89 0.62,36.45 0.79,49.76 0.46,34.88 0.95,69.64 -1.92,104.5l-185.9 -0.42c-4.24,-85.28 12.51,-341.5 -8.58,-402.42l-599.62 -0.24 1.08 -595.27 186.69 -0.31c3.09,61.25 -8.72,368 11.21,392.43 25.51,26.61 563.48,12.58 596,12.82 2.56,66.26 -11.5,182.66 15.69,191.81l-9.86 -203.53 -601.83 -1.1 2.18 -393.38 186.89 -0.77c-2.34,34.53 -1.28,69.73 -1.72,104.72 -0.15,10.88 -1.13,40.22 -0.07,49.32l9.95 34.33c0.53,-1.37 2.36,5.34 4.06,7.68 -7.86,-56 11.72,-157.1 -12.22,-196.05 -17.43,-14.17 -61.34,-10.64 -84.95,-10.3 -33.01,0.44 -65.05,0.64 -97.9,-1.46 -9.25,-64.03 10.59,-141.53 -11.63,-203.97l-192.32 -3.4c-3.91,-78.42 11.52,-165.86 -16.26,-193.27l3.75 194.2 -200.88 3.13c-16.42,49.14 -13.11,159.84 -3.49,214.69l205.18 1.35 0.29 596.66 -199.53 0.11 0.46 -317.52c0.53,-32.97 9.51,-74.58 -15.22,-83.89l1.94 399.36c-34.73,2.29 -66.92,1.96 -99.95,1.54 -12.82,-0.15 -37.31,-1.26 -48.94,-0.26l-34.84 9.75c-16.02,18.56 -11.05,18.53 -10.3,83.87 0.38,32.66 0.2,65.33 0.2,97.99 0,153.71 7.94,489.96 -2.23,605.75l-183.98 3.04c-9,-51.9 -1.04,-96.67 -3.04,-140.49l-11.8 -49.25 -1.3 191.02 -195.28 0.66 0.02 -195.47c-1.92,2.43 -3.95,3.29 -4.57,8.03 -2.14,16.35 -12.27,-10.44 -10.57,84.8 0.57,32.88 0.82,65.97 -0.77,98.76l-180.45 3.49 -11.39 -194.99c0.86,34.25 1.01,68.45 0.64,102.71 -0.15,14.32 -1.39,36.3 -0.75,49.58 0.49,10.61 0.29,14.94 2.89,25.15 8.52,33.61 -8.76,0.24 8.61,17.54 5.8,21.58 -8.23,7.81 33.34,12.27l152.85 -0.88 0.55 198.96c-55.25,-0.49 -147.33,-9.07 -195.14,6.6l-2.49 194.04 -192.14 -0.26 0.62 -366.72c-8.47,-50.62 5.91,-17.3 -17.63,-35.61l4.94 398.98c-77.49,10.83 -172.97,-10.48 -195.3,13.5 -23.79,30.34 -7.24,132.17 -9.95,180.29l-186.58 5.96 0.11 -196.62 -422.19 -4.92 -1.28 622.1c66.09,6.16 155.89,12.84 214.23,-5.85l0.55 -195.59 197.11 1.7 -3.46 400.86c29.15,-36.63 12.53,-390.93 7.66,-409.37 -29.35,-2.38 -174.03,-8.83 -201.3,6.82l-6.16 13.48c-8.89,35.37 -4.13,135.15 -4.5,175.11l-191.5 2.34 0.04 -599.29 400.55 0.09c-0.07,40.31 -12.11,163.46 10.15,189.14 21.65,18.47 131.84,16.48 169.28,8.03 54.41,-12.27 21.34,-97.17 29.1,-189.87l193.64 -3.33c4.35,96.01 -11.98,326.25 7.19,400.59l200.13 11.01c-11.98,-30.03 2.36,-11.43 -36.39,-17.45l-157.9 0.15 0.18 -392.63 198.5 -0.9 3.64 -201.23 180.74 0.13 1.52 197.57c60.83,8.67 166.99,15.62 219.64,-5.3l1.96 -192.96 383.27 0.38 1.5 197.88c60.88,8.8 165.78,15.31 218.93,-4.72l0.31 -196.47 191.08 3.07 -1.26 146.4c4.1,54.21 -7.02,28.82 17.34,44.97 -11.5,-65.09 7.3,-136.83 -11.45,-199.62l-195.72 5.19 -8.01 191.97 -199.67 1.1 -0.26 -193.91c-53.97,-17.28 -320.23,-6.22 -396.53,-7.17l-0.71 -198.1 192.34 -0.57c20.59,-50.84 12.44,-701.69 8.61,-803.52l185.19 0.88c2.07,122.75 -16.09,739.6 10.53,801.56l204.35 0.99c14.96,-62.42 2.23,-675.52 5.94,-802.57l595.29 -0.2 0.49 393.82 -202.23 -5.67c14.59,19.35 -22.9,13.95 26.74,17.48l174.95 1.35 -6.93 192.43c19.84,-13 14.74,22.33 17.76,-27.4l0.22 -166.59 193.69 2.85c248.03,-22.37 208.34,71.4 210.46,-210.83l189.61 0.49 0.4 402.11c61.23,18.47 148.9,9.84 212.16,6.97 7.83,-76.37 16.46,-357.45 -5.91,-415.51 -55.12,-18.01 -129.17,-7.13 -190.31,-8.69 -8.94,-54.54 4.06,-132.9 -5.54,-165.73 -14.76,-50.51 -107.61,-27.91 -200.79,-26.48l0.35 -191.33 395.72 1.13 202.32 -2.03 0.4 390 -207.15 -1.5c45.39,27.43 161.34,22.68 210.1,4.39 -25.99,74.93 -6.55,482.28 -9,597.21 -95.52,7.17 -326.72,-14.08 -399.09,9.8l-4.06 200.73c-108.56,7.22 -268.27,-3.99 -350.26,0.88 -11.52,0.68 -16.24,0.66 -27.29,3.64 -22.75,6.11 -9.4,0.13 -22.9,10.55l408.14 -3.62 5.65 -205.32 394.92 -1.83 0.46 198.45 -180.38 2.18c-22.46,5.12 -8.58,-0.46 -21.98,8.87 50.62,-1.21 176.3,7.99 207.57,-11.54l4.48 -198.41 188.5 1.35c0.53,39.78 -6.02,171 8.63,199.4l40.22 9.02c42.43,3.13 99.14,-5.78 149.67,3.02l1.13 194.61 406.46 5.6 2.54 396.62c57.81,17.43 139.14,5.49 199.25,8.16l-2.23 194.95 216.04 -10.22 -203.75 3.31 -1.83 -169.13c-6.22,-26.59 2.32,-6.31 -8.23,-18.91 -21.51,-20.04 -148.48,-11.3 -190.09,-11.69l-0.07 -399 190.75 -0.53c-0.02,273.74 -36.56,181.18 211.94,202.03 -32.1,-25.37 -138.41,-14.14 -198.94,-15.62 -8.85,-66.72 9.6,-156.86 -13.81,-188.02l-188.83 -6.29 0.29 -397.94 191.19 3.51c-11.16,50.18 -13.81,152.62 2.38,201.83 36.72,4.83 69.06,3.27 105.98,3.57 13.88,0.11 37.05,1.41 49.65,0.68 37.95,-2.14 36.05,-3.95 46.09,-13.31 22.18,-39.85 7.1,-140.64 8.43,-196.29l396.89 0.38 0.73 196.58c-58.89,0.99 -150.93,-10.04 -202.98,7.19 -7.59,43.27 -11.21,163.72 3.84,201.1 61.45,15.82 133.34,3.27 197.28,8.01l1.35 179.5 -178.71 3.35c-21.43,6.07 -15.67,4.7 -24.98,11.69l204.37 -2.93 0.49 200.88 -203.42 -2.69c2.36,1.63 6.22,0.46 7.74,3.84 5.54,12.2 80.65,9 93.51,8.89 37.73,-0.31 69.79,1.48 107.21,-3.88 20.65,-62.8 2.12,-138.59 10.02,-203.84l180.21 -2.34 0.51 408.38c67.06,10.46 556.2,11.63 610.34,-1.35 3.44,-8.54 29.39,-194.28 -13.86,-204.19 -64.45,-14.78 -303.73,8.61 -380.01,-8.63l-1.39 -201.56 -203.4 -6.8 -1.32 -382.61 598.94 0.09 -3.62 186.27 -161.36 3.44c-45.92,0.4 -12.11,-2.38 -22.51,11.52 -23.96,4.48 -7.77,-5.65 -11.54,31.88 -4.02,39.85 -5.76,133.54 9.91,151.41 9.75,15.11 -25.82,12.75 24.14,12.29l363.37 0.09 1.46 202.14c24.56,7.99 181.51,18.91 212,-4.9l-199.93 -2.25 -5.41 -205.71 -395.63 -1.65 1.63 -183.29c60.17,-0.31 139.28,12.47 194.53,-9.64l-7.04 -191.59c-1.9,-1.48 -4.9,-2.76 -6.4,-3.31 -1.52,-0.55 -4.74,-2.38 -6.73,-2.98 -2.07,-0.64 -4.9,-1.81 -7.35,-2.38 -2.63,-0.62 -5.23,-1.15 -8.14,-1.61l-572.94 2.01c-33.32,123.85 19.55,281.07 -12.67,396.47l-182.99 0c0.35,-281.02 26.85,-174.84 -203.77,-200.99l-0.13 -187.97 199.45 -2.8c16,-49.38 12.16,-160.46 2.67,-217.3l-415.35 3.84 2.56 204.26 -196.11 1.52 -7.99 -194.31c-4.68,-6.27 2.87,-12.95 -47.04,-16.62l-145.23 0.44 -3.44 -604.85 -209.88 3.31 1.61 613.37c50.62,-1.9 136.41,0.53 202.51,0.64l-0.15 399.18 -397.02 -0.11 -2.78 -194.08c-44.86,-14.28 -149.73,-8.08 -200.26,-4.77l3.16 -199.42 155.29 -0.53c39.54,-4.72 33.34,0.33 41.95,-29.83 2.98,-10.44 2.63,-13.88 3.24,-24.87 7.66,-139.1 1.83,-141.75 -29.66,-149.6l-74.58 -2.16c-159.18,0.46 -88.88,-0.2 -109.2,194.26l-187.97 -0.95 0.09 -593.62 190.05 0.46c0.2,37.03 0.51,74.09 0.09,111.12 -0.13,12.69 -1.19,37.73 -0.18,49.14l10.72 37.25 46.67 10.68c14.25,0.66 34.58,-0.49 49.73,-0.46 78.86,0.18 86.56,8.3 93.38,-13.04 15.38,-17.87 10.41,-59.77 10.13,-93.42l0.11 -298.39 208.49 -2.32 -3.31 -418.91 -604.19 -1.63c7.41,-55.49 10.68,-137.07 -6.49,-189.03 85.26,17.56 307.68,4.68 409.26,4.68 80.43,0 336.78,-10.33 396.27,6.53 -9.05,-30.43 -117.47,-17.06 -181.42,-17.06l-619.39 0 0.71 -194.92c76.9,-0.68 346.73,11.39 397.35,-8.83l3.44 -169.95c-2.25,-47.02 1.99,-11.63 -16.22,-26.52l3.04 192.47 -392.85 -4.46c-37.14,4.72 -71.16,4.02 -108.65,3.46l-76.26 2.49c-26.19,6.8 -5.07,-3.29 -21.87,10.02l198.76 2.32c0.38,60.33 -0.22,161.12 1.65,194.99l1.92 123.5c-0.31,9.66 -1.63,31.09 -0.71,39.41 4.74,42.85 -3.49,19.24 11.43,30.89 2.85,22.44 16,13.28 50.02,13.97l544.54 -1.28 0.07 399.82 -194.68 0.02 -1.21 -194.24c-44.02,-18.42 -162.29,-16.26 -207.17,-2.01l-3.95 199.98c62.42,18.27 134.6,5.87 198.26,8.85l2.89 389.56 -189.78 2.82 0.31 -204.04c-52.07,-15.2 -154.46,-16.31 -206.68,0.44 24.21,-63.44 16.86,-330.65 4.19,-402.95l-209.91 -2.01 -400.68 3.16c-12.84,57.48 -16.97,152.03 1.9,204.1 54.1,14.67 135.52,11.08 194.08,3.27l-2.32 187.55c-61.72,1.88 -135.81,-8.63 -191.99,7.83 -17.92,51.81 -13.9,143.29 -4.9,201.63l-194.77 -1.08 1.59 -194.37c57.61,7.68 144.11,11.47 198.08,-6.18 16.81,-50.37 21.34,-154.32 -3.2,-202.58zm814.73 -191.11l188.26 3.18 0.11 188.17 -188.97 -0.57 0.6 -190.77zm-1818.17 -612.42l188.94 0.13 0.53 197 -190.51 -0.07 1.04 -197.06zm-206.71 1.01l194.48 0.77 0.51 194.57 -197.73 -0.22 2.74 -195.12z"/>
   <path class="fil3" d="M10491.45 7197.44c18.95,20.06 14.41,-39.3 16.81,35.39l-2.74 365.16 390.99 1.06 1.61 -191.39 -172.15 -2.54c-25.42,-5.91 -5.69,3.4 -17.81,-9.36 -12.07,-11.56 -10.37,25.02 -10.22,-26.15l0.38 -571.75c46.71,-20.72 148.08,-14.34 199.03,-7.81l-1.59 -395.78 -193.86 5.45 -0.88 193.91 -201.87 -2.12 -2.41 -196.75 -198.67 2.14 2.36 197.31 196.45 0.66 -0.62 200.29 -197.79 2.85 -1.46 202.25 -200.4 5.14c-4.04,89.58 -23.48,180.87 25.02,193.14l369.81 -1.08z"/>
   <path class="fil2" d="M2813.24 9626.17c-1.99,1.13 -5.21,0.13 -6.29,2.67l-190.6 5.78 3.55 201.28 194.31 -3.04 3.84 198.48 -208.36 -0.22 3 -186.36c-81.71,-17.25 -166.88,5.45 -196.4,-15.73 -1.37,-1.72 -3.02,-6.93 -3.33,-5.71l-7.1 -188.88 -187.05 0.09 -0.2 598.07 1000.01 -3.18 -2.89 -187.51 -176.41 -3.11c-21.25,-5.47 -15.42,-5.45 -22.11,-10.57 -22.93,-58.27 -6.66,-491.39 -5.85,-594.9l-186.76 -0.22 0.99 145.43c-0.38,9.47 -0.51,17.89 -2.76,27.1 -5.21,21.34 -2.98,11.96 -9.6,20.54z"/>
   <path class="fil2" d="M10897.36 6790.05c-1.68,1.19 -4.39,0.86 -5.3,3.2l-79.57 5.8c-34.42,-0.29 -68.82,-2.07 -102.34,3.53l-1.99 593.18 198.43 1.96 3.02 202.47 192.01 0.22 2.45 -199.27 204.1 -10.35 0 -178.57c-110.68,-22.29 -303.62,14.92 -408.29,-11.1l2.82 -200.68c67.19,-16.62 314.91,-6.09 403,-6.07l0.18 -195.14 -194.68 -2.38c-16.57,-42.39 -15.11,-159.42 -1.04,-205.74l200.09 -8.47 -1.48 -186.49 -397.33 -1.48 -3.93 377.67c-6.71,26.63 3.77,5.8 -10.17,17.72z"/>
   <path class="fil2" d="M10896.59 9019.71c5.89,3.64 16.77,-41.99 15.2,98.79 -0.38,32.61 -3,69.44 5.45,97.75l178.42 0c8.23,-52.69 -0.4,-107.48 1.59,-147.26 2.52,-49.87 10.64,-43.2 19.75,-50.88l190.58 1.68 2.85 -196.58 -188.55 -3.68c-18.69,-27.85 -8.12,7.44 -13.64,-42.85l3.11 -357.01c-115.11,-21.91 -278.17,5.69 -396.62,-7.77 -18.69,-14.7 -14.74,19.92 -15.8,-26.17l-1.59 -167.74 -202.73 2.96 4.63 397.7 202.34 2.49 1.94 398.08 193.07 0.51z"/>
   <path class="fil3" d="M3438.94 10440.11c-7.28,35.48 -5.67,68.27 -5.27,104.83 0.13,12.38 2.12,50.31 1.08,59.55 -6.62,58.34 1.15,28.97 -18.03,37.07 -43.45,19.51 -138.24,5.47 -194.22,6.16l0.9 190.44c98.23,0.84 196.8,-17.52 208.91,29.35 2.05,7.9 2.23,19.99 2.47,28.42l-5.01 135.97c-0.57,2.07 -3.53,8.69 -4.04,7.35 -0.49,-1.37 -2.91,4.79 -4.57,11.74l-198.32 0.68 0.44 189.34 601.16 0.49 -3.11 -394.92 -197.84 -1.08 1.21 -203.29 197.46 -0.29 -0.84 204.54 207.59 0.18 -1.54 -204.63 -205.14 -0.09 -2.43 -202.69 -380.89 0.88z"/>
   <polygon class="fil2" points="8885.05,3155.16 9281.96,3155.27 9286.74,3561.62 9490.93,3561.35 9492.3,3355.84 9689.03,3354.8 9690.09,2750.15 9493.74,2749.05 9490.47,2947.66 9088.47,2949.58 9083.46,2750.53 8887.81,2748.87 "/>
   <path class="fil2" d="M10299.47 3154.14c-9.95,48.59 -10.02,562.15 0.84,604.87l599.51 -0.73 -4.21 -605.22 -596.13 1.08z"/>
   <path class="fil3" d="M11099.33 9832.59l-183.07 -0.02c-20.85,-18.58 -5.05,6.55 -13.81,-21.29 -1.81,-5.76 -2.58,-21.2 -2.82,-27.76l1.15 -147.22c0,-69.02 0,-138.06 0,-207.63l-600.35 0.15 3.44 398.45 199.4 4.1 1.15 197.37 600.94 -0.84 -6.02 -195.32z"/>
   <polygon class="fil2" points="1807.02,3754.07 2405.16,3754.27 2402.71,3159.31 1807.88,3158.09 "/>
   <polygon class="fil2" points="1812.32,12248.1 2402.45,12247.24 2402.54,11655.72 1806.91,11655.83 "/>
   <path class="fil3" d="M5447.66 11049.02l-0.15 194.55 150.93 -1.06c59.86,1.88 36.8,8.85 40.62,12.49 14.28,10.19 12.2,-20.5 14.45,41.13 10.26,278.31 -10,657.32 0.13,957.69l188.55 0.31 0.46 -146.95c2.05,-71.65 12.84,-49.01 200.46,-52.36l0.64 -195.85c-35.06,-0.04 -69.92,-0.55 -104.74,-0.29 -13.83,0.09 -37.03,1.54 -49.58,0.75 -57.63,-3.64 -17.52,3.75 -33.12,-10.28 -3.46,-3.04 -11.74,15.45 -13.64,-42.83 -0.6,-17.81 0.84,-41 0.88,-59.64l0.02 -895.58 -191.24 0c0,242.41 45.52,198.1 -204.68,197.92z"/>
   <path class="fil3" d="M4432.73 3758.46l-192.96 1.79c-27.18,-9.16 -13.13,-125.55 -15.69,-191.81 -32.52,-0.24 -570.49,13.79 -596,-12.82 -19.92,-24.43 -8.12,-331.18 -11.21,-392.43l-186.69 0.31 -1.08 595.27 599.62 0.24c21.09,60.92 4.35,317.14 8.58,402.42l185.9 0.42c2.87,-34.86 2.38,-69.62 1.92,-104.5 -0.18,-13.31 -1.5,-37.86 -0.79,-49.76 2.23,-37.47 -3,-46.58 44.42,-51.21l163.99 0.13 0 -198.06z"/>
   <path class="fil3" d="M9896.98 7606.6l200.04 2.52 -1.79 197.59 -202.27 0.46 4.02 -200.57zm-205.69 407.26l606.79 -0.13 -4.5 -611.78 -603.13 1.65 0.84 610.25z"/>
   <path class="fil3" d="M9894.99 11247.91l202.32 3.66 -1.57 200.2 -202.78 0.44 2.03 -204.3zm-204.37 405.4l607.52 -0.13 -3.27 -607.67 -604.47 1.5 0.22 606.31z"/>
   <path class="fil3" d="M6255.06 4170.53c-13.64,-46.38 -10.3,-160.68 -2.87,-213.88l203.15 3.86c6.6,52.14 10.35,160.94 -2.74,211.52l-197.55 -1.5zm-206.29 195.12l46.58 3.33 527.4 -0.6 35.97 -1.61 1.74 -601.45 -611.78 -3.04 0.09 603.37z"/>
   <path class="fil3" d="M2609.97 7605.71c51.43,-6.27 161.01,-10.41 210.44,3l-1.54 196.51c-49.54,15.45 -156.11,10.22 -213.99,3.49l5.1 -203zm-197.33 408.43l604.25 -3.04 -2.41 -608.89 -603.26 -0.11 1.41 612.04z"/>
   <path class="fil3" d="M6254.93 11248.49l199.12 3.11 -1.32 200.42 -199.12 -1.79 1.32 -201.74zm-195.14 394.15l593.11 0.2 0.46 -591.32 -595.45 1.1 1.88 590.02z"/>
   <path class="fil3" d="M4234.19 11858.26c13.39,-15.09 -10.24,-2.96 17.06,-9.25l180.89 -1.39 -1.85 -179.12c-63.3,-7.19 -138.24,7.81 -200.24,-9.47 -17.54,-46.76 -7.02,-332.15 -7.24,-404.17l-395.23 0.04 0.13 593.18 201.5 2.05c29.57,56.77 5.23,142.47 15.29,203.51l178.55 0.35c-0.15,-37.33 0.15,-74.67 -0.2,-112 -0.62,-68.98 -8.87,-75.57 11.34,-83.74z"/>
   <path class="fil2" d="M3204.65 3357.8c24.73,9.31 15.75,50.93 15.22,83.89l-0.46 317.52 199.53 -0.11 -0.29 -596.66 -205.18 -1.35c-9.62,-54.85 -12.93,-165.55 3.49,-214.69l200.88 -3.13 -3.75 -194.2 -394.9 0.04 -2.32 605.18 187.77 3.51z"/>
   <polygon class="fil3" points="3213.61,8814.29 3211.09,8618.32 3417.89,8613.78 3420.82,8214.03 3817.11,8208.44 3817.22,8018.04 3222.63,8020.14 3222.37,8418.28 3022.72,8419.17 3021.53,8814.73 "/>
   <path class="fil2" d="M2198.72 4568.78c23.54,18.31 9.16,-15 17.63,35.61l-0.62 366.72 192.14 0.26 2.49 -194.04c47.82,-15.67 139.89,-7.08 195.14,-6.6l-0.55 -198.96 -152.85 0.88c-41.57,-4.46 -27.54,9.31 -33.34,-12.27 -17.37,-17.3 -0.09,16.06 -8.61,-17.54 -2.6,-10.22 -2.41,-14.54 -2.89,-25.15 -0.64,-13.28 0.6,-35.26 0.75,-49.58 0.38,-34.27 0.22,-68.47 -0.64,-102.71l-602.05 3.09 -0.04 198.67 393.42 1.61z"/>
   <path class="fil2" d="M1401.13 9622.31c52.34,5.25 149.89,10.33 197.48,-5.49l-0.62 -379.65c2.05,-2.38 5.87,-8.08 7.59,-5.58 1.68,2.45 5.49,-4.04 7.9,-4.77 41.17,-12.58 364.71,-4.52 390.49,-0.42l5.43 194.17 203.09 3.04 -5.91 -194.83 -202.62 1.9 -4.48 -206.26 -596.53 2.1 -1.81 595.8z"/>
   <path class="fil3" d="M3220.25 6992.59c63.59,0.71 150.59,-11.08 205.25,8.91l4.06 193.31 187.97 0.49 0.24 -593.24 -394.94 0.35 -2.58 390.18z"/>
   <path class="fil5" d="M3021.57 9429.7l398.47 0.04 -1.01 193.75 -207.74 3.16 -0.73 401.3 -189.25 0.26 0.26 -598.52zm405.4 -199.95l192.63 0.18 0.02 192.47 -192.47 -0.53 -0.18 -192.12zm-810.83 2.18l191.55 2.69 -0.09 182.19 -191.26 -0.02 -0.2 -184.86zm597.46 -417.65l-192.08 0.44 1.19 -395.56 199.65 -0.88 0.26 -398.14 594.59 -2.1 -0.11 190.4 -396.29 5.58 -2.93 399.75 -206.79 4.55 2.52 195.96zm-404.28 -194.35l4.06 195.19 -202.49 0.33c14.76,7.63 -13.75,1.15 26.94,9.51l170.14 2.29 -3.8 188.08 -585.87 -0.86 1.28 -187.55 164.63 -0.22c50.77,-3.44 14.32,1.88 27.43,-16.9l-200.26 7.1 -4.55 203.55c62.33,12.05 567.18,13.11 613.01,-2.6l1.04 -195.85 192.8 0.64 0.42 599.47 -193.2 0.22 -0.64 -193.03c-48.43,-17.34 -159.88,-11.72 -212.53,-4.41 -6.58,55.27 -13.02,151.01 4.17,201.74l201.72 2.45 -0.4 197.09 -204.63 -2.14c-6.2,41.02 -3.93,71.6 -4.21,109.99 -0.35,46.8 -9.07,69.46 15.51,101.87l-3.55 -201.28 190.6 -5.78c1.08,-2.54 4.3,-1.54 6.29,-2.67 6.62,-8.58 4.39,0.79 9.6,-20.54 2.25,-9.2 2.38,-17.63 2.76,-27.1l-0.99 -145.43 186.76 0.22c-0.82,103.51 -17.08,536.62 5.85,594.9 6.69,5.12 0.86,5.1 22.11,10.57l176.41 3.11c37.14,-9 67.52,-6.55 106.09,-6.13l76.63 -1.41c19.97,-3.99 13.86,-3.71 20.08,-7.88 19.46,-32.41 -0.49,-122.24 14.06,-195.52 -19.44,15.53 -4.72,-5.16 -14.5,21.49l-3.46 76.94c0.35,34.66 -1.04,62.86 3.91,97.09l-197.2 -1.94 0.22 -389.91c37.11,-0.38 181.77,9.51 200.13,-6.75 7.44,-6.6 5.45,-2.05 9.49,-20.15 0.15,-0.68 1.15,-26.39 1.19,-28.95l-0.97 -145.87 185.48 0.31 -4.88 402.34c24.58,-31.11 16.7,-45.26 16,-91.7l-0.29 -312.84 197.04 -1.99c-40.64,-26.26 -122.31,-3.62 -190.11,-14.7l-3.84 -195.32c-65.11,-5.27 -150.04,-10.99 -215.11,4.26l-0.68 193.82 -386.27 -1.17 0.02 -586.95c61.52,-8.19 127.78,6.2 172.04,-7.06 1.72,-0.53 5.43,-0.66 6.62,-3.6 1.15,-2.89 4.35,-2.41 6.2,-4.02 6.33,-11.25 1.17,12.38 6.69,-19.97 2.36,-13.92 0.71,-1.81 1.65,-17.19l-0.9 -151.98 194.44 1.17 -1.13 150.95c1.17,14.81 1.65,13.97 4.59,27.07l6.35 15.56c2.47,0.97 5.69,1.92 7.61,2.32l189.38 -7.28 -197 4.96c4.32,-65.25 -7.48,-136.34 7.99,-199.45l-0.51 -399.25 389.18 -0.11c35.97,-5.85 68.82,-4.44 105.38,-4.04 14.76,0.15 35.88,1.32 49.78,0.73 87.58,-3.73 47.09,-34.51 58.34,-205.01 -26.46,31.22 -14.59,150.66 -14.34,190l-193.18 -2.69c-10.92,-162.95 24.58,-182.66 -37.91,-189.47 -8.58,-0.93 -28.38,-0.35 -37.93,-0.31l-234.99 0.33c-347.22,0 -306.97,-25.99 -305.93,101.41l-0.13 297.08 -182.85 6.27c-12.95,-26.28 -17.01,94.13 -16.99,97.26l-2.03 296.73 -183.96 -0.53 -0.51 -159.35c-2.54,-55.05 1.68,-14.63 -15.38,-29.57zm1214.57 1211.66c23.98,-12.62 15.25,-162.42 15.89,-203.42 -14.23,-62.27 -6.55,-134.49 -6,-199.23l166.94 -0.35c48.98,-1.52 11.61,2.74 27.27,-16.97l-205.32 11.96 -4.46 193.22 -193.75 0c8.5,25.77 64.98,15.03 92.94,14.7 36.28,-0.4 72.48,-0.35 108.71,0.93l-2.23 199.16c-64.89,-10.5 -137.27,-3.88 -204.04,-3.88l-146.95 -1.01c-46.49,2.74 -22.79,-5.91 -52.98,16.26 93.75,-14.47 346.4,13.86 403.97,-11.36zm-1607.62 -2.58l-1.7 -202.01 -204.41 -2.89 -3.18 616.19c61.23,11.78 771.24,8.65 949.15,5.98 47.26,-0.71 32.79,6.49 62.47,-16.88l-1000.01 3.18 0.2 -598.07 187.05 -0.09 7.1 188.88c0.31,-1.21 1.96,3.99 3.33,5.71 29.52,21.18 114.69,-1.52 196.4,15.73 -16.48,-16.13 8.52,-12.62 -33.12,-17.03l-163.28 1.3zm794.98 605.49l-192.5 3 0.93 9.33c70.12,-10.37 164.54,6.93 191.57,-12.33 15.2,-18.78 10.59,-59.11 10.24,-84.8 -0.55,-40.89 -0.95,-71.73 5.3,-112.25 -25.13,32.52 -10.39,-7.13 -16.66,43.29 -0.9,7.24 0.24,39.63 0.38,49.21 0.51,34.88 -0.09,69.7 0.75,104.54z"/>
   <path class="fil3" d="M9084.14 4765.69c53.77,13.44 747.32,13.72 808.55,1.26l-2.56 -199.51 -805.07 1.79 -0.93 196.47z"/>
   <path class="fil2" d="M6043.28 5389.49c10.55,12.6 2.01,-7.68 8.23,18.91l1.83 169.13 203.75 -3.31 -1.28 -393.93c-248.5,-20.85 -211.96,71.71 -211.94,-202.03l-190.75 0.53 0.07 399c41.61,0.4 168.58,-8.34 190.09,11.69z"/>
   <path class="fil2" d="M10705.6 4564.94l146.91 -2.18c54.15,1.68 41.46,8.76 45.12,13.5 16.59,26.01 9,152.89 9.66,196.4l198.19 0.07 1.06 -204.15 202.71 -8.41 -1.57 -184.62 -600.7 -3.64 -1.39 193.03z"/>
   <path class="fil2" d="M8480.2 3549.53c71.71,6.4 162.42,-9.33 197.84,15.4 12.51,31.66 7.68,157.57 6.38,191.5l394.61 1.06 -0.02 -187.09 -152.27 0.66c-4.26,-0.31 -15.36,-1.28 -18.16,-1.9 -20.06,-4.41 -14.47,-5.23 -20.81,-9.66l-8.43 -198.65c-84.31,-1.77 -334.31,-10.02 -402.03,6.95l2.89 181.73z"/>
   <polygon class="fil3" points="3021.31,10028.22 3210.56,10027.95 3211.29,9626.66 3419.03,9623.5 3420.05,9429.75 3021.57,9429.7 "/>
   <polygon class="fil3" points="3220.09,4555.81 3414.02,4558.92 3417.58,3770.97 3220.8,3770.18 "/>
   <path class="fil2" d="M6862.27 5577.44l597.28 -2.56 2.8 -188.33c-71.03,1.81 -353.9,8.85 -406.55,-6.22l-1.24 -202.43 -192.28 -0.15 -0.02 399.69z"/>
   <path class="fil2" d="M3418.53 10026.48c-4.94,-34.22 -3.55,-62.42 -3.91,-97.09l3.46 -76.94c9.77,-26.65 -4.94,-5.96 14.5,-21.49l179.41 4.59 4.88 -402.34 -185.48 -0.31 0.97 145.87c-0.04,2.56 -1.04,28.27 -1.19,28.95 -4.04,18.09 -2.05,13.55 -9.49,20.15 -18.36,16.26 -163.02,6.38 -200.13,6.75l-0.22 389.91 197.2 1.94z"/>
   <path class="fil2" d="M10916.25 9832.57l183.07 0.02c24.36,16.9 5.01,-8.36 15.71,19.77l2.93 171.78 186.67 0.29 -0.53 -390.31c-66.5,0.62 -149.98,-1.59 -205.07,-0.53l-0.66 -200.37 -186.87 0.51 4.74 398.85z"/>
   <path class="fil5" d="M2010.46 8221.51l71.03 -0.38 68.67 0.09 50.09 1.15 -0.29 185.37 -50.11 2.23 -58.6 -0.33 -81.69 -0.57 0.9 -187.55zm606.48 -1420.64l190.69 2.58 0.77 186.52 -191.9 -1.39 0.44 -187.71zm-397.55 0.68l186.54 -0.6 -1.43 188.39 -185.26 -0.11 0.15 -187.69zm588.65 -1013.74l6.13 196.67 -398.61 0.6 -0.9 -200.33 -196.36 -1.63c2.01,1.28 5.1,0.73 6.24,3.42 4.5,10.66 167.52,6.27 181.49,6.22l-0.2 188.5 -149.42 -1.54c-54.1,3.27 -30.78,-4.08 -45.06,21.03 48.92,-16.75 148.15,-13.9 199.8,-3.55l396.42 2.87 0.42 187.64 4.92 204.9 -208.38 0.26 5.49 205.62 205.25 -2.03 -2.21 194.04 -204.72 3.62c-7.79,52.93 -14.54,161.52 5.16,208.34 255.43,15.53 207.04,26.72 207.39,-204.37l193.2 0.13 -0.86 398.96 -798.32 -0.31 -0.22 -192.74 193.4 -1.54c15.98,-46.71 10.33,-156.46 4.3,-210.94l-205.67 -0.2 -0.62 204.65 -198.67 1.1 16.28 6.91c52.91,11.23 119.13,-4.77 176.17,6.69l0.11 179.79 -450.59 2.47c-26.13,0 -52.21,-0.07 -78.33,-0.24 -19.44,-0.11 -71.56,-2.87 -73.74,15.75 -1.61,13.64 -9.18,-13.28 -8.21,82.88 0.38,38.24 -11.05,293.33 12.62,314.12 2.1,1.21 5.32,0.55 6.51,3.29l189.78 5.63c3.82,81.75 9.77,330.87 -4.66,400.06 21.93,-11.89 12.16,7.3 16.81,-38.44 0.77,-7.61 -0.9,-39.3 -1.04,-49.54 -1.15,-83.67 5.3,-258.21 -3.77,-320.41l-203.64 -3.68 0.73 -400.44 603.46 3.31 2.41 398.61 -204.35 -0.93c-13.31,65.4 -8.94,338.83 -3.29,413.1l203.55 1.43 2.63 190.25 -203.07 1.65 -5.43 206.38c57.99,5.94 165.2,12.22 215.44,-4.92l1.3 -193.67 597.66 -0.13 -3.18 196.84c8.41,-6.82 14.08,4.92 16.11,-47l-4.21 -155.63c-66.48,-23.12 -495.19,-8.45 -600.26,-9.22 -4.7,-32.19 -3.18,-66.7 -2.67,-99.78 1.68,-111.85 3.29,-78.66 -14.32,-84.77 -39.21,-22.77 -141.7,-7.06 -194.55,-6.73l1.5 -396.66c40.67,0.84 170.59,8.89 197.13,-10.22l11.05 -47.9c2.07,-84.27 -9.22,-286.03 2.65,-343.66l800.24 -5.38c12.44,-61.56 11.8,-353.62 1.24,-421.86l-197.75 -1.28 -7.17 -180.85c-0.31,-3.66 -2.1,-4.44 -3.33,-6.55 -3.29,-2.01 -4.08,-5.36 -21.29,-8.76 -6.66,-1.32 -20.92,-1.61 -28.16,-1.79l-149.03 0.11 -0.86 -187.16 196.98 -6.27c12.09,-12.07 4.37,6.22 10.83,-20.19l3.44 -184.84c-14.94,-60.08 -7.48,-132.15 -5.85,-195.89l195.81 7.15c-6.91,-10.41 5.05,-16.37 -46.14,-19l-146.36 1.83 2.12 -193.89 -6.8 -176.79c-0.33,-50.35 3.49,-11.56 -15.75,-28.2l3.82 205.03z"/>
   <polygon class="fil2" points="6665.67,12464.85 6859.89,12464.76 6858.68,12260.72 6454.22,12261.92 6456.16,12665.8 6659.52,12662.97 "/>
   <polygon class="fil2" points="8477.13,2948.89 8274.37,2950.17 8274.48,3154.85 8676.69,3155.29 8678.14,2754.12 8479.98,2748.81 "/>
   <polygon class="fil3" points="5844.7,10841.36 6449.39,10841.36 6443.87,10640.61 5851.07,10642.12 "/>
   <polygon class="fil2" points="5041.9,5578.46 5240.49,5580.42 5241.74,4979.79 5042.72,4974.93 "/>
   <path class="fil3" d="M4017.17 4368.25l6.93 -192.43 -174.95 -1.35c-49.65,-3.53 -12.16,1.88 -26.74,-17.48l-1.1 -195.89 -195.08 0.53 -3.33 405.73 394.28 0.88z"/>
   <path class="fil5" d="M8887.76 3559.5l0.99 -205.07c-16.46,-2.96 -358.96,-13.53 -390.16,-2.21 -27.45,9.95 -4.3,-5.76 -21.29,15.58 67.72,-16.97 317.72,-8.72 402.03,-6.95l8.43 198.65c6.33,4.44 0.75,5.25 20.81,9.66 2.8,0.62 13.9,1.59 18.16,1.9l152.27 -0.66 0.02 187.09 -394.61 -1.06c1.3,-33.94 6.13,-159.84 -6.38,-191.5 -35.41,-24.73 -126.12,-9 -197.84,-15.4 10.59,25.26 -7.74,12.91 36.52,17.74 6.58,0.71 39.96,-0.93 49.43,-1.04 37.73,-0.49 74.27,0.51 111.89,-1.3l-5.45 193.82c-230.14,12.11 -530.62,-7.55 -751.69,0.4 -48.45,1.74 -28.6,-5.74 -45.45,14.98l791.08 -0.18 -0.26 176.17 -195.96 0.38 -1.85 204.79 -194.86 5.14 -199.53 8.72 1.88 -204.28 202.03 1.99c-13.08,-19.22 35.46,-17.39 -102.38,-16.79 -43.07,0.18 -67.23,-2.91 -109.71,7.08 -6.13,37.16 -16.31,178.2 8.19,212 41.64,17.32 139.47,8.5 199.8,7.33l205.96 -5.85 1.43 -206.02 191.55 0.66 0.26 406.73 209.42 1.39c0.86,33.47 -8.96,367.45 9.29,394.83 7.08,15.71 69.92,10.75 84.6,10.61 34.16,-0.33 68.78,-1.54 102.49,2.69 -0.6,71.49 -14.98,352.18 14.74,394.88l-3.95 -392.6 802.91 0.68c51.96,-10.66 153.64,-12.38 204.98,0.64l199.07 -0.22c-34.86,-26.17 -109.18,-7.28 -194.11,-14.96l-0.53 -198.76c-17.76,28.77 -12.11,56.91 -11.78,92.1 0.33,34.49 0.31,69.04 -0.44,103.51l-197.04 0.18c-61.23,12.47 -754.78,12.18 -808.55,-1.26l-192.39 2.52c10.81,-64.28 12.47,-340.05 -3,-398.03l-203.46 -6.16 -0.11 -395.12 194.44 -1.17c0.35,100.57 -17.78,127.62 14.06,201.94 3.09,7.24 166.66,20.5 188.02,-7.44l5.38 -11.28c2.14,-10.61 2.63,-12.42 3.22,-24.23l-0.57 -157.15c0,-70.08 -1.28,-140.33 1.08,-210.37 -24.62,44.4 -18.42,338.9 -9.11,403.02l-194.57 3.09 1.46 -204.76 -205.1 -4.85 -2.85 -188.86 404.06 -0.53c13.39,-54.04 12.44,-154.26 -0.82,-206.26l-196.11 -0.55zm-216.52 1223.14c-13.5,-25.73 -144.88,-10.53 -173.39,-10.53 -65.09,0 -130.21,0.13 -195.32,-0.18 -50.99,1.46 -11.65,-2.47 -28.09,15.82l396.8 -5.12c-10.55,62.66 -17.01,346.64 7.06,393.8l400.02 3.71 1.06 372.22c1.39,43.23 -1.79,12.14 11.89,21.67 2.91,21.89 30.12,13.06 60.41,12.64 29.5,-0.4 58.89,-0.38 88.39,-0.38 53.46,-0.35 29.26,3.4 43.82,-14.34l-192.63 2.07c-1.61,-91.42 12.27,-328.9 -6.69,-400.39l-401.92 -4.92c-4.63,-61.52 -1.74,-130.65 -1.74,-192.78l-0.84 -174.69c-5.01,-23.7 0.97,-8.03 -8.85,-18.6z"/>
   <polygon class="fil3" points="3219.83,7802.71 3417.71,7802.03 3415.39,7208.78 3380.38,7208.54 3263.19,7208.5 3220.32,7208.78 "/>
   <path class="fil3" d="M5652.66 4555.81l91 3.07c32.06,-0.13 64.14,-0.22 96.18,-0.11l3.8 -592.25 -190.64 -0.04 -0.33 589.34z"/>
   <path class="fil3" d="M3211.56 6398.38l-191.57 -4.02 -3.62 191.7 189.41 2.23c2.45,-64.65 -9.13,-140.09 8.87,-195.36 92.67,-26.43 291.61,-0.51 402.07,-8.34l-0.44 -188.68 -393.84 0c5.63,57.37 15.05,152.56 -10.88,202.47z"/>
   <polygon class="fil2" points="10303.9,9417.04 10895.33,9416.4 10894.98,9232.15 10303.75,9231.96 "/>
   <path class="fil5" d="M10916.25 9832.57l-4.74 -398.85 186.87 -0.51 0.66 200.37c55.1,-1.06 138.57,1.15 205.07,0.53l0.53 390.31 -186.67 -0.29 -2.93 -171.78c-10.7,-28.13 8.65,-2.87 -15.71,-19.77l6.02 195.32 -600.94 0.84 -1.15 -197.37 -199.4 -4.1 -3.44 -398.45 600.35 -0.15c0,69.57 0,138.61 0,207.63l-1.15 147.22c0.24,6.55 1.01,22 2.82,27.76 8.76,27.85 -7.04,2.71 13.81,21.29zm201.12 -598.94l187.44 -1.96 -0.53 185.32 -186.72 -0.11 -0.2 -183.25zm-209.84 -4.04l197.17 2.21 -0.15 190.07 -196.84 0.79 -0.18 -193.07zm-603.79 2.36l591.23 0.2 0.35 184.24 -591.43 0.64 -0.15 -185.08zm-412.66 3.07l198.96 -2.98 1.32 193.47c58.16,18.01 136.87,6.47 195.83,8.21 1.48,91.59 -13.19,326.48 7.72,397.99l198.1 6.88 0.35 192.36c72.7,33.03 487.09,-1.08 604.8,12.07l0.44 365.13c-0.6,71.82 -3.13,12.93 16.26,31.27l188.94 3.6 1.1 193.42c-56.05,0.15 -144.37,-12.05 -188.74,5.89 -18.09,8.23 -19.46,-38.42 -17.7,88.22l1.48 307.32 -187.18 -4.1 -2.54 -165.75c-6.09,-23.61 -1.74,-10.77 -10.83,-19.81 -30.19,-17.48 -128.57,-3.51 -199.03,-12.44 27.38,33.43 153.15,18.82 199.03,12.44l3.11 197.5 173.59 2.12c47.66,-0.31 12.09,1.65 23.85,-9.95 20.26,-4.66 9.49,18.69 13.83,-32.72 5.78,-68.05 -9.55,-262.11 2.38,-362.82l195.25 4.85 2.74 -210.04 -199.29 2.27 -1.96 -402.73 194.92 -1.57c15.05,-54.06 11.83,-346.93 2.6,-408.95l-195.87 -2.23 -1.99 -194.37 194.44 -1.54c17.21,-53.86 10.5,-146.87 4.55,-204.01l-195.63 -3.6 1.06 -202.32c-9.11,7.68 -17.23,1.01 -19.75,50.88 -1.99,39.78 6.64,94.57 -1.59,147.26l-178.42 0c-8.45,-28.31 -5.83,-65.14 -5.45,-97.75 1.57,-140.78 -9.31,-95.14 -15.2,-98.79l4.13 200.81 -604.08 0.79 -3.02 201.04 -191.75 -0.75 -0.33 -195.54 -187.4 -3.64c-24.21,6.64 -10.08,0.82 -23.06,12.6zm804.45 1811.08l13.46 -149.89c-2.14,-46.47 6.77,-26.65 -17.72,-52.47l4.26 202.36z"/>
   <path class="fil4" d="M10301.34 5791.01l397.64 0.31 -1.41 192.56 -395.72 -0.04 -0.51 -192.83zm-199.16 203.68l-6.88 11.19c-2.98,11.54 -3.27,10.83 -4.15,24.34l-0.26 365.66c20.81,-24.05 13.61,-61.83 13.35,-100.99l-2.05 -300.2 189.76 -0.07 2.1 195.19c55.34,12.2 545.98,13.33 601.3,2.41l0.44 202.05 1.59 395.78c-50.95,-6.53 -152.32,-12.91 -199.03,7.81l-0.38 571.75c-0.15,51.17 -1.85,14.59 10.22,26.15 12.11,12.75 -7.61,3.44 17.81,9.36l172.15 2.54 -1.61 191.39 -390.99 -1.06 2.74 -365.16c-2.41,-74.69 2.14,-15.34 -16.81,-35.39l3.07 318.82c-0.64,75.68 -8.14,77.27 11.01,81.73 10.94,15.8 -28.35,12.6 23.68,13.79l369.88 0.71 0.15 190.66 -370.03 0.15c-46.8,1.1 -14.47,-2.21 -22.84,12.69 -13.22,10.57 -11.36,-27.12 -11.67,32.37l-2.29 367.91c24.6,-36.43 16.59,-47.13 15.98,-94.35 -0.46,-35.75 -0.11,-71.69 -0.11,-107.48 0,-65.07 5.34,-135.37 -1.9,-198.45 90,1.32 333.25,12.31 407.06,-8.83l-3.75 -194.59 191.86 0.66 -0.77 400.79 3.31 194.5 -195.03 2.47 2.65 -197.57 -14.59 39.41c-2.65,30.07 -3.91,134.93 11.94,158.16l98.72 8.16c27.52,0.04 76.39,7.66 96.31,-10.64 1.96,-1.19 3.53,-6.95 3.88,-5.71l7.88 -31.13c0.86,-11.89 -0.49,-36.47 -0.6,-49.71 -0.35,-36.63 -0.84,-71.56 1.88,-108.1l-2.14 -400.95c63.28,-1.99 134.62,-9.27 195.72,5.74 -10.66,-23.57 14.3,-13.72 -38.48,-20.76l-154.74 0.62 -2.63 -190.86c32.94,-1.61 65.16,-1.65 98.04,-1.37 14.52,0.11 36.32,1.61 49.62,1.06 52.25,-2.1 29.85,5.03 45.7,-16.55l-204.1 10.35 -2.45 199.27 -192.01 -0.22 -3.02 -202.47 -198.43 -1.96 1.99 -593.18c33.52,-5.6 67.92,-3.82 102.34,-3.53l79.57 -5.8c0.9,-2.34 3.62,-2.01 5.3,-3.2 13.95,-11.92 3.46,8.91 10.17,-17.72l3.93 -377.67c-2.27,-36.61 -2.18,-72.79 -1.85,-109.58l-1.46 -76.57c-9.84,-29.72 9.8,-3.27 -12.82,-16.31 -10.57,-23.98 -533.84,-8.38 -593.09,-8.83l0.2 -187.88 402.89 -0.62c13.02,-58.96 9.13,-153.24 3.09,-211.3 -62.47,-10.79 -354.96,-11.87 -414.65,0.66l-3.57 197.99 -161.38 0.82c-54.94,1.72 -13.37,-0.84 -26.63,11.63zm612.55 2417.19l-4.26 -197.13c-46.62,-13.39 -65.58,-9.07 -112.91,-9.25 -47.7,-0.15 -68.16,-9.6 -102.96,15.42l202.73 -2.96 1.59 167.74c1.06,46.09 -2.89,11.47 15.8,26.17z"/>
   <path class="fil4" d="M5652.13 12266.37l189.98 -0.07 2.34 395.58 -193.05 -0.11 0.73 -395.41zm791.74 -1625.76l5.52 200.75 -604.69 0c-28.57,-8.32 -151.32,-5.85 -204.54,0.93l1.3 196.03 -205.12 4.61 2.65 212.64 200.68 -0.57 -0.2 999.53 -191.48 1.15 -1.1 -313.7c1.32,-121.76 1.72,-67.01 -13.42,-80.93 -16.15,-19.31 19.88,-0.49 -14.32,-9.44l-171.58 -2.23 -6.2 -196.05c-57.83,-11.19 -364.87,-4.41 -464.43,-4.41 -118.2,-0.02 -143.16,-14.06 -147.42,48.06 -0.6,8.58 0.51,29.9 0.6,39.85 1.72,164.1 -5.3,100.18 18.51,116.83l-7.22 -194.59 592.36 1.59 2.47 193.51c48.76,17.81 146.76,15 197.22,6.88 1.63,88.92 -11.21,333.82 8.23,402.4l195.78 5.21 0.68 403 214.85 2.23 1.7 -406.64c55.36,1.21 147.81,9.77 196.09,-8.01l6.73 -204.59c-25.02,33.63 -16.13,55.3 -15.73,102.38 0.29,31.58 0.57,62.8 -1.61,97.26l-187.05 0.35 2.69 -190.84c57.17,8.8 138.26,11.08 192.41,-4.81 19.33,-59.91 9.64,-145.3 6.27,-212.77l-201.12 2.93 -5.1 -1003.32c60.41,17.28 536.4,16.11 608.42,2.87 5.25,-38.53 3.73,-69.75 3.97,-108.36 0.86,-144.81 -10.28,-95.72 -16.81,-99.71zm-996.22 408.4c250.2,0.18 204.68,44.48 204.68,-197.92l191.24 0 -0.02 895.58c-0.04,18.65 -1.48,41.84 -0.88,59.64 1.9,58.27 10.17,39.78 13.64,42.83 15.6,14.03 -24.51,6.64 33.12,10.28 12.56,0.79 35.75,-0.66 49.58,-0.75 34.82,-0.26 69.68,0.24 104.74,0.29l-0.64 195.85c-187.62,3.35 -198.41,-19.28 -200.46,52.36l-0.46 146.95 -188.55 -0.31c-10.13,-300.37 10.13,-679.38 -0.13,-957.69 -2.25,-61.63 -0.18,-30.94 -14.45,-41.13 -3.82,-3.64 19.24,-10.61 -40.62,-12.49l-150.93 1.06 0.15 -194.55z"/>
   <path class="fil6" d="M8687.96 10440.84l-0.49 -193.82 190.62 -0.46 0.04 194.66 5.23 3.02 195.06 -0.13 -0.42 190.91 -194.68 0.62c49.25,24.34 143.47,12.78 202.36,8.14l6.58 -202.34 -1.68 -409.15c-54.7,-22.79 -533.6,-15.78 -616.59,-7.68 -0.11,26.94 -11.3,388.1 7.99,408.87 16.84,18.14 17.85,11.34 84.16,10.68 39.39,-0.4 73.45,-0.66 112.69,3.55 -41.77,-24.23 -118,-7.08 -196.84,-14.23l0.62 -394.7 597.13 -3.6 0.75 403.79 -195.19 -2.71 2.96 -195.98c-50.68,-10.37 -164.5,-11.19 -212.97,1.63 -1.35,32.83 -0.97,65.03 -1.21,97.86 -0.29,42.72 -7.48,71.65 13.9,101.08zm-2.63 196.6c28.73,21.18 153.04,10.5 192.21,10.28l0.11 189.61 -393.4 1.13c-0.86,-32.7 -1.13,-65.2 -0.97,-98.15 0.68,-137.29 22.42,-103.4 -205.32,-105.41l-0.53 -612.35 -599.99 -1.24 0 -198.26 -220.81 -0.53 -4.13 197.75 -155.89 1.77c-71.76,2.16 -13.02,-2.14 -33.41,15.29l198.96 -1.24 5.23 202.6 -205.29 -4.28c16.5,24.36 -32.44,10.68 43.47,18.58 33.08,3.46 136.25,3.73 161.83,-14.3 15.8,-42.12 5.54,-133.38 8.36,-194.72l179.68 -0.18c23.3,245.61 -80.6,207.99 214.16,207.99 -9.53,-24.49 -0.71,-15.4 -94.42,-14.74 -37.16,0.26 -74.47,-0.42 -111.34,-0.38l6.22 -199.62 604.32 -1.92 -4.81 606.57c-49.43,-9.77 -146.93,-10.75 -200.09,1.43l-1.9 206.22 176.57 1.08c27.96,-5.94 14.32,-0.93 29.79,-15.75l-191.59 1.81 -0.84 -188.92 194.39 3.4 198.23 -3.66 0.75 200.81 408.05 4.3 195.7 0 -1.94 194.46c1.59,-2.36 3.91,-8.72 4.41,-7.37 0.49,1.35 3.29,-5.49 3.86,-7.63 9.27,-34.42 4.37,-153.53 1.94,-188.06l-200.9 -2.03 2.01 -199.82 -202.69 -4.52zm-1217.02 -802.22l194.44 0.24 0.26 194.33 -194.59 -0.09 -0.11 -194.48z"/>
   <path class="fil6" d="M10311.07 12056.56l-10.86 -4.72 -196.47 2.27 -0.11 -193.6 195.34 1.85c-34.31,-22.51 -165.38,-12.82 -206.02,-10.77l-0.95 178.42c7.17,54.83 6.53,10.39 -8.27,26.65l2.29 192.3 -193.18 1.61c-45.08,12.42 -150.64,12.49 -197.53,2.12l0.04 -188.97 199.67 -2.29 -1.13 -211.43 -813.47 3.07 1.77 209.53 406.11 0.64 -0.6 193.38c-36.96,0.9 -73.98,1.04 -110.99,0.62 -65.62,-0.73 -81.13,-12.78 -91.33,28.84 -1.41,5.76 -1.72,19.73 -1.88,26.15 -3.86,150.09 -9.97,154.57 53.15,156.53 14.41,0.46 34.58,-0.84 49.87,-0.93 33.65,-0.22 67.32,-0.07 102.4,0.6l-3.75 201.68c27.69,-24.43 18.8,-50.13 18.58,-102.74 -0.2,-43.53 4.08,-65.95 -8.3,-112.02l-197.33 -0.6 -3.6 -180.58 202.58 -6.55c13.02,-60.86 16.04,-150.06 -0.62,-208.29 -50.07,-14.5 -330.73,-5.36 -405.62,-5.69l-0.18 -192.72 796.02 0.24 0.07 192.36c-36.47,0.44 -73.21,0.71 -109.69,0.29 -78.88,-0.9 -91,-11.83 -92.65,53.33 -5.23,204.65 -22.75,159.29 202.47,159.93l6.09 188.37c0.35,-1.28 2.16,4.88 3.42,7.22l0.22 -198.48 203.24 -3.64 -2.25 -197.81 197.35 -4.04 3.97 204.21 196.16 0.93 2.6 198.43c45.63,12.82 432.21,4.52 539.71,6 45.34,0.62 64.41,4.37 73.52,-29.5 1.24,-4.57 1.92,-21.25 2.07,-26.63 3.22,-112.97 9.13,-142.21 -28.84,-153.33l-174.12 -1.48c-69.53,0 -139.52,-0.99 -208.76,0.22 11.58,-60.97 11.63,-537.53 0.71,-600.28l405.09 -2.82 -7.5 199.91 -3.93 202.47c19.02,-15.29 14.52,20.32 16.55,-26.79 0.07,-56.86 -8.47,-122.62 8.01,-175.73l0.38 -157.28c-0.93,-15.18 -1.08,-13.61 -4.06,-27.45 -0.44,-2.1 -2.74,-3.44 -3.11,-7.66 -3.07,-33.25 -271.51,-18.71 -320.56,-19.24 -11.72,-0.13 -40.07,-1.7 -49.71,-0.86 -17.81,1.57 -12.27,1.17 -26.92,5.71l-19.15 23.21c-5.54,27.6 0.18,-13.61 -2.58,16.84l0.46 274.05c0,269.26 -29.17,309.33 58.14,313.3l342.96 -4.94 4.37 184.27 -590.18 -4.06 -7.13 -199.95 -197.35 -1.52 5.25 -192.14z"/>
   <path class="fil6" d="M4234.19 11858.26c-20.21,8.16 -11.96,14.76 -11.34,83.74 0.35,37.33 0.04,74.67 0.2,112l-178.55 -0.35c-10.06,-61.03 14.28,-146.73 -15.29,-203.51l-201.5 -2.05 -0.13 -593.18 395.23 -0.04c0.22,72.02 -10.3,357.41 7.24,404.17 62,17.28 136.94,2.27 200.24,9.47l1.85 179.12 -180.89 1.39c-27.29,6.29 -3.66,-5.85 -17.06,9.25zm-1209.15 -812.46c-25.29,10.53 -15.71,10 -15.31,95.1l1.57 86.52c15.34,53.38 103.02,11.14 206.42,34.47 16.57,-14.06 -28.13,-14.45 25.95,-9.05l575.22 -4.57 1.74 609.92 205.18 1.43 2.07 196.82c53.79,14.61 145.5,8.91 204.3,4.24l2.01 -202.43 203.82 -0.29c5.19,-57.21 11.41,-153.29 -5.05,-206.46l-199.93 -2.6 -2.36 -405.14 -406.2 -2.27 -601.16 -0.49 -0.44 -189.34 198.32 -0.68c1.65,-6.95 4.08,-13.11 4.57,-11.74 0.51,1.35 3.46,-5.27 4.04,-7.35l5.01 -135.97c-0.24,-8.43 -0.42,-20.52 -2.47,-28.42 -12.11,-46.87 -110.68,-28.51 -208.91,-29.35l-0.9 -190.44c55.98,-0.68 150.77,13.35 194.22,-6.16 19.17,-8.1 11.41,21.27 18.03,-37.07 1.04,-9.25 -0.95,-47.18 -1.08,-59.55 -0.4,-36.56 -2.01,-69.35 5.27,-104.83 -20.43,15.07 -15.25,-21.25 -17.37,26.68l-4.85 174.78 -204.59 -0.44 3.31 200.48 -394.41 -0.35 1.9 -194.66 196.95 -4.17 -0.18 -195.59 -0.93 -9.33c-24.45,45.94 -8.78,140.86 -9.13,197.99l-181.84 -0.51 -2.63 -177.09c-9.31,-27.98 5.87,-4.24 -14.21,-20.17l1.13 199.23 -394.61 2.34 0.88 -199.62c-24.36,11.96 -13.9,17.28 -13.53,95.48 0.24,48.12 -8.72,87.93 12.64,104.15 10.97,19.77 312.93,5.03 386.71,9.69l0.44 188.28c-211.23,9.53 -200.92,-37.18 -200.88,108.25 0.02,122.99 -8.12,107.08 102.76,105.98 37.55,-0.38 81.73,3.6 108.65,-5.85 16.88,-12.78 11.89,-71.42 11.72,-90.33 -0.31,-34.33 -0.04,-68.78 -0.04,-103.13l384 0.29 -0.95 195.81c24.27,-46.84 17.08,-147.79 5.56,-198.19l205.43 -4.3 0.29 196.95 -208.96 2.89 3.07 198.87 -194.7 0.62 4.48 -199.31zm-411.98 -194.81l201.12 -0.82 0.99 192.89 -200.53 -3.84 -1.59 -188.24z"/>
   <polygon class="fil2" points="2610.5,5380.64 3013.61,5381.86 3016.61,5175.88 2612.53,5173.76 "/>
   <polygon class="fil2" points="10904.36,5783.18 11308.37,5787.79 11308.99,5583.56 10905.33,5581.68 "/>
   <polygon class="fil2" points="10904.54,11448.75 11307.22,11452.43 11309.14,11250.45 10905.26,11248.62 "/>
   <polygon class="fil2" points="4635.75,10031.46 5041.86,10031.77 5041.11,9834.33 4639.5,9832.99 "/>
   <path class="fil3" d="M10097.53 4785.11c-51.35,-13.02 -153.02,-11.3 -204.98,-0.64l0.88 190.16 -202.98 2.45 0.29 196.25 201.68 -2.34 1.01 -195.78 203.57 -3.18 0.53 -186.91z"/>
   <polygon class="fil2" points="4830.54,3955.7 5037.69,3957.2 5037.29,3567.2 4834.97,3569.23 "/>
   <polygon class="fil2" points="2417.48,10639.29 2812.09,10636.95 2810.96,10437.73 2418.36,10439.67 "/>
   <path class="fil2" d="M11117.11 8013.87l191.04 -0.4 2.54 -394.81c-61.1,-15 -132.43,-7.72 -195.72,-5.74l2.14 400.95z"/>
   <polygon class="fil2" points="4640.98,4364.46 4833.45,4366.66 4833.36,3965.74 4641.6,3966.16 "/>
   <polygon class="fil2" points="10301.85,5983.84 10697.56,5983.88 10698.98,5791.32 10301.34,5791.01 "/>
   <polygon class="fil2" points="5651.41,12661.78 5844.45,12661.89 5842.11,12266.31 5652.13,12266.37 "/>
   <polygon class="fil2" points="2808.01,6187.7 2807.59,6000.06 2411.17,5997.19 2411.52,6187.28 "/>
   <polygon class="fil2" points="5041.75,2939.12 5434.59,2943.57 5431.55,2751.1 5043.36,2749.23 "/>
   <path class="fil4" d="M3220.32 7208.78l42.87 -0.29 117.19 0.04 35.02 0.24 2.32 593.24 -197.88 0.68 0.49 -593.93zm2.52 -606.37l394.94 -0.35 -0.24 593.24 -187.97 -0.49 -4.06 -193.31c-54.66,-19.99 -141.66,-8.21 -205.25,-8.91l2.58 -390.18zm-0.4 -406.51l393.84 0 0.44 188.68c-110.46,7.83 -309.4,-18.09 -402.07,8.34 -18.01,55.27 -6.42,130.71 -8.87,195.36l-189.41 -2.23c11.92,9.84 -16.42,13.9 41.73,14.5l149.73 1.63c2.16,83.72 -14.7,342.32 10.3,402.29l200.81 1.01 -0.44 190.09 -200.81 1.88c-19.97,52.36 -16.46,540.79 -4.5,613.34 54.94,6.71 161.78,12.09 214.72,-4.06l2.12 -599.02 194.08 -4.63c13.44,-61.19 14.56,-564.23 -3.2,-613.19l-401.08 -0.31 -0.35 -192.45 317.21 -0.42c120.08,0.9 66.24,2.43 80.03,-12.14 16.77,-13.37 7.86,25.86 11.21,-29.99l-0.79 -137.86c-0.51,-37.71 2.21,-13.97 -10.86,-20.83 -7.88,-15.8 19.4,-9 -29.72,-12.78l-342.89 0.84c-39.52,1.08 -14.06,-2.18 -21.23,11.94 -16.81,9.2 -10.3,-0.66 -11.01,39.3 -0.29,15.78 0.57,33.76 0.64,49.91 0.11,37.78 -0.02,75.48 -0.51,113.26 25.93,-49.91 16.5,-145.1 10.88,-202.47z"/>
   <path class="fil5" d="M1406.12 2753.48l89.39 -0.15 1269.6 -0.09 38.77 0.49 2.36 1400.69 -1400.05 -0.09 -0.55 -38.19 -0.04 -1289.66 0.53 -72.99zm-10.61 1409.14c78.84,9.8 1392.68,13.66 1410.73,-5.23 1.01,-2.18 2.74,-7.74 3,-6.58l4.9 -161.69c0,-320.14 14.59,-1006.92 -1.63,-1240.26 -54.24,-11.65 -1335.82,-12.67 -1415.34,-1.37l-1.65 1415.12z"/>
   <path class="fil5" d="M1405.53 11254.03l50.93 -0.13 1308.66 0.04 38.46 -0.24 0.31 43.53 0.18 1309.21 -1.06 45.39 -1397.34 -0.51 -0.13 -1397.3zm-7.74 -7.02c-9.4,112.49 -10.17,1361.24 3.49,1416.29l1412.72 -2.47 -1.48 -1412.5c-52.67,-13.06 -1341.96,-14.7 -1414.73,-1.32z"/>
   <path class="fil6" d="M10705.6 4564.94c12.73,12.14 -29.32,10.48 28.71,11.3l163.33 0.02c-11.94,52.21 -12.69,151.28 2.34,203.9l195.76 7.17 4.32 187.71 4.59 194.97 -197.81 0.07 2.87 -199.45c-2.69,1.92 -5.41,2.63 -6.22,7.74 -3.2,20.12 -12.91,-23.76 -11.39,85.5 0.53,37.51 -0.82,72.46 2.23,109.6 17.43,57.79 7.5,142.67 7.3,205.38 -62.11,2.01 -142.94,-11.56 -203.18,7.37l-0.75 189.38 -194.44 1.3 -2.16 -406.04 -205.51 3.2 -3.91 405.18 -400.28 11.1 382.32 -3.93c41.37,-7.26 33.12,-12.78 32.28,-92.63l0.4 -311.98 184 0.07 2.67 378.48c11.67,37.03 48.12,32.22 164.25,27.56 52.36,-2.12 30.25,0.04 40.38,-13.81 16.31,-12.8 7.7,26.24 11.89,-30.56l-0.68 -147.51c60.79,-6.75 138.83,9.6 199.51,-11.1l6.4 -203.26 180.85 0.35c0.22,67.56 -8.98,141.35 7.24,204.94l178.31 7.44c66.92,-6.35 13.66,0.11 31.49,-19.66l-200.44 4.28c-0.04,-63.02 -10.13,-147.06 7.1,-205.54l0.44 -198.61c-17.81,-58.78 -7.37,-133.6 -7.48,-197.31l199.6 5.58c-15.2,-19.68 30.96,-12.91 -30.71,-18.84l-161.1 -0.31 -0.2 -186.38c31.69,-1.59 61.98,-1.72 92.94,-1.46 59.42,0.53 78.02,8.45 96.4,-16l-202.71 8.41 -1.06 204.15 -198.19 -0.07c-0.66,-43.51 6.93,-170.39 -9.66,-196.4 -3.66,-4.74 9.02,-11.83 -45.12,-13.5l-146.91 2.18 1.39 -193.03 600.7 3.64c-12.8,-13.5 16.66,-10.33 -26.48,-11.87 -93.18,-0.22 -526.01,-17.19 -574.22,7.24 -12.33,14.23 -8.56,-23.34 -12.95,37.47l2.03 136.8c4.39,19.51 4.63,13.08 9.53,19.75z"/>
   <path class="fil7" d="M1606.61 11455.57c67.41,-15.8 902.26,-13.26 1001.51,-2.58l-2.38 1003.32 -999.59 0.11 0.46 -1000.85zm-10.26 -7.88c-14.92,76.48 -4.24,623.58 -4.24,777.71 0,40.05 -12.82,223.48 15.67,238.3 9.6,5.01 967.11,6.11 1012.79,-1.15 9.95,-94.97 11.65,-961.44 -3.53,-1016.83 -45.5,-20.65 -972.5,-24.03 -1020.69,1.96z"/>
   <path class="fil7" d="M1602.61 2953.81l1005.55 -2.32 1.04 1006.26 -1003.01 -0.64 -3.57 -1003.3zm1008.75 -2.32c-6.51,-5.87 1.54,-7.17 -21.65,-14.28l-938.5 -2.34c-48.87,1.39 -57.13,3.97 -60.08,47.18l0.97 870.29c-0.13,97.11 -24.67,120.23 79.06,119.44l859.59 -0.24c65.71,0.29 84.13,10.75 93.18,-40.22 0.11,-0.6 0.33,-27.25 0.33,-29.83l0.35 -899.75c-0.79,-38.61 -1.24,-34.18 -13.26,-50.24z"/>
   <path class="fil5" d="M10099.93 2956.24l998.65 2.71 -0.04 995.18 -998.71 3.44 0.11 -1001.34zm-10.99 1005.75c83.21,12.44 758.95,5.12 958.53,4.81 2.71,-0.02 28.31,-0.09 29.06,-0.22 52.45,-9.71 33.94,-67.48 33.89,-124.01 -0.13,-167.28 8.65,-838.06 -6,-896.77 -94.75,-8.65 -990.35,-11.94 -1008.55,4.63 -20.87,19 -13.7,933.97 -6.93,1011.55z"/>
   <path class="fil4" d="M3221.6 12266.26l196.91 0.55 0.44 193.4 -199.67 -0.24 2.32 -193.71zm208.03 -407.21l188.48 -0.09 0.15 196.73 -189.01 -1.21 0.38 -195.43zm3 807.38l-4.68 -196.18c63.08,-0.13 136.83,-10.75 194.81,8.25 -15.62,-25.33 15.49,-20.21 -95.87,-19.44 -32.48,0.22 -64.96,0.15 -97.86,0.02l1.81 -191.35c35.26,-0.07 70.54,-0.49 105.82,-0.02 107.19,1.35 78.46,0.77 86.98,-20.76 -59.13,18.4 -132.08,8.12 -195.21,8.12l1.94 -188.57c37.05,0.53 188.11,0.24 188.5,0.4 17.37,0 13.15,4.41 13.15,-12.71 -4.02,-11.47 -0.33,-154.68 -5.03,-203.11 -57.72,-9.8 -151.21,-14.01 -207.48,2.89l-3.95 204.92 1.13 195.14 -196.89 0.42 5.36 -197.88c-18.58,19.26 -13.72,-33.72 -16.7,32.04l-0.42 166.13 -184.69 -0.66 1.17 -594.15 160.52 -0.51c55.3,-1.35 14.63,1.92 30.49,-14.76 -62.89,7.26 -142.56,-8.89 -200.13,10.37 -17.78,133.21 -6.02,480.27 -0.84,612.2l191.68 1.63c1.37,63.75 -11.1,140.11 9.29,201.76l201.68 0.82 0.24 164.32c2.32,57.52 -1.72,14.65 15.16,30.67z"/>
   <path class="fil3" d="M9288.91 8413.96l201.43 -2.82c2.89,-54.77 13.46,-150.73 -6.38,-191.81 -44.73,-18.78 -135.94,-6.71 -196.64,-6.07l1.59 200.7z"/>
   <path class="fil2" d="M6247.96 12465.02c-33.98,-0.55 -174.65,-9.53 -191.24,5.78 -24.1,22.24 -8.96,149.73 -6.86,194.11l203.68 0.13 -5.58 -200.02z"/>
   <polygon class="fil2" points="9892.96,11452.21 10095.74,11451.77 10097.31,11251.58 9894.99,11247.91 "/>
   <polygon class="fil2" points="7667.65,12665.33 7872.06,12665.29 7872.59,12465.18 7665.91,12467.36 "/>
   <polygon class="fil2" points="3823.2,12665.62 4030.35,12660.94 4027.79,12465.11 3823.02,12465.77 "/>
   <path class="fil6" d="M1807.95 9428.71l192.1 -0.24 0 195.96 -192.43 0.73 0.33 -196.45zm-209.95 -191.55l400.39 -4.26 -0.18 178.68c-57.5,6.95 -142.12,-13.15 -195.52,13.97 -4.92,20.7 -15.34,182.46 4.94,201.61 18.18,17.17 185.28,8.47 191.53,4.74 27.56,-16.46 11.08,-151.63 12.27,-195.98l148.67 0.11c69.57,-1.1 61.01,-14.54 60.5,-102.62 -0.2,-37.58 1.1,-71.14 -2.65,-108.65 -47.59,-6.73 -143.49,-5.14 -207.48,-4.13l-0.18 -179.32c-6.51,-25.88 3.86,-4.99 -10.83,-16.9 -13.44,-11.34 19.44,-5.38 -24.96,-10.5l-547.79 -0.44c-26.57,4.21 -13.44,-2.58 -23.79,13.04 -28.11,10.46 -9.11,253.37 -9.11,297.15 0,55.47 -14.34,271.69 7.3,298.65 9,24.07 9.47,13.88 94.37,13.64 113.26,-0.31 88.11,8.98 103.11,-19.13 -47.59,15.82 -145.14,10.75 -197.48,5.49l1.81 -595.8 596.53 -2.1 4.48 206.26 202.62 -1.9 5.91 194.83 -203.09 -3.04 -5.43 -194.17c-25.77,-4.1 -349.31,-12.16 -390.49,0.42 -2.41,0.73 -6.22,7.22 -7.9,4.77 -1.72,-2.49 -5.54,3.2 -7.59,5.58z"/>
   <polygon class="fil2" points="7262.11,10234.42 7467.41,10238.7 7462.18,10036.1 7263.22,10037.33 "/>
   <polygon class="fil2" points="6453.1,5375.48 6656.52,5378.17 6656.03,5177.29 6451.66,5180.23 "/>
   <path class="fil2" d="M11312.7 5374.75l-4.39 -199.53 -188.94 -1.72c-17.23,58.47 -7.15,142.52 -7.1,205.54l200.44 -4.28z"/>
   <path class="fil2" d="M4437.05 12665.86l198.28 -5.01c1.94,-51.32 14.67,-153 -7.55,-188.55 -37.22,-21.49 -135.81,-8.36 -190.97,-7.15l0.24 200.7z"/>
   <polygon class="fil2" points="9892.96,7807.17 10095.23,7806.7 10097.02,7609.11 9896.98,7606.6 "/>
   <polygon class="fil2" points="6253.61,11450.23 6452.72,11452.02 6454.05,11251.6 6254.93,11248.49 "/>
   <polygon class="fil3" points="8074.04,4169.14 8273.58,4160.42 8277.95,3966.84 8075.92,3964.86 "/>
   <polygon class="fil2" points="8075.13,12665.62 8273.47,12665 8273.36,12465.58 8072.41,12465.18 "/>
   <path class="fil3" d="M3423.65 11600.12c0.13,67.59 0.86,56.07 73.23,54.85 40.67,-0.66 81.69,0.97 125.13,-2.03l-0.11 -200.22 -198.1 4.81 -0.15 142.58z"/>
   <polygon class="fil3" points="8888,9020.44 9083.77,9018.5 9084.3,8820.38 8884.96,8819.67 "/>
   <polygon class="fil2" points="6660.29,2947.04 6858.96,2948.56 6859.25,2749.03 6662.43,2749.34 "/>
   <polygon class="fil2" points="4636.92,5580.69 4679.28,5581.37 4796.47,5581.22 4832.64,5580.44 4835.19,5383.25 4636.06,5382.06 "/>
   <polygon class="fil2" points="1398.02,10029.94 1597.45,10032.15 1596.72,9833.41 1400.3,9833.34 "/>
   <polygon class="fil3" points="9494.11,5581.19 9689.67,5580.18 9690.36,5382.3 9491.24,5382.98 "/>
   <polygon class="fil2" points="11110.69,6187.32 11307.64,6186.82 11309.36,5991.63 11110.56,5988.23 "/>
   <polygon class="fil3" points="2610.9,8815.45 2813.39,8815.12 2809.33,8619.94 2610.21,8622.87 "/>
   <polygon class="fil3" points="11095.71,12056.8 11099.64,11854.33 10904.51,11858.45 10905.11,12057.92 "/>
   <polygon class="fil2" points="8479.58,4566.93 8676.91,4566.86 8673.66,4368.85 8478.23,4370.33 "/>
   <path class="fil2" d="M11119.8 4974.89l187.64 -0.6 4.48 -191.13 -199.6 -5.58c0.11,63.7 -10.33,138.52 7.48,197.31z"/>
   <polygon class="fil2" points="3219.28,12459.97 3418.95,12460.21 3418.5,12266.81 3221.6,12266.26 "/>
   <polygon class="fil2" points="11100.05,4975.04 10909.7,4970.63 10906.83,5170.08 11104.64,5170.01 "/>
   <polygon class="fil2" points="2614.65,11039.22 2815.18,11043.06 2814.18,10850.17 2613.06,10850.98 "/>
   <polygon class="fil3" points="3219.85,3151.07 3417.58,3151.3 3417.07,2956.73 3222.59,2955.95 "/>
   <polygon class="fil3" points="2615.47,4769.48 2810.7,4768.23 2810.46,4572.95 2615.11,4573.81 "/>
   <polygon class="fil2" points="5245.36,12665.64 5438.08,12661.16 5439.09,12470.12 5240.82,12466.92 "/>
   <polygon class="fil3" points="3415.57,12058.89 3225.17,12056.58 3219.81,12254.46 3416.69,12254.04 "/>
   <polygon class="fil2" points="2811.69,4369.11 2615.14,4365.32 2615.11,4560.79 2810.39,4560.13 "/>
   <polygon class="fil2" points="7468.42,10029.7 7663.02,10029.79 7662.75,9835.46 7468.31,9835.22 "/>
   <polygon class="fil2" points="2614.34,4970.85 2677.23,4971.38 2774.89,4971.69 2812.02,4969.77 2811.63,4780.69 2765.11,4779.94 2716.28,4779.88 2614.36,4780.3 "/>
   <polygon class="fil3" points="10907.71,9422.66 11104.56,9421.87 11104.71,9231.8 10907.54,9229.59 "/>
   <path class="fil2" d="M7057.77 3145.12l204.43 5.16 -0.71 -187.02 -193.25 -7.94 -8.32 85.92c0.38,34.55 1.54,70.12 -2.16,103.88z"/>
   <polygon class="fil2" points="1807.62,9625.16 2000.05,9624.43 2000.05,9428.47 1807.95,9428.71 "/>
   <path class="fil3" d="M2827.2 6187.57l188.63 -0.86 1.32 -187.88 -195.81 -7.15c-1.63,63.75 -9.09,135.81 5.85,195.89z"/>
   <polygon class="fil3" points="1605.44,6995.5 1798.35,6992.9 1800.98,6800.12 1605.77,6800.2 "/>
   <polygon class="fil2" points="10909.04,8211 11104.07,8208.53 11100.76,8014.03 10911.68,8013.43 "/>
   <path class="fil2" d="M3432.63 12666.44l189.98 -3.62 0.15 -184.31c-57.99,-19 -131.73,-8.38 -194.81,-8.25l4.68 196.18z"/>
   <polygon class="fil3" points="3825.01,7802.45 3868.7,7802.67 3985.89,7802.93 4023.82,7801.36 4022.54,7613.3 3825.45,7612.66 "/>
   <polygon class="fil3" points="10300.22,12051.83 10298.98,11862.36 10103.64,11860.51 10103.75,12054.11 "/>
   <polygon class="fil2" points="3221.4,5374.62 3414.69,5374.62 3414.73,5181.88 3222.04,5179.83 "/>
   <polygon class="fil2" points="3428.26,3152 3618.77,3152.07 3618.24,2955.07 3429.29,2954.94 "/>
   <polygon class="fil3" points="8883.33,10635.63 9078.01,10635.01 9078.43,10444.1 8883.37,10444.24 "/>
   <polygon class="fil3" points="3427.15,9421.87 3619.63,9422.4 3619.61,9229.93 3426.98,9229.75 "/>
   <polygon class="fil3" points="3429.25,12054.48 3618.26,12055.69 3618.11,11858.96 3429.62,11859.05 "/>
   <polygon class="fil3" points="8687.96,10440.84 8878.14,10441.21 8878.1,10246.55 8687.48,10247.02 "/>
   <polygon class="fil3" points="9892.85,12250.57 10086.03,12248.96 10083.74,12056.67 9895.03,12061.43 "/>
   <polygon class="fil2" points="4035.09,7195.57 4225.05,7195.79 4225.84,7005.37 4035.29,7005.01 "/>
   <path class="fil4" d="M3825.45 7612.66l197.09 0.64 1.28 188.06 -37.93 1.57 -117.19 -0.26 -43.69 -0.22 0.44 -189.78zm209.84 -607.65l190.55 0.35 -0.79 190.42 -189.96 -0.22 0.2 -190.55zm194.72 613.96c-14.17,-20.94 26.68,-14.06 -29.28,-19.9l-162.77 -0.13 -1.7 -389.74 195.08 -1.46c13,-57.79 12.42,-156 0.97,-212.55 -60.44,-4.37 -149.2,-12 -205.43,5.52l-3.82 193.2 -197.09 1.48 -0.79 -395.76 375.55 0c44.84,-3.13 11.83,1.68 26.26,-16.17l-411.16 8.34 4.9 414.71 203.95 0.79 -1.9 392.94 -206.29 3.2 3.44 207.72c53.73,6.31 161.85,10.26 214.19,-3.75l1.46 -194.42c62.53,-2.25 134.31,-9.64 194.44,5.98z"/>
   <polygon class="fil3" points="8273.95,10834.68 8275.92,10650.96 8081.52,10647.57 8082.36,10836.49 "/>
   <polygon class="fil2" points="2616.5,6988.57 2808.4,6989.96 2807.63,6803.45 2616.94,6800.87 "/>
   <polygon class="fil2" points="6259.37,4158.66 6445.57,4158.85 6447.47,3968.59 6398.13,3967.75 6339.53,3967.9 6258.81,3967.97 "/>
   <polygon class="fil2" points="5246.86,3758.13 5435.83,3758.7 5435.72,3570.53 5247.46,3567.36 "/>
   <polygon class="fil2" points="2009.56,8409.06 2091.24,8409.63 2149.85,8409.96 2199.96,8407.74 2200.25,8222.37 2150.16,8221.22 2081.49,8221.13 2010.46,8221.51 "/>
   <polygon class="fil2" points="2616,7800.59 2807.81,7800.75 2807.52,7616.75 2617.74,7614.74 "/>
   <polygon class="fil2" points="2218.74,6587.12 2404.17,6586.64 2406.53,6398.51 2218.91,6398.57 "/>
   <polygon class="fil2" points="2616.35,9416.8 2807.61,9416.82 2807.7,9234.63 2616.15,9231.93 "/>
   <polygon class="fil3" points="5655.53,10634.79 5839.05,10635.05 5839.75,10444.35 5656.02,10444.35 "/>
   <polygon class="fil2" points="2219.24,6989.24 2404.5,6989.35 2405.94,6800.95 2219.4,6801.55 "/>
   <polygon class="fil2" points="11117.57,9416.88 11304.29,9416.99 11304.82,9231.67 11117.38,9233.63 "/>
   <polygon class="fil3" points="7049.74,4155.28 7050.66,3969.82 6865.38,3969.23 6866.91,4155.52 "/>
   <polygon class="fil2" points="3431.59,5575.81 3616.56,5575.37 3616.76,5390.88 3431.68,5390.84 "/>
   <polygon class="fil3" points="5248.43,4558.45 5435.01,4558.56 5434.22,4376.44 5249.18,4376.66 "/>
   <path class="fil2" d="M5452.2 5373.5c55.52,-15.69 127.51,-6 186.56,-6.77l-0.97 -180.14 -182.35 -0.38 -3.24 187.29z"/>
   <path class="fil4" d="M1806.91 11655.83l595.63 -0.11 -0.09 591.52 -590.13 0.86 -5.41 -592.27zm-2.74 602.66l602.71 2.76c13.37,-45.56 11.47,-544.81 3.82,-610.59 -45.21,-16.24 -559.9,-16.26 -610.59,-1.3 -9.11,64.43 -10.83,566.74 4.06,609.13z"/>
   <path class="fil6" d="M6057.91 11052.61l595.45 -1.1 -0.46 591.32 -593.11 -0.2 -1.88 -590.02zm-7.44 601.96l608.03 2.43c12.67,-52.45 11.28,-546.13 2.65,-612.22l-613.15 -2.43c-8.21,67.65 -9.18,562.37 2.47,612.22z"/>
   <path class="fil4" d="M1807.88 3158.09l594.83 1.21 2.45 594.96 -598.14 -0.2 0.86 -595.98zm-5.25 601.63c17.92,3.35 511.67,12.95 581.44,3.93 22.48,-2.91 21.16,-3.4 24.4,-13.9 11.12,-36.1 4.99,-96.49 4.99,-141.66 0,-96.18 6.53,-399.73 -4.39,-455.23 -45.08,-12.27 -557.43,-12.16 -607.47,-0.82 -12.31,56.16 -13,559.35 1.04,607.67z"/>
   <path class="fil4" d="M11308.19 7212.23c-8.89,-23.17 12.51,-17.98 -85.55,-16.97l-311.82 -0.29 -1.3 -189.03c78.13,-1.37 351.08,12.14 402.6,-7.59 14.72,-56.05 11.1,-149.42 1.46,-208.25l-196.93 -3.35 -1.06 -183.38 156.66 0.24c68.91,-8.54 19.95,1.57 38.02,-20.96l-200.09 8.47c-14.08,46.31 -15.53,163.35 1.04,205.74l194.68 2.38 -0.18 195.14c-88.08,-0.02 -335.81,-10.55 -403,6.07l-2.82 200.68c104.68,26.01 297.61,-11.19 408.29,11.1z"/>
   <path class="fil5" d="M7051.28 3153.5c5.23,124.73 -21.54,199.89 30.6,207.19 31.71,4.44 360.12,6.35 378.2,-8.72 11.56,-12.31 9.29,24.25 13.59,-36.05 0.82,-11.61 -0.82,-36.56 -0.93,-49.78 -0.31,-35.79 -0.04,-71.69 -0.04,-107.48 0,-0.33 6.02,-245.98 -14.81,-211.03l-191.3 -8.08c-35.92,8.1 -60.02,5.85 -96.93,5.6 -15.86,-0.11 -33.76,-0.93 -49.29,-0.66l-52.12 10.81 193.25 7.94 0.71 187.02 -204.43 -5.16c28.13,33.72 160.59,17.12 209.11,12.49l5.47 -202.8 191.88 -1.77 -2.98 398.94 -395.54 -2.25c-2.07,-58.25 14.83,-150.97 -14.43,-196.23z"/>
   <path class="fil5" d="M3431.68 5390.84l185.08 0.04 -0.2 184.49 -184.97 0.44 0.09 -184.97zm-209.64 -211.01l192.69 2.05 -0.04 192.74 -193.29 0 0.64 -194.79zm-10.44 203.02l208.98 2.89 0.09 194.13c50.93,14.65 151.72,10.99 204.12,2.49 5.63,-52.87 11.36,-153.46 -3.93,-201.39l-193.95 -2.14 -0.62 -203.73c-48.74,-12.49 -160.37,-8.96 -211.05,-2.98l-3.64 210.72z"/>
   <path class="fil7" d="M5455.45 5186.21l182.35 0.38 0.97 180.14c-59.05,0.77 -131.04,-8.91 -186.56,6.77l3.24 -187.29zm188.92 196.2c12.16,-47.02 10.3,-160.3 1.43,-209.33l-201.87 -0.97c-3.35,27.38 -8.47,186.32 0.33,200.64 15.42,25.09 155.51,11.74 200.11,9.66z"/>
   <path class="fil4" d="M1605.77 6800.2l195.21 -0.09 -2.63 192.78 -192.92 2.6 0.33 -195.3zm197.04 202.62c16.99,-45.83 11.03,-157.94 4.72,-209.73 -54.52,-8.38 -159.93,-12.09 -211.45,3.2 -5.52,41.95 -19.35,181.15 5.16,202.69 17.03,14.98 169.72,7.15 201.56,3.84z"/>
   <path class="fil5" d="M2617.74 7614.74l189.78 2.01 0.29 184 -191.81 -0.15 1.74 -185.85zm-12.86 193.97c57.88,6.73 164.45,11.96 213.99,-3.49l1.54 -196.51c-49.43,-13.42 -159,-9.27 -210.44,-3l-5.1 203z"/>
   <path class="fil5" d="M6258.81 3967.97l80.71 -0.07 58.6 -0.15 49.34 0.84 -1.9 190.27 -186.21 -0.2 -0.55 -190.69zm-3.75 202.56l197.55 1.5c13.08,-50.57 9.33,-159.38 2.74,-211.52l-203.15 -3.86c-7.44,53.2 -10.77,167.5 2.87,213.88z"/>
   <path class="fil6" d="M6866.91 4155.52l-1.52 -186.3 185.28 0.6 -0.93 185.46 -182.83 0.24zm-9.44 14.36l200.55 1.46 6.31 -212.75 -204.68 -0.4 -2.18 211.69z"/>
   <path class="fil6" d="M5240.82 12466.92l198.28 3.2 -1.01 191.04 -192.72 4.48 -4.55 -198.72zm-8.23 203.55c76.41,2.34 204.76,19.9 216.75,-25.68 1.13,-4.35 1.72,-22.46 1.85,-27.78l-5.41 -152.43c-30.49,-14.12 -121.47,-13.48 -161.8,-11.36l-35.81 7.15c-1.5,-2.36 -4.9,2.63 -7.33,3.95l-8.25 206.15z"/>
   <path class="fil6" d="M5656.02 10444.35l183.74 0 -0.71 190.71 -183.52 -0.26 0.49 -190.44zm-12.05 198.08l207.1 3.84 -1.06 -206.62 -205.38 -4.48 -0.66 207.26z"/>
   <path class="fil5" d="M2218.91 6398.57l187.62 -0.07 -2.36 188.13 -185.44 0.49 0.18 -188.55zm-11.69 201.19l207.26 -4.04 -1.57 -205.65 -205.43 4.19 -0.26 205.49z"/>
   <g>
    <path class="fil2" d="M8250.52 9655.05l0 -793.29c0,-54.21 -156.07,-32.68 -261.41,-32.68l-1503.38 0.38c-71.49,-0.09 -221.98,-5.12 -292.34,-12.6 -259.04,-27.58 -438.99,-124.16 -619.61,-284.4 -117.28,-104.01 -191.7,-188.63 -261.89,-337.11 -17.39,-36.78 -33.69,-62.03 -47.06,-94.53 -14.85,-36.01 -18.82,-84.91 -32.79,-119.7 -19.06,-47.53 -50.6,-35.19 -118.05,-34.42l-762.59 0.2c44.02,188.92 27.71,220.54 101.04,421.73 18.09,49.67 32.04,90.51 51.08,134.09 41.77,95.52 93.91,195.36 156.13,279.52 17.78,24.05 17.83,27.96 34.27,52.85 190.42,288.63 605.82,619.76 958.27,729.91 77.54,24.25 80.47,38.39 197.7,63.68 46.73,10.08 108.56,21.58 147.88,26.37l2252.76 0zm-3735.76 -2786.38l1002.02 0c26.54,0 77.8,-59.07 104.48,-80.67l54.3 -32.83c205.23,-121.58 362.9,-191.48 658.07,-191.48 277.93,0 416.57,75.88 599.07,196 98.1,64.56 208.23,189.47 278.62,287.73l86.96 152.67c18.36,44.48 26.01,48.04 41.7,88.99 95.1,248.45 80.69,592.65 -21.45,836.75 -25.51,60.99 -45.26,97.66 -75.48,153.24 -97.48,179.35 -224.34,125.26 876.76,125.26 10.53,-45.1 29.32,-98.15 42.25,-142.92 14.7,-50.97 32.41,-95.19 42.3,-142.85 57.48,-277.47 46.16,-264.8 46.16,-541.99 0,-114.98 -22.59,-290.6 -56.71,-400.75l-55.34 -173.37c-26.37,-66.2 -41.04,-110.86 -72.51,-167.12 -177.27,-317.08 -187.51,-343.6 -439.01,-595.65l-80.05 -72.44c-1.63,-1.52 -3.93,-3.8 -5.56,-5.32 -1.65,-1.52 -3.97,-3.77 -5.63,-5.27 -96.6,-88.9 -267.63,-198.23 -383.6,-258.98l-339.07 -129.26c-349.29,-83.43 -856.21,-80.96 -1178.08,53.02 -83.16,34.62 -177.58,65.51 -249.95,109.47 -20.94,12.73 -26.88,20.23 -53.22,33.91l-109.75 64.52c-33.12,19.79 -28.07,18.12 -57.08,40.93 -60.99,47.93 -118.98,76.96 -201.15,158.27 -62.62,62 -120.23,115.69 -175.2,184.2l-60.94 69.77c-9.49,12.75 -10.33,14.87 -17.43,26.13l-58.65 82.94c-1.37,1.83 -3.35,4.35 -4.7,6.2 -7.55,10.44 -6.18,8.91 -13.02,19.64 -19.17,29.88 -50.84,82.52 -67.56,117.61 -36.28,76.01 -50.35,80.29 -51.54,133.63z"/>
    <path class="fil8" d="M4340.52 7587.49c0,106.33 -14.76,152.47 32.68,152.47l795.05 0c56.91,0 21.8,-39.25 21.8,-43.56 0,-147.17 25.66,-298.76 69.7,-431.28l21.2 -44.13c17.56,-33.3 47.86,-89.96 50.66,-123.61 -49.25,-1.1 -43.27,-10.9 -98.01,-10.9l-784.19 0c-78.6,0 -108.89,452.03 -108.89,501.01z"/>
   </g>
  </g>
  <path class="fil9 str0" d="M8608.4 776.36c162.8,0 294.75,131.95 294.75,294.75 0,162.77 -131.95,294.72 -294.75,294.72 -162.8,0 -294.72,-131.95 -294.72,-294.72 0,-162.8 131.93,-294.75 294.72,-294.75zm-2253.64 16305.46c341.44,0 618.24,276.76 618.24,618.22 0,341.44 -276.81,618.24 -618.24,618.24 -341.46,0 -618.22,-276.81 -618.22,-618.24 0,-341.46 276.76,-618.22 618.22,-618.22zm-2325.53 -16233.57l3594.32 0c122.59,0 222.86,100.26 222.86,222.84l0 0c0,122.59 -100.26,222.86 -222.86,222.86l-3594.32 0c-122.57,0 -222.84,-100.26 -222.84,-222.86l0 0c0,-122.57 100.26,-222.84 222.84,-222.84z"/>
  <g id="_2483004217536">
   <path class="fil10" d="M1415.19 15445.85c-24.71,-21.2 -40.45,-52.63 -40.45,-87.55l0 -2048.22c0,-30.3 10.26,-62.05 28.66,-86.74l1112.28 1108.95 -1100.5 1113.56z"/>
   <path class="fil11" d="M2898.61 14701.13l-1366.98 772.54 -41.48 0c-30.52,0 -58.36,-11.98 -79.04,-31.51l1104.58 -1109.88 382.92 368.84z"/>
   <path class="fil12" d="M1405.55 13220.56c30.91,-39.21 83.12,-58.87 147.68,-22.29l1343.54 761.49 -381.09 372.53 -1110.14 -1111.73z"/>
   <path class="fil13" d="M3372.41 14229.33c92.56,53.95 91.33,151.81 24.27,190.33l-498.08 281.46 -382.92 -368.84 381.09 -372.53 475.64 269.57z"/>
   <path class="fil14" d="M1411.11 15442.16c-22.35,-21.07 -36.36,-50.9 -36.36,-83.87l0 -2048.22c0,-31.44 11.05,-64.47 30.8,-89.52l1110.14 1111.73 -1104.58 1109.88z"/>
  </g>
 </g>
</svg>
