<?xml version="1.0" encoding="UTF-8"?>
<!DOCTYPE svg PUBLIC "-//W3C//DTD SVG 1.1//EN" "http://www.w3.org/Graphics/SVG/1.1/DTD/svg11.dtd">
<!-- Creator: CorelDRAW X8 -->
<svg xmlns="http://www.w3.org/2000/svg" xml:space="preserve" width="16.2544mm" height="16.95mm" version="1.1" style="shape-rendering:geometricPrecision; text-rendering:geometricPrecision; image-rendering:optimizeQuality; fill-rule:evenodd; clip-rule:evenodd"
viewBox="0 0 68 71"
 xmlns:xlink="http://www.w3.org/1999/xlink">
 <defs>
  <style type="text/css">
   <![CDATA[
    .fil0 {fill:#6C757D}
    .fil1 {fill:#DC3545}
   ]]>
  </style>
 </defs>
 <g id="Camada_x0020_1">
  <metadata id="CorelCorpID_0Corel-Layer"/>
  <path class="fil0" d="M46 12c-1,0 -1,-1 -2,-1 0,0 0,0 0,0l0 0c-1,0 -1,-1 -1,-1l-2 -1c0,0 0,0 -1,0l0 0c0,0 -1,-1 -1,-1 -1,0 -1,0 -2,0l-2 -1c0,-1 1,-3 0,-4 0,0 0,-1 0,-1 0,0 -1,-1 -1,-1 0,0 0,0 -1,0 0,-1 0,-1 0,-1 -1,0 -1,0 -1,0 -1,0 -1,0 -1,0 -1,0 -1,0 -2,0 0,0 0,0 0,1 0,0 0,0 0,0 -1,0 -1,0 -1,0l0 0c-1,1 -1,1 -1,2 0,1 0,1 0,2 0,1 0,2 0,2 -1,0 -2,1 -3,1 0,0 -1,0 -1,0l-3 2c0,0 -1,0 -2,1l-2 2c0,0 -2,2 -2,2l0 0c-1,1 -1,1 -1,2l-1 1c0,0 0,0 0,0l-1 1c0,0 0,1 -1,1l0 2c0,0 0,0 0,0 0,0 0,0 0,0 0,0 0,0 0,1 0,0 0,0 0,0 0,0 0,0 0,0 -1,0 -1,0 -1,1 0,0 0,0 0,0 0,1 0,1 0,1l0 2c0,1 0,1 0,2 0,1 0,2 0,3 0,1 0,2 -1,3 0,1 0,1 0,1 0,0 0,0 0,1 0,0 0,0 0,0 0,1 0,1 0,1l-1 2c0,0 0,0 0,0 0,0 0,0 0,1 0,0 0,0 0,0l0 0c0,0 0,0 0,0 0,1 0,1 0,1 0,0 0,0 0,0 0,0 0,0 0,0 0,1 -1,1 -1,1l0 1c0,0 0,0 0,1l-1 0c0,0 0,1 0,1l-1 0c0,1 0,1 0,1l-2 2c0,0 0,0 0,0 0,0 0,0 0,0l0 0c0,0 0,0 0,1l-1 1c-1,1 -1,0 -1,1 0,0 0,0 0,0 0,0 0,1 0,1 0,0 0,1 0,1 0,1 0,0 0,1l1 1c0,0 0,0 0,0 0,0 0,0 0,1l0 0c1,0 1,0 1,0l1 0c0,0 1,1 1,1 1,0 5,0 7,0l28 0c0,-5 1,-9 4,-12 3,-3 7,-5 12,-5l0 0c0,0 0,0 0,0 0,0 0,0 0,0 0,0 0,0 0,0 0,-1 0,0 0,-1 0,0 0,0 0,0 0,0 0,0 0,0 0,-1 0,-1 0,-1 -1,0 -1,0 -1,0 0,0 0,0 0,0 0,0 0,-1 0,-1 0,0 0,0 0,0 0,0 0,-1 0,-2 0,0 0,0 0,0l0 -1c0,-1 -1,-1 -1,-1 0,-1 0,-1 0,-1 0,0 0,-1 0,-1l0 -2c0,-1 0,-3 0,-3 0,-1 0,-1 0,-1 0,0 0,0 0,-1 0,0 0,-1 0,-1 0,0 0,0 0,-1l-1 0c0,-1 0,-1 0,-3 0,0 0,0 -1,0 0,0 0,0 0,0l0 -1c0,0 0,0 0,-1l-1 -1c-1,-1 -1,-2 -2,-2 0,-1 0,-1 0,-1 0,0 -1,0 -1,0l-1 -1c0,0 0,-1 0,-1zm-2 46l11 0c1,0 2,0 3,0 1,0 0,0 1,0 1,-1 1,-1 1,-1l1 0c0,0 0,0 0,0 0,0 0,0 0,0 0,0 0,-1 0,-1 1,0 1,-1 1,-1 0,-1 0,-1 0,-1 0,0 0,-1 0,-2 0,0 0,0 0,-1 -1,-1 -1,-1 -2,-1l0 -1c0,0 0,0 0,0l0 0c0,0 0,0 0,0l0 0c0,0 0,0 0,0 -1,-1 -1,-1 -1,-1 -1,-1 -3,-1 -4,-1 -3,0 -6,1 -8,3 -2,2 -3,5 -3,8zm-21 7c0,1 0,1 0,1 0,1 0,1 1,1l0 0c0,1 0,1 1,1l1 1c0,0 0,0 0,0 0,0 0,0 0,0l1 1c0,0 0,0 0,0 1,0 1,0 1,0l1 1 1 0c1,0 2,0 2,0 1,0 1,0 1,0 0,0 0,0 0,0 1,0 0,0 1,-1 1,0 1,0 1,0 1,0 1,0 1,-1l1 0c0,-1 1,-1 1,-1 0,0 0,0 0,0 1,-1 1,-2 2,-3 0,0 0,-1 0,-1 0,-1 -1,-1 -1,-2l-12 0c-2,0 -3,0 -5,0 0,1 0,2 1,3 0,0 0,0 0,0z"/>
  <circle class="fil1" cx="55" cy="58" r="13"/>
 </g>
</svg>
