<?xml version="1.0" encoding="UTF-8"?>
<!DOCTYPE svg PUBLIC "-//W3C//DTD SVG 1.1//EN" "http://www.w3.org/Graphics/SVG/1.1/DTD/svg11.dtd">
<!-- Creator: CorelDRAW X8 -->
<svg xmlns="http://www.w3.org/2000/svg" xml:space="preserve" width="37.8859mm" height="33.1511mm" version="1.1" style="shape-rendering:geometricPrecision; text-rendering:geometricPrecision; image-rendering:optimizeQuality; fill-rule:evenodd; clip-rule:evenodd"
viewBox="0 0 533 466"
 xmlns:xlink="http://www.w3.org/1999/xlink">
 <defs>
  <style type="text/css">
   <![CDATA[
    .fil0 {fill:#CCCCCC}
   ]]>
  </style>
 </defs>
 <g id="Camada_x0020_1">
  <metadata id="CorelCorpID_0Corel-Layer"/>
  <path class="fil0" d="M16 133l51 0c0,7 0,16 0,23l0 251c0,7 0,15 0,23 0,6 -1,17 0,22l4 8c1,2 4,4 6,5 5,2 38,1 44,0 2,0 6,-2 8,-4 6,-7 4,-18 4,-30l0 -297c1,-1 -1,0 1,-1 5,-1 42,1 51,0 4,0 4,-1 6,-2 7,-3 9,-10 9,-17 0,-3 -3,-7 -5,-9 0,0 0,-1 -1,-1l-6 -8c0,0 -1,-1 -1,-1l-4 -5c0,0 0,0 0,0 0,0 0,0 0,0 -6,-6 -6,-8 -11,-13l-15 -18c-3,-4 -3,-3 -6,-7l-7 -8c0,0 -1,-1 -1,-1l-8 -10c-2,-3 -5,-7 -8,-9l-7 -10c-1,0 -2,-1 -2,-2 -1,-1 -2,-2 -2,-3 -1,0 -2,-1 -2,-2l-1 0c-2,-3 -3,-5 -7,-6 -3,0 -3,-1 -7,-1 -2,0 -2,0 -4,1 0,0 -1,0 -1,0 -2,1 -1,1 -2,1l-1 1c-1,1 0,0 -1,1 -2,1 -5,5 -7,7l-11 14c-1,1 -1,1 -2,2 -1,1 -1,1 -2,2 -3,4 -6,8 -10,12 0,0 0,0 0,1l-5 6c-2,2 -9,10 -10,12 -2,3 -7,8 -10,11l-4 6c-1,2 -3,3 -4,5l-17 20c-2,1 -3,4 -5,6 -2,2 -1,1 -2,4 -1,1 -1,1 -1,3 0,1 0,3 0,4l3 6c2,5 8,8 13,8zm219 323c0,1 1,3 2,4l2 1c1,1 0,1 1,2 1,1 1,0 2,1 2,1 1,1 5,1 1,1 1,1 2,1 2,1 53,0 61,0 8,0 4,1 9,0 1,-1 2,-1 3,-1 3,-1 -2,1 2,-1l4 -3c1,-1 1,-2 2,-2 4,-5 3,-15 3,-21 0,-9 1,-20 -1,-27 -1,-2 -4,-6 -6,-8 -3,-2 -6,-3 -11,-3 -8,0 -63,0 -68,1 -3,0 -4,1 -6,2 -4,3 -5,5 -7,10 0,2 0,13 0,16l0 21c0,1 0,2 0,3 1,2 1,1 1,3zm11 -124l93 0c8,0 42,1 47,0 2,0 7,-3 8,-4 2,-2 3,-5 4,-7 2,-3 1,-17 1,-22 0,-9 2,-20 -5,-27 -2,-3 -7,-5 -10,-5 -15,0 -31,0 -46,0 -15,0 -31,0 -47,0 -15,0 -31,0 -46,1 -1,0 -2,0 -3,1 -4,2 -7,5 -8,9 -1,4 -1,41 0,44 1,1 3,6 5,7 0,0 1,0 1,1 1,0 2,1 2,1 1,0 3,1 4,1zm-7 -137c7,7 14,5 25,5l184 0c4,0 10,-1 12,-4 1,0 3,-2 3,-4l2 -4c1,-1 1,0 1,-1l0 -38c0,-2 0,-2 -1,-4l-2 -4c-2,-4 -6,-6 -10,-7 -7,0 -15,0 -22,0l-175 0c-10,0 -12,0 -18,5 -1,2 -1,2 -2,3l-1 4c-1,3 -1,8 -1,10 0,7 -1,27 1,32 2,6 3,5 4,7zm-1 -133c3,0 3,2 7,4 3,1 72,0 77,0l175 0c7,0 15,0 22,0 5,0 11,-6 12,-10 2,-5 2,-13 2,-20 0,-7 0,-15 0,-22 -1,-1 -1,-5 -4,-8 -3,-3 -7,-6 -11,-6 -2,0 -4,0 -6,0l-250 0c-3,0 -15,0 -17,0 -1,1 -2,1 -2,1 -1,1 0,0 -1,1l-4 2c0,0 0,1 0,1l-4 8c-1,4 -1,37 0,41 0,2 1,3 2,4 1,2 1,3 2,4z"/>
 </g>
</svg>
