<?xml version="1.0" encoding="UTF-8"?>
<!DOCTYPE svg PUBLIC "-//W3C//DTD SVG 1.1//EN" "http://www.w3.org/Graphics/SVG/1.1/DTD/svg11.dtd">
<!-- Creator: CorelDRAW -->
<svg xmlns="http://www.w3.org/2000/svg" xml:space="preserve" width="16.9332mm" height="12.0222mm" version="1.1" style="shape-rendering:geometricPrecision; text-rendering:geometricPrecision; image-rendering:optimizeQuality; fill-rule:evenodd; clip-rule:evenodd"
viewBox="0 0 1693.34 1202.23"
 xmlns:xlink="http://www.w3.org/1999/xlink"
 xmlns:xodm="http://www.corel.com/coreldraw/odm/2003">
 <defs>
  <style type="text/css">
   <![CDATA[
    .fil0 {fill:#829497}
   ]]>
  </style>
 </defs>
 <g id="PowerClip_x0020_Contents">
  <metadata id="CorelCorpID_0Corel-Layer"/>
  <path class="fil0" d="M480.37 816.01c4.56,31.86 55.35,328.75 64.62,348.9 19.92,43.3 75.99,48.02 103.03,10.27 14.76,-20.61 12.37,-37.86 7,-65.55 -17.81,-91.84 -33.58,-186.67 -50.69,-281.4 -8.43,-46.68 -10.73,-105.59 -40.25,-126.77 -28.83,-20.66 -113.77,-9.26 -154.55,-12.04l-17.02 -209.98c20.4,5.79 39.91,23.09 89.07,33.39 36.02,7.55 82.17,5.73 120.18,5.5 44.34,-0.28 79.01,3.31 91.07,-33.81 12.72,-39.14 -16.48,-65.68 -52.72,-66.26 -173.63,-2.77 -140.69,11.69 -286.61,-85.78 -113.71,-75.96 -216.93,-5.62 -220.89,84.8 -1.48,33.82 37.29,260.9 47.65,324.63 15.4,94.69 65.24,72.09 175.06,73.23 40.01,0.41 85.86,-2.55 125.05,0.87zm964.83 46.87c-38.98,0.59 -153.15,-2.81 -168.37,4.07 -14.37,6.48 -26.57,21.89 -23.66,43.16 2.75,20.11 17.47,25.98 31.64,34.83 -5.17,50.71 -44.5,184.97 -45.54,211.81 -0.97,25.48 18.77,44.85 42.56,43.93 58.49,-2.25 56.17,-174.28 90.48,-255.25l127.15 -2.75c6.12,45.64 24.11,102.96 34.25,149.31 8.71,39.76 15.24,131.11 73.21,104.83 63.26,-28.69 -33.4,-201.74 -31.16,-291.23 70.66,-36.92 72.81,-167.11 86.21,-240.25 8.16,-44.57 15.84,-95.35 22.17,-140.38 6.36,-45.21 28.08,-114.95 -30.68,-113.92 -46.89,0.82 -44.6,68.91 -51.11,111.45 -7.54,49.19 -15.59,95.19 -22.75,144.37 -19.31,132.58 -10.93,194.02 -134.4,196.02zm-1326.66 43.61c-2.96,38.94 -23.75,108.5 -33.11,150.76 -9.56,43.2 -40.96,120.4 1.06,139.11 57.47,25.58 64,-55.89 73.48,-99.73 10.32,-47.65 29.77,-108.85 34.88,-154.27l127.47 1.62c12.86,41.05 22.7,95.67 33.33,139.67 9.99,41.37 14.79,116.9 58.52,117.2 22.62,0.15 42.53,-19.53 41.29,-43.86 -0.8,-15.64 -12.1,-52.99 -16.03,-70.23 -6.5,-28.55 -33.33,-123.32 -31.69,-145.29 24.84,-10.86 42.63,-33.51 23.61,-62.07 -30.93,-46.45 -207.25,12.69 -264.88,-37.15 -40.24,-34.79 -38.79,-86.56 -49.44,-152.7 -9.4,-58.31 -18.51,-117.93 -27.87,-176.94 -3.07,-19.35 -8.11,-69.28 -15.86,-84.03 -12.91,-24.55 -50.42,-25.99 -67.58,-3.22 -17.34,23.02 9.77,138.36 15.22,173.79 8.87,57.69 18.21,116.6 27.1,173.44 10.26,65.57 32.61,109.24 70.5,133.9zm689.39 -260.75l0.1 472.89c-20.8,0.59 -43.03,-1.98 -57.07,10.1 -11.96,10.3 -18.52,29.02 -10.09,48.32 14.35,32.82 63.35,24.21 107.32,24.04 43.13,-0.18 93.52,8.85 107.61,-23.62 8.27,-19.05 -0.41,-38.93 -10.87,-48.23 -14.36,-12.78 -35.65,-9.06 -57.8,-11.13l-0.58 -471.75c82.97,-8.1 218.56,4.15 294.68,-1.3 28.18,-2.02 50.39,-24.43 39.86,-55.33 -9.63,-28.25 -39.33,-26.87 -70.93,-26.85l-593.54 0.05c-33.62,-0.21 -66.83,-4.18 -80.24,20.64 -15.91,29.47 4.95,56.71 29.37,60.73 21.07,3.46 259.82,0.11 302.17,1.44zm492.71 -166.15l-14.65 210.43c-181.94,0.05 -167.32,-16.46 -195.3,136.07 -17.25,94.02 -33.4,187.02 -50.61,279.49 -4.73,25.35 -8.16,44.16 6.17,64.77 9.56,13.76 29.19,28.55 54.93,26.79 51.42,-3.51 53.7,-55.94 62.62,-103.37 17.6,-93.49 34.92,-189.4 50.79,-281.98 41.08,-0.48 81.98,0.59 123.01,0.56 198.47,-0.13 156.61,39.37 209.38,-282.95 5.2,-31.8 15.05,-76.56 14.95,-108.55 -0.23,-70.81 -55.43,-121.22 -127.12,-122.53 -62.49,-1.14 -102.46,39 -165.66,81.94 -70.44,47.86 -112.72,37.72 -209.37,38 -79.43,0.23 -71.63,78.62 -30.87,95.76 21,8.84 153.31,4.33 178.28,-0.38 17.73,-3.34 35.39,-8.53 49.7,-13.93 13.9,-5.25 29.68,-15.17 43.75,-20.12zm109.67 -476.87c-173.38,34.54 -121.27,292.34 49.69,259.1 61.31,-11.93 120.28,-75.86 104.09,-155.42 -12.37,-60.81 -72.82,-119.81 -153.78,-103.68zm-1178.64 1.03c-171.31,41.28 -111.86,293.62 57.4,257.14 62.01,-13.37 117.69,-77.61 99.74,-158.29 -13.62,-61.2 -78.07,-117.9 -157.14,-98.85z"/>
 </g>
</svg>
