<?xml version="1.0" encoding="UTF-8"?>
<!DOCTYPE svg PUBLIC "-//W3C//DTD SVG 1.1//EN" "http://www.w3.org/Graphics/SVG/1.1/DTD/svg11.dtd">
<!-- Creator: CorelDRAW 2020 (64-Bit) -->
<svg xmlns="http://www.w3.org/2000/svg" xml:space="preserve" width="19.5665mm" height="19.5664mm" version="1.1" style="shape-rendering:geometricPrecision; text-rendering:geometricPrecision; image-rendering:optimizeQuality; fill-rule:evenodd; clip-rule:evenodd"
viewBox="0 0 169.74 169.74"
 xmlns:xlink="http://www.w3.org/1999/xlink"
 xmlns:xodm="http://www.corel.com/coreldraw/odm/2003">
 <defs>
  <style type="text/css">
   <![CDATA[
    .fil0 {fill:#6C757D}
   ]]>
  </style>
 </defs>
 <g id="Layer_x0020_1">
  <metadata id="CorelCorpID_0Corel-Layer"/>
  <path class="fil0" d="M-0 82.95c0,7.68 0.57,11.55 5.27,17.73l21.56 21.76c1.09,0.69 0.43,0.1 4.08,0.1 3.16,0 6.7,0.16 9.82,0.01 2.21,-0.1 5.74,-1.28 7.24,-2.19 3.8,-2.3 20.41,-19.64 24.71,-23.93 6.19,-6.19 6.79,-7.82 14.8,-7.82 4.89,0 8.9,5.32 11.59,8.01l19.61 19.61c7.43,7.52 13.01,6.31 23.47,6.31 1.15,0 3.4,-2.84 4.24,-3.68 4.28,-4.28 17.04,-16.49 19.45,-20.14 5.19,-7.89 5.19,-19.88 0,-27.77 -2.4,-3.65 -15.17,-15.86 -19.45,-20.14 -4.72,-4.72 -1.68,-3.68 -14.05,-3.68 -8.52,0 -13.17,5.82 -18.38,11.03 -3.15,3.15 -19.56,20.27 -22.59,21.91 -3.71,2.01 -8.63,1.45 -11.81,-0.52 -4.15,-2.58 -26.41,-26.69 -30.02,-29.18 -3.29,-2.28 -6.04,-3.25 -11.47,-3.23 -2.51,0.01 -5.04,0.02 -7.55,0.01 -4.25,-0.02 -2.71,-0.92 -5.17,1.59 -4,4.09 -19.39,18.65 -21.81,22.68 -1.66,2.76 -3.54,7.33 -3.54,11.54zm34.31 46.76l33.08 33.28c8.92,8.97 25.86,8.96 34.7,0.19 2.74,-2.71 32.17,-31.84 33.27,-33.47 -14.8,0 -18.21,-4.83 -27.62,-14.23l-15.65 -15.65c-7.36,-7.36 -7.36,-5.27 -17.91,5.28 -4.41,4.41 -17.75,18.54 -21.93,21.06 -5.7,3.44 -9.21,3.55 -17.95,3.55zm0 -89.74c8.76,0 11.99,0.1 17.71,3.41 4.49,2.6 21.79,20.83 27.25,26.29 7.6,7.6 7.2,5.81 17.72,-4.71 3.61,-3.61 6.95,-6.95 10.56,-10.56 3.43,-3.43 6.92,-7.42 10.99,-10.13 4.95,-3.3 8.81,-4.29 16.82,-4.29 -1.09,-1.63 -3.82,-4 -5.37,-5.56l-16.59 -16.59c-7.76,-7.76 -15.34,-17.82 -26.68,-17.82 -7.67,0 -13.75,1.15 -19.14,6.5 -2.74,2.71 -32.17,31.84 -33.27,33.47z"/>
 </g>
</svg>
