<?xml version="1.0" encoding="UTF-8"?>
<!DOCTYPE svg PUBLIC "-//W3C//DTD SVG 1.1//EN" "http://www.w3.org/Graphics/SVG/1.1/DTD/svg11.dtd">
<!-- Creator: CorelDRAW X8 -->
<svg xmlns="http://www.w3.org/2000/svg" xml:space="preserve" width="22.2548mm" height="22.2549mm" version="1.1" style="shape-rendering:geometricPrecision; text-rendering:geometricPrecision; image-rendering:optimizeQuality; fill-rule:evenodd; clip-rule:evenodd"
viewBox="0 0 140 140"
 xmlns:xlink="http://www.w3.org/1999/xlink">
 <defs>
  <style type="text/css">
   <![CDATA[
    .fil0 {fill:white}
   ]]>
  </style>
 </defs>
 <g id="Camada_x0020_1">
  <metadata id="CorelCorpID_0Corel-Layer"/>
  <path class="fil0" d="M70 0c39,0 70,31 70,70 0,39 -31,70 -70,70 -39,0 -70,-31 -70,-70 0,-39 31,-70 70,-70zm-4 99l0 -22c0,-7 -2,-8 -7,-10 -4,-2 -8,-4 -12,-6 -15,-7 -13,-3 -13,15 0,16 -2,17 11,23 4,2 8,4 12,5 5,3 9,2 9,-5zm0 -66c-5,2 -11,6 -16,8 -4,2 -16,5 -11,11 1,1 14,6 16,7 5,3 12,7 18,5 3,-1 27,-11 28,-13 3,-6 -8,-8 -17,-13 -5,-2 -12,-7 -18,-5zm41 26c-5,-3 -8,0 -14,2 -20,9 -20,6 -20,21 0,19 -3,27 15,20 20,-8 19,-7 19,-22 0,-6 1,-14 0,-21zm-37 -47c32,0 58,26 58,58 0,32 -26,58 -58,58 -32,0 -58,-26 -58,-58 0,-32 26,-58 58,-58z"/>
 </g>
</svg>
