<?xml version="1.0" encoding="UTF-8"?>
<!DOCTYPE svg PUBLIC "-//W3C//DTD SVG 1.1//EN" "http://www.w3.org/Graphics/SVG/1.1/DTD/svg11.dtd">
<!-- Creator: CorelDRAW X8 -->
<svg xmlns="http://www.w3.org/2000/svg" xml:space="preserve" width="26.0945mm" height="26.1148mm" version="1.1" style="shape-rendering:geometricPrecision; text-rendering:geometricPrecision; image-rendering:optimizeQuality; fill-rule:evenodd; clip-rule:evenodd"
viewBox="0 0 108 109"
 xmlns:xlink="http://www.w3.org/1999/xlink">
 <defs>
  <style type="text/css">
   <![CDATA[
    .fil0 {fill:#BF4DDC}
   ]]>
  </style>
 </defs>
 <g id="Camada_x0020_1">
  <metadata id="CorelCorpID_0Corel-Layer"/>
  <path class="fil0" d="M92 10c-1,0 -1,0 -2,-1l-6 -6c0,0 0,0 0,0 0,0 0,0 0,0 0,0 0,0 0,-1l-1 0c0,0 -1,-1 -2,-1 0,0 0,0 -1,0 -2,-1 -5,-1 -7,-1l-59 0c-1,0 -4,0 -5,0l-1 1c-1,0 -1,0 -1,0 0,0 0,0 -1,0 0,1 -1,1 -1,1 -1,1 -1,1 -1,1l-1 0c0,0 0,0 0,0l0 1c-1,1 -2,3 -3,4 0,1 0,1 0,1 0,1 0,9 0,10l0 65c0,4 0,11 0,15 0,0 0,0 0,1l2 4c0,0 0,0 0,0l1 1c0,0 0,0 0,0l3 2c1,0 1,1 1,1l2 0c0,0 0,0 0,0 1,0 0,1 2,1l56 0c9,0 17,-1 26,0 1,0 5,0 6,-1 0,0 0,0 0,0 1,0 1,0 1,0 0,0 1,0 2,-1 2,-1 4,-2 5,-4 0,-1 0,0 0,-1 1,-1 1,-2 1,-3 1,-1 0,-6 0,-8 0,-2 0,-4 0,-6l0 -39c0,-2 1,-14 0,-15 0,0 0,-1 0,-1l0 -2c-1,-1 0,0 -1,-2 -1,-1 -2,-2 -3,-3l-4 -4c-1,-1 -2,-3 -3,-3l-3 -3c0,0 -1,-2 -2,-2 0,0 0,0 0,-1zm-50 58c0,0 -1,1 -1,1l-1 2c0,0 0,0 0,0l0 1c0,1 0,0 0,1 0,0 0,0 -1,1 0,0 0,0 0,0 0,1 0,1 0,1 0,1 0,5 0,6l1 2c0,1 1,2 1,3 0,0 1,0 1,0 0,1 1,2 1,2l0 1c1,0 1,0 1,0l2 2c1,0 0,0 1,0l4 2c1,0 1,0 2,0 1,0 3,0 4,0 1,0 2,-1 2,-1 1,0 1,0 1,0l1 -1c1,0 1,0 1,0 0,0 0,0 0,0l0 0c0,0 0,0 0,-1 1,0 1,0 1,0l1 0c0,0 0,0 0,-1 0,0 1,0 1,0l0 -1c1,0 1,0 1,-1 1,0 2,-2 2,-3 1,-1 1,-1 1,-2 0,0 0,0 0,-1 0,-1 0,0 0,-1 1,-2 1,-3 0,-6 0,0 0,0 0,-1 0,0 0,0 0,-1 -1,-2 -1,-2 -2,-3 -1,-1 -2,-3 -4,-4 -2,-2 -5,-3 -9,-3 -1,0 -2,0 -4,1 0,0 -1,0 -2,0 0,0 0,0 0,1 -1,0 -1,0 -1,0 -1,0 -3,1 -3,2 -1,1 -2,2 -2,2zm-26 -23c1,2 3,2 5,2l17 0c8,-1 16,-1 24,0l13 -1c0,0 0,0 0,0 1,0 1,0 1,0 0,0 1,0 1,-1 1,-1 0,-3 0,-4l0 -21c0,-2 0,-2 -1,-3 -1,-1 0,-1 -1,-1 0,0 0,0 -1,0 0,0 -20,0 -21,0 -3,0 -7,0 -11,0 -4,0 -7,0 -11,0 -4,0 -8,0 -11,0 -1,0 -1,0 -2,0 0,0 0,0 -1,0 -1,0 -1,1 -1,1 0,1 0,5 0,6 0,5 0,11 0,17l0 4c0,0 0,0 0,1 0,0 0,0 0,0z"/>
 </g>
</svg>
