<?xml version="1.0" encoding="UTF-8"?>
<!DOCTYPE svg PUBLIC "-//W3C//DTD SVG 1.1//EN" "http://www.w3.org/Graphics/SVG/1.1/DTD/svg11.dtd">
<!-- Creator: CorelDRAW 2020 (64-Bit) -->
<svg xmlns="http://www.w3.org/2000/svg" xml:space="preserve" width="22.255mm" height="22.255mm" version="1.1" style="shape-rendering:geometricPrecision; text-rendering:geometricPrecision; image-rendering:optimizeQuality; fill-rule:evenodd; clip-rule:evenodd"
viewBox="0 0 58.56 58.56"
 xmlns:xlink="http://www.w3.org/1999/xlink"
 xmlns:xodm="http://www.corel.com/coreldraw/odm/2003">
 <defs>
  <style type="text/css">
   <![CDATA[
    .fil1 {fill:none}
    .fil0 {fill:white}
   ]]>
  </style>
 </defs>
 <g id="Layer_x0020_1">
  <metadata id="CorelCorpID_0Corel-Layer"/>
  <g id="_2357275100768">
   <path class="fil0" d="M9.72 32.22c0.85,-1.26 1.32,-1.79 1.32,-3.48 0,-2.22 -1.85,-3.98 -3.84,-4.44 0.13,-0.48 0.83,-1.56 1.08,-2.04l2.21 -4.03c0.43,-0.72 0.77,-1.38 1.15,-2.09 0.42,0.11 0.38,0.23 0.72,0.48 0.71,0.52 1.68,0.94 2.64,0.96 -0.73,-1 -2.52,-0.97 -2.52,-3.72 0,-1.49 2.5,-2.45 3.91,-3.29 0.4,-0.24 1.24,-0.81 1.61,-0.91 -0.14,-0.52 -0.64,-0.53 -1.12,-0.8l-2.46 -1.38c-0.3,-0.18 -1.04,-0.62 -1.34,-0.7 -0.54,0.36 -4.45,7.8 -4.96,8.72l-7.33 13.31c-0.28,0.47 -0.66,1.07 -0.79,1.61l22.72 12.56c2.38,1.21 4.66,2.65 7.04,3.88l1.46 0.82c0.45,0.28 0.9,0.52 1.38,0.78 0.53,0.29 0.98,0.56 1.48,0.8 0.5,0.24 0.87,0.48 1.4,0.76 0.32,0.17 0.36,0.23 0.68,0.4l2.88 1.56c0.96,0.54 5.89,3.46 6.56,3.52 0.27,-0.52 0.52,-0.92 0.8,-1.48 0.16,-0.33 0.25,-0.43 0.4,-0.68 0.16,-0.27 0.24,-0.48 0.42,-0.78l10.11 -18.33c0.4,-0.72 1.05,-1.55 1.24,-2.36 -0.34,-0.23 -0.51,-0.31 -0.92,-0.52 -1.61,-0.79 -3.14,-1.78 -4.72,-2.6l-11.44 -6.32c-0.68,-0.35 -1.25,-0.72 -1.92,-1.08l-3.8 -2.08c-2.05,-1.01 -5.35,-2.96 -7.68,-4.2l-3.12 1.92c0.52,0.14 1.16,0.6 1.65,0.88 0.09,0.05 0.15,0.08 0.23,0.13 0.25,0.15 0.11,0.04 0.28,0.2 -2.31,0 -4.55,1.09 -6.24,2.28 -0.83,0.59 -1.6,1.31 -2.25,2.07 -0.26,0.3 -0.41,0.47 -0.65,0.79 -2.39,3.25 -3.07,8.42 -1.27,12.22l0.07 0.53c-1.06,-0.69 -2.3,-1.23 -3.39,-1.89 -0.67,-0.4 -3.06,-1.81 -3.67,-1.97zm17.16 -26.4c-1.45,0 -2.49,0.62 -3.36,1.2 -2.64,1.75 -5.8,4.05 -8.6,5.44 -4.09,2.03 0.94,5.76 5.31,5.07 1.37,-0.21 2.48,-0.7 3.55,-1.13 1.37,-0.56 4.4,-2.45 4.41,-2.45 0.74,-0.23 0.92,0.37 1.45,0.75l11.92 6.68c0.55,0.29 6.08,3.28 6.08,3.28 2.91,0 7.65,-2 9.53,-4.51 1.51,-2.02 1.48,-1.53 -0.99,-5.24 -1.28,-1.93 -3.99,-5.32 -5.57,-7.03 -0.98,-1.05 -3.95,-4.04 -5.13,-4.83l-0.84 0.6c-1.64,1.08 -4.13,2.31 -5.78,3.34 -0.52,0.33 -0.47,0.31 -1.23,0.19l-10.75 -1.38zm14.64 20.28l6.35 3.49c0.31,0.18 0.54,0.38 0.97,0.47 -0.82,1.23 -1.32,1.29 -1.32,3.48 0,1.16 0.66,2.26 1.2,2.88 0.63,0.73 1.68,1.33 2.64,1.56l-4.44 8.16c-0.64,-0.17 -1.28,-1.44 -3.84,-1.44 -1.97,0 -4.05,1.71 -4.2,3.48 -0.54,-0.13 -2.08,-1.08 -2.68,-1.4 -0.7,-0.37 -4.04,-2.15 -4.52,-2.56 0.81,-0.19 1.53,-0.29 2.35,-0.53 0.39,-0.11 0.69,-0.24 1.04,-0.4 1.92,-0.83 1.98,-0.97 3.57,-2.19 0.66,-0.51 0.96,-0.92 1.47,-1.53 0.23,-0.27 0.42,-0.51 0.62,-0.82 2.56,-3.77 2.63,-8.53 0.79,-12.65zm-6.72 -2.04c1.24,0.83 2.4,1.98 3.24,3.24l-2.13 1.95c-0.28,0.28 -0.44,0.48 -0.75,0.69 -0.25,-0.19 -2.37,-3.48 -4.32,-3.48 -0.49,0 -1.23,0.65 -0.7,1.78 1.06,2.3 5.83,5.42 1.75,10.31 -0.64,0.77 -2.07,1.59 -3.45,1.59 -1,0 -1.61,-0.3 -2.4,-0.48 -0.15,0.63 -0.58,1.05 -0.72,1.56 -0.61,-0.32 -1.37,-0.71 -1.92,-1.08 0.14,-0.6 0.56,-0.86 0.72,-1.56 -0.67,-0.18 -3.36,-2.7 -3.36,-3.36 0,-0.36 1.74,-2.96 1.92,-3.72 0.73,0.54 2.63,4.56 5.52,4.56 0.37,0 0.84,-0.76 0.84,-0.96 0,-2.12 -6.38,-5.85 -2.19,-10.95 2.15,-2.62 4.09,-1.62 6.03,-1.17 0.16,-0.7 0.58,-0.96 0.72,-1.56 0.6,0.16 1.31,0.82 1.92,0.96 -0.06,0.78 -0.54,0.92 -0.72,1.68z"/>
   <rect class="fil1" width="58.56" height="58.56"/>
  </g>
 </g>
</svg>
