<?xml version="1.0" encoding="UTF-8"?>
<!DOCTYPE svg PUBLIC "-//W3C//DTD SVG 1.1//EN" "http://www.w3.org/Graphics/SVG/1.1/DTD/svg11.dtd">
<!-- Creator: CorelDRAW 2020 (64-Bit) -->
<svg xmlns="http://www.w3.org/2000/svg" xml:space="preserve" width="22.255mm" height="22.255mm" version="1.1" style="shape-rendering:geometricPrecision; text-rendering:geometricPrecision; image-rendering:optimizeQuality; fill-rule:evenodd; clip-rule:evenodd"
viewBox="0 0 62.55 62.55"
 xmlns:xlink="http://www.w3.org/1999/xlink"
 xmlns:xodm="http://www.corel.com/coreldraw/odm/2003">
 <defs>
  <style type="text/css">
   <![CDATA[
    .fil1 {fill:none}
    .fil0 {fill:white}
   ]]>
  </style>
 </defs>
 <g id="Layer_x0020_1">
  <metadata id="CorelCorpID_0Corel-Layer"/>
  <g id="_2357274657040">
   <path class="fil0" d="M30.2 0.03c-6,0.27 -11.32,2.59 -15.51,6.13l-1.86 1.74c-2,2.05 -3.1,3.06 -4.86,6.06 -1.32,2.25 -2.67,4.91 -3.34,7.58 -0.33,1.32 0.19,1.93 0.73,2.73 0.98,1.47 1.94,2.91 2.93,4.39l8.64 12.96c0.72,1.08 0.97,1.01 0.97,2.61l-0 14.52c0,1.28 -0.07,2.36 0.66,3.08 1.05,1.04 4.77,0.62 6.57,0.62l14.52 0c6.08,0 5.02,-0.13 5.02,-9.39l-0 -9.06c-0.01,-0.89 -0.08,-0.85 0.35,-1.48 1.93,-2.82 12.81,-18.98 12.96,-19.68 0.3,-1.33 -1.12,-4.45 -1.6,-5.56 -1.63,-3.76 -4.27,-7.14 -6.76,-9.51 -1.08,-1.03 -1.57,-1.54 -2.92,-2.54 -4.62,-3.43 -10.3,-5.49 -16.5,-5.21zm0.26 45.84c-3.66,0.31 -4,4.95 -1.21,6.2 1.04,0.47 3.83,1.01 4.15,1.42 0.33,0.42 0.27,1.03 -0.1,1.36 -0.39,0.34 -0.98,0.24 -1.56,0.24 -0.61,-0.01 -1.21,0.06 -1.71,-0.15 -0.63,-0.26 -0.83,-0.32 -1.24,0.16 -0.45,0.53 -1.66,1.05 0.24,1.9 0.58,0.26 0.98,0.2 1.49,0.38 0,1.28 -0.27,1.75 1.09,1.73 0.52,-0.01 0.95,0.07 1.13,-0.31 0.13,-0.27 0.09,-0.98 0.09,-1.32 0.08,-0.27 0.49,0 1.37,-0.47 2.47,-1.33 2.14,-4.72 -0.03,-5.79 -1.14,-0.56 -3.69,-0.97 -4.15,-1.42 -0.33,-0.32 -0.43,-0.92 -0.06,-1.34 0.34,-0.38 0.91,-0.31 1.51,-0.31 0.57,0.01 1.24,-0.06 1.76,0.12 1.03,0.37 0.74,0.41 1.7,-0.54 0.17,-0.16 0.38,-0.23 0.39,-0.58 0,-0.46 -0.65,-0.74 -1,-0.91 -0.58,-0.27 -0.88,-0.24 -1.5,-0.38 0,-1.6 0.15,-1.75 -1.16,-1.74 -1.68,0.02 -0.98,0.49 -1.2,1.74zm-20.47 -22.81c0.51,1.14 9.89,14.61 11.32,17.09l2.37 0.01c-0.39,-1.74 -1.38,-4.21 -1.97,-5.98l-2.99 -8.97c-0.15,-0.45 -0.29,-1.15 -0.55,-1.42 -0.14,-0.15 -1.09,-0.6 -1.38,-0.72 -2.83,-1.17 -4.12,-0.75 -6.81,0zm12.96 0.66l5.46 16.4 5.71 0.03 5.48 -16.44c-2.24,-0.88 -5.67,-1.39 -8.33,-1.39 -2.26,0 -6.5,0.52 -8.32,1.4zm15.92 16.41l2.37 0.02c1.14,-1.93 4.24,-6.38 5.66,-8.51 0.54,-0.81 5.37,-7.91 5.66,-8.59 -2.4,-0.65 -3.76,-1.24 -6.73,-0.03 -1.72,0.7 -1.52,0.69 -1.95,2l-3.02 9.06c-0.63,1.88 -1.55,4.22 -1.99,6.05z"/>
   <rect class="fil1" width="62.55" height="62.55"/>
  </g>
 </g>
</svg>
