<?xml version="1.0" encoding="UTF-8"?>
<!DOCTYPE svg PUBLIC "-//W3C//DTD SVG 1.1//EN" "http://www.w3.org/Graphics/SVG/1.1/DTD/svg11.dtd">
<!-- Creator: CorelDRAW X8 -->
<svg xmlns="http://www.w3.org/2000/svg" xml:space="preserve" width="168.31mm" height="168.829mm" version="1.1" style="shape-rendering:geometricPrecision; text-rendering:geometricPrecision; image-rendering:optimizeQuality; fill-rule:evenodd; clip-rule:evenodd"
viewBox="0 0 4597 4611"
 xmlns:xlink="http://www.w3.org/1999/xlink">
 <defs>
  <style type="text/css">
   <![CDATA[
    .fil0 {fill:#2298F7}
    .fil1 {fill:#F9FBFC}
   ]]>
  </style>
 </defs>
 <g id="Camada_x0020_1">
  <metadata id="CorelCorpID_0Corel-Layer"/>
  <path class="fil0" d="M2133 7c-701,55 -1265,390 -1668,908 -332,426 -500,1005 -459,1564 88,1205 1139,2226 2461,2125 1213,-92 2221,-1140 2123,-2472 -34,-463 -208,-896 -475,-1238 -108,-138 -219,-258 -350,-363 -461,-371 -1010,-573 -1632,-524z"/>
  <path class="fil1" d="M580 2306c14,15 13,14 32,29l963 723c45,34 103,84 146,106l-122 -570 1398 0 -123 570c30,-15 1096,-807 1142,-858l-565 -431c-98,-74 -191,-142 -287,-214l-288 -214 122 570 -1398 0 122 -570 -1104 825c-21,16 -25,19 -38,34z"/>
 </g>
</svg>
