<?xml version="1.0" encoding="UTF-8"?>
<!DOCTYPE svg PUBLIC "-//W3C//DTD SVG 1.1//EN" "http://www.w3.org/Graphics/SVG/1.1/DTD/svg11.dtd">
<!-- Creator: CorelDRAW X8 -->
<svg xmlns="http://www.w3.org/2000/svg" xml:space="preserve" width="22.255mm" height="19.4554mm" version="1.1" style="shape-rendering:geometricPrecision; text-rendering:geometricPrecision; image-rendering:optimizeQuality; fill-rule:evenodd; clip-rule:evenodd"
viewBox="0 0 208 182"
 xmlns:xlink="http://www.w3.org/1999/xlink">
 <defs>
  <style type="text/css">
   <![CDATA[
    .fil0 {fill:white}
   ]]>
  </style>
 </defs>
 <g id="Camada_x0020_1">
  <metadata id="CorelCorpID_0Corel-Layer"/>
  <path class="fil0" d="M0 31l0 22c0,2 0,3 2,4 2,2 5,1 7,1l29 0c1,0 1,1 2,1l4 5c1,1 2,2 3,3l2 2c2,2 4,4 6,6l1 2c0,0 0,0 1,0l0 0c0,1 1,2 2,3 1,1 1,2 2,0 0,0 0,0 1,0l4 -5c0,0 0,0 0,0 1,-1 3,-2 3,-3l1 -1c0,0 1,0 1,0 0,-1 0,-1 0,-1l0 0c0,0 0,0 0,0 1,-1 1,-1 2,-2l6 -7c1,-1 2,-1 2,-2l1 -1 -2 -2c0,0 0,0 0,0l-5 -6c-2,-1 -3,-3 -4,-4l-6 -6c0,0 0,0 -1,-1l-5 -5c-1,-2 -2,-3 -3,-4l-1 0c0,0 0,0 0,0 0,-1 -2,-3 -3,-3 -1,-1 -2,-1 -4,-1l-43 0c-2,0 -3,0 -4,2 -1,1 -1,2 -1,3zm160 68c0,1 -1,1 -1,1l-2 3c0,0 0,0 0,0 0,1 0,1 -1,2 0,0 0,0 0,1 0,3 0,17 0,17 0,0 0,0 -1,0 0,0 0,0 -1,0 0,0 -1,0 -2,0l-7 0c-2,0 -3,1 -3,-1 0,0 -1,-1 -2,-2l-2 -2c-1,-1 -2,-2 -3,-3l-2 -2c0,0 0,0 0,0l0 0c0,0 0,0 0,0 -1,-2 -3,-3 -4,-4l-4 -5c0,0 -1,0 -1,-1 0,0 -1,-1 -1,-1 -2,-2 -1,-2 -3,0 -1,1 -2,2 -3,3 0,0 0,0 0,0l-2 2c0,0 0,0 0,0 -1,1 -1,2 -2,2 -1,1 -1,2 -2,3 -1,1 -2,2 -3,3l-1 0c-1,1 -3,4 -4,5 0,0 0,0 0,0 0,0 -1,1 -1,1l-1 1c0,0 -1,1 -1,1 0,1 1,1 1,2l7 7c0,0 0,0 0,0l2 3c1,1 4,3 4,4 2,2 4,4 6,6 0,0 1,1 1,1l7 7c1,2 3,3 6,3l21 0c1,0 1,0 1,0 0,1 0,1 0,1l0 12c0,2 0,4 0,6 1,1 1,3 3,4 0,0 1,1 2,1 1,1 3,2 5,2l3 -1c0,0 0,0 0,0 3,-1 5,-4 7,-6l7 -7c1,0 1,-1 2,-1l2 -3c0,0 0,0 0,0 0,0 0,0 0,0l6 -6c1,-1 3,-3 4,-4l5 -5c0,0 0,0 0,0 1,-1 2,-1 3,-3 1,-1 1,-1 1,-1 1,-2 2,-3 2,-5 0,-2 0,-2 -1,-3 0,-3 -3,-5 -5,-7l0 0c0,0 0,0 0,0 -2,-2 -4,-4 -6,-6 0,-1 0,-1 0,-1l-2 -1c0,0 0,0 0,0l-1 -1c0,-1 0,-1 0,-1l-17 -16c0,-1 0,-1 -1,-1 0,0 0,-1 -1,-1 -1,-2 -2,-2 -4,-4 0,0 -1,0 -1,0 -2,-1 -4,-1 -6,0 -1,0 -1,0 -2,0l-1 1zm-21 -36c0,-1 2,-3 2,-3 2,-2 1,-2 4,-2 2,0 11,0 11,0 0,1 0,2 0,3 0,4 0,10 0,15 0,1 1,1 1,2 -1,1 1,3 1,3l2 2c1,1 4,1 4,1 1,0 2,1 3,0 1,0 1,0 3,0 0,-1 0,-1 1,-1 1,-1 3,-3 4,-4l2 -2c2,-2 5,-5 7,-7 0,0 0,0 1,-1 1,-1 3,-2 4,-4 1,-1 2,-3 3,-3l4 -4c0,0 1,-1 1,-2l7 -6c1,-1 1,-1 1,-1 2,-3 2,-3 3,-6 0,-2 -1,-4 -2,-6l-4 -4c0,0 0,0 0,0l-1 -1c0,-1 0,0 0,-1l-2 -2c0,0 -1,0 -1,-1l0 0c0,0 0,0 -1,0l0 0c0,-1 0,-1 0,-1 0,0 0,0 0,0 -2,-1 -3,-3 -5,-5l0 0c-1,0 -1,0 -1,-1l-2 -1c-1,-1 -2,-3 -3,-4 0,0 0,0 0,0l-3 -3c0,0 0,0 0,0l-8 -8c0,0 -1,0 -1,-1l-1 0c0,0 0,0 0,0 0,0 0,0 0,0 0,0 0,0 0,-1l-1 0c0,-1 -2,-2 -3,-2 -3,-2 -6,-1 -9,1l-2 1c0,0 0,0 0,1 0,0 -1,0 -1,1 -1,2 -1,4 -1,7l0 13c0,1 0,1 -1,1 -5,0 -21,-1 -23,0 -3,0 -4,2 -6,4 0,0 0,0 -1,1 0,0 -1,1 -2,2 -1,2 -4,4 -5,5 -1,2 -3,4 -5,6 0,0 0,0 0,0l-2 2c-1,0 -1,1 -2,2 0,1 -1,1 -2,2 0,1 -2,2 -3,3 0,1 -1,2 -2,3l-16 16c0,1 0,1 0,1l-1 1c-1,1 -2,2 -3,3 0,0 0,0 0,0l-10 11c-1,1 -2,1 -3,3 0,1 0,0 -1,1l-3 3c-1,1 -1,1 -2,2 0,1 -1,1 -1,2l-3 3c-1,1 -1,1 -2,2l0 1c-2,1 -4,3 -5,5l-6 6c0,0 0,0 -1,0 0,1 0,1 0,1 0,0 -1,1 -1,1l-1 1c0,0 0,0 0,1 -1,0 -3,3 -4,3 -1,0 -11,0 -12,0 -5,0 -11,0 -16,0 -2,0 -6,0 -8,1 -1,0 -2,1 -2,2 -1,1 -1,2 -1,3 0,7 0,15 0,22 0,1 1,2 1,3l1 1c1,0 1,0 1,0 1,0 0,0 1,0 0,1 1,1 1,1l41 0c3,0 5,0 7,-1l6 -6c0,0 0,-1 0,-1 0,0 0,0 0,0l3 -3c0,0 0,0 1,-1l3 -3c0,0 0,0 0,0l11 -13c1,0 2,-2 3,-3 1,0 1,0 1,-1l12 -12c0,-1 1,-1 1,-1l4 -5c1,-1 2,-2 3,-3l7 -7c0,-1 1,-1 1,-2 1,-1 3,-3 4,-4l7 -7c1,-1 1,-1 1,-2l8 -8c0,0 0,0 0,0l1 -1c0,0 0,0 0,0 0,0 0,0 0,0l7 -7c1,-1 1,-2 2,-2z"/>
 </g>
</svg>
