<?xml version="1.0" encoding="UTF-8"?>
<!DOCTYPE svg PUBLIC "-//W3C//DTD SVG 1.1//EN" "http://www.w3.org/Graphics/SVG/1.1/DTD/svg11.dtd">
<!-- Creator: CorelDRAW X8 -->
<svg xmlns="http://www.w3.org/2000/svg" xml:space="preserve" width="26.8764mm" height="35.8141mm" version="1.1" style="shape-rendering:geometricPrecision; text-rendering:geometricPrecision; image-rendering:optimizeQuality; fill-rule:evenodd; clip-rule:evenodd"
viewBox="0 0 158 210"
 xmlns:xlink="http://www.w3.org/1999/xlink">
 <defs>
  <style type="text/css">
   <![CDATA[
    .fil0 {fill:#28A745}
   ]]>
  </style>
 </defs>
 <g id="Camada_x0020_1">
  <metadata id="CorelCorpID_0Corel-Layer"/>
  <path class="fil0" d="M105 52c3,0 7,0 10,0l37 0c6,0 6,1 6,-1 0,-2 -1,-4 -2,-6 0,-1 0,-1 -2,-2l-4 -5c-1,0 -2,-2 -3,-2 -1,-2 -1,-2 -2,-3 0,0 -3,-3 -5,-4l0 0c-1,-1 -2,-2 -2,-3l-12 -11c0,0 0,0 0,0 0,-1 -1,-2 -2,-3l-2 -2c0,0 0,0 0,0l-2 -1c0,0 0,0 0,0l-2 -2c-1,-2 -4,-5 -6,-6 0,0 0,0 -1,0 -2,-1 -3,-1 -6,-1 0,5 0,9 0,13 0,5 0,9 0,13 0,2 0,25 0,26zm52 14c-1,0 -50,0 -57,0 -1,0 -1,-1 -2,-1 -1,0 0,0 -1,0l0 0c0,-1 0,0 0,-1 -1,0 -2,-1 -2,-1 -1,-1 -1,-1 -1,-1l-2 -3 0 -2c0,-2 0,-4 0,-6l0 -48c0,-4 1,-3 -7,-3l-74 0c-3,0 -4,0 -6,1l-2 2 -2 2 0 2c-1,1 -1,1 -1,2 0,7 0,14 0,21l0 166c0,1 0,5 0,6 0,1 0,0 0,1 1,1 1,0 1,1 0,1 0,1 0,1 1,0 0,0 1,1 2,2 1,1 2,2 1,1 0,0 1,1 1,0 3,1 4,1 2,0 4,0 6,0l132 0c2,0 4,0 6,-1 1,-1 0,-1 1,-1l1 -1c0,0 0,0 1,-1 0,0 0,0 0,-1 1,-1 1,-1 1,-2 1,-2 0,-2 0,-5l0 -127c0,-1 1,-4 0,-5zm-102 47l-5 4c-1,1 -1,1 -2,2 0,0 0,0 0,1 0,0 0,0 0,0l-1 0c0,0 0,0 0,1 0,0 0,0 0,0 -1,0 0,0 -1,0l0 1c-1,0 0,0 -1,1l-2 2c0,0 0,0 0,0l0 0c0,0 -1,0 -1,0l0 1c0,0 0,0 0,0 -1,1 -1,1 -2,1 0,0 0,0 0,0l0 1c0,0 0,0 0,0 0,0 0,0 0,0l-3 3c0,0 0,0 -1,0 0,0 0,0 0,0l0 1c-1,1 -1,0 -2,2 -1,1 0,0 -1,2 -1,1 -1,3 0,4 0,1 1,2 2,3 1,1 3,1 4,1l18 0c3,0 6,0 9,0 0,2 0,13 0,16 0,5 0,11 0,16 0,1 0,2 0,3 0,1 1,2 2,3 1,1 3,2 5,2 2,0 13,0 14,0 0,-1 1,-1 1,-1 1,0 2,-1 3,-2 0,0 1,-2 1,-3l0 -17c0,-2 0,-15 0,-17 7,0 14,0 22,0 3,0 6,1 9,-1 1,-1 2,-2 2,-4 0,0 0,0 0,-1 0,-2 0,-3 -2,-5l-1 -1c-2,-1 -1,0 -2,-2 0,0 0,0 0,0 -1,-1 -1,-1 -1,-1 -1,-2 -2,-2 -3,-3 0,0 0,0 0,0l-1 -1c0,0 0,0 0,0l-1 -1c0,0 0,0 0,0l-3 -3c0,0 0,0 0,0l0 0c-1,-1 -1,-1 -2,-1 0,0 0,0 0,-1 0,0 0,0 0,0l-3 -3c0,0 0,0 0,0l-1 -1c-1,-1 -2,-1 -2,-2 0,0 0,0 0,0 -1,-1 -1,-1 -2,-2 0,0 -1,-1 -1,-1 -1,-1 -3,-3 -3,-3 -1,0 -1,-1 -2,-1 -1,-2 -1,-1 -2,-2 0,0 0,-1 0,-1 -3,-2 -8,-8 -10,-10l-2 0c0,-1 0,-1 -1,-1 0,0 -1,0 -2,0 -1,0 0,0 -1,0 -1,1 0,0 -2,1l0 1c-1,0 -1,0 -1,0l-2 2c-1,1 -1,1 -2,2 0,0 -1,1 -1,1 0,0 0,0 0,0 -1,1 -1,0 -1,1l-2 2c0,0 -1,0 -2,2l0 0c0,0 0,0 0,0 -2,2 -2,2 -2,2 -1,1 -3,2 -3,3 -1,1 0,0 -1,1 0,0 0,0 0,0 0,0 0,0 0,0 0,0 0,0 0,0 -1,1 -1,1 -2,2 0,0 0,0 0,0 0,0 -1,1 -1,1 0,0 0,0 0,0z"/>
 </g>
</svg>
