<?xml version="1.0" encoding="UTF-8"?>
<!DOCTYPE svg PUBLIC "-//W3C//DTD SVG 1.1//EN" "http://www.w3.org/Graphics/SVG/1.1/DTD/svg11.dtd">
<!-- Creator: CorelDRAW X8 -->
<svg xmlns="http://www.w3.org/2000/svg" xml:space="preserve" width="22.255mm" height="19.7784mm" version="1.1" style="shape-rendering:geometricPrecision; text-rendering:geometricPrecision; image-rendering:optimizeQuality; fill-rule:evenodd; clip-rule:evenodd"
viewBox="0 0 172 153"
 xmlns:xlink="http://www.w3.org/1999/xlink">
 <defs>
  <style type="text/css">
   <![CDATA[
    .fil0 {fill:white}
   ]]>
  </style>
 </defs>
 <g id="Camada_x0020_1">
  <metadata id="CorelCorpID_0Corel-Layer"/>
  <path class="fil0" d="M28 19c0,1 1,4 1,5l1 5c0,2 1,3 1,5 0,1 1,3 1,5l0 0c0,1 1,8 2,9 0,1 1,2 1,4 0,0 0,1 0,1 0,0 0,1 0,1 0,1 1,6 2,8l0 3c0,0 0,1 1,2 0,1 1,4 1,4l1 5c0,1 0,3 0,4 1,1 1,1 1,1l1 4c0,1 0,1 0,1 0,1 0,2 0,2 1,2 1,3 1,4l0 2c0,1 1,1 1,2 0,0 0,0 0,1 0,1 0,1 0,1l1 5c0,1 1,3 1,3 0,1 0,1 0,1l1 4c0,2 1,4 1,5 0,1 1,3 1,4 0,1 0,1 0,2l-2 2c-1,0 0,-1 -1,0 0,0 -1,0 -1,1 0,0 0,0 0,0 -1,1 -1,1 -1,1 -1,1 -1,2 -2,2 -1,4 -2,8 -1,11l1 4 1 2c1,2 3,3 4,4 1,1 2,1 2,2 1,0 1,1 2,1l1 0c1,0 1,0 2,1 2,0 5,0 7,-1 1,0 3,0 4,-1 2,-1 2,-2 3,-2 2,-1 4,-5 5,-6 0,-1 1,-2 1,-4 0,-1 0,-1 0,-3 0,0 0,-1 0,-2 0,0 0,0 0,-1 0,-1 0,-1 -1,-1 0,-1 0,-3 -1,-4 -1,-1 0,-1 -1,-2 -1,0 -1,-1 -1,-1 0,0 -1,0 -1,-1l62 0c0,1 0,1 0,1 -1,1 -2,2 -2,3 -1,1 -1,2 -1,2 -1,2 -1,3 -1,5 -1,2 0,7 2,9 0,1 0,1 0,1 1,1 1,1 1,1l3 4c1,0 2,1 2,1 2,1 4,1 5,2 2,0 5,0 7,-1 1,0 1,0 2,0 1,-1 2,-1 3,-1 1,-1 3,-2 3,-3 1,-2 3,-3 3,-4 0,-1 1,-1 1,-1 0,-1 0,-1 0,-2 1,-1 1,-4 1,-6 0,-1 0,-3 -1,-4l0 -1c0,-1 0,-1 -1,-1 0,-1 0,-2 -1,-2 0,-1 0,-1 -1,-1 0,-1 0,-1 0,-1 -1,-1 -1,-1 -3,-3l-1 0c-1,-1 -1,-1 -1,-2 0,-1 0,-2 0,-2 0,-1 0,0 1,-1l0 -4c0,-2 0,-4 -1,-5 -1,-1 -1,-1 -2,-2 0,0 0,0 -1,0 0,-1 0,-1 -1,-1 -1,0 -2,0 -3,0l-72 0c-2,0 -5,0 -7,0l-1 -5c0,-1 0,-2 -1,-3 0,-1 0,-1 0,-2 3,0 7,0 10,0 26,0 51,1 77,0 1,0 1,0 2,0 1,0 2,0 2,0 1,-1 2,-2 3,-3 0,0 1,-2 1,-3 0,-1 0,-1 0,-1 0,-1 0,-1 0,-1l3 -10c0,-1 0,-1 0,-1 0,0 0,-1 0,-1l1 -2c0,-1 0,-2 0,-2 0,-1 0,-1 0,-2 1,-1 0,-1 1,-1l0 -4c1,0 1,-1 1,-1l0 -2c0,-1 1,-2 1,-3l0 -2c0,0 1,-1 1,-1l0 -4c1,0 1,0 1,-1 0,0 0,0 0,-1l2 -8c0,0 0,-1 0,-2l2 -9c0,0 0,0 1,0 0,-3 0,-1 0,-5 0,0 0,-1 -1,-2 0,0 -1,-1 -1,-2 -1,0 0,0 -1,0 0,0 0,-1 0,-1 -2,-1 -4,-1 -5,-1 -13,0 -26,0 -39,0 -23,0 -45,0 -68,0 -2,0 -8,0 -9,0 -1,-2 -1,-5 -2,-6 0,-1 0,-3 -1,-4l-1 -5c0,0 -1,-1 -1,-2 -1,-1 -2,-1 -3,-2 -1,0 0,0 -1,0 0,0 -1,0 -1,0 -9,0 -19,0 -28,0 -2,0 -3,0 -4,0 -1,0 -2,1 -2,1 -2,1 -4,3 -4,5 0,1 0,7 0,7 0,1 0,1 0,1 1,1 0,1 2,3l1 1c0,0 1,0 1,0 1,0 1,1 1,1 2,0 20,0 23,0z"/>
 </g>
</svg>
